<svg width="836" height="405" viewBox="0 0 836 405" fill="none" xmlns="http://www.w3.org/2000/svg">
<g clip-path="url(#clip0_2_21)">
<rect width="836" height="405" fill="white"/>
<path d="M25 324H47V328H25C23.8954 328 23 327.105 23 326C23 324.895 23.8954 324 25 324Z" stroke="#3D0C02" stroke-width="5"/>
<g filter="url(#filter0_d_2_21)">
<path d="M53 302H165V372H61C56.5817 372 53 368.418 53 364V302Z" stroke="#3D0C02" stroke-width="6" shape-rendering="crispEdges"/>
</g>
<g filter="url(#filter1_d_2_21)">
<path d="M67.6509 250H163C164.105 250 165 250.895 165 252V301C165 302.105 164.105 303 163 303H34.4306C32.8262 303 31.8748 301.206 32.7752 299.878L65.9955 250.878C66.3677 250.329 66.9877 250 67.6509 250Z" stroke="#3D0C02" stroke-width="6" shape-rendering="crispEdges"/>
</g>
<g filter="url(#filter2_d_2_21)">
<path d="M173 136H302V364C302 368.418 298.418 372 294 372H165V144C165 139.582 168.582 136 173 136Z" stroke="#3D0C02" stroke-width="6" shape-rendering="crispEdges"/>
</g>
<g filter="url(#filter3_d_2_21)">
<path d="M279 96H302V136H279V96Z" stroke="#3D0C02" stroke-width="6" shape-rendering="crispEdges"/>
</g>
<g filter="url(#filter4_d_2_21)">
<mask id="path-6-inside-1_2_21" fill="white">
<path d="M179.492 127.646C179.256 127.147 179.47 126.55 179.969 126.315L245.963 95.1359C248.459 93.9563 251.44 95.0241 252.619 97.5209L253.046 98.4251C254.226 100.922 253.158 103.902 250.661 105.082L192.806 132.416C187.812 134.775 181.851 132.639 179.492 127.646V127.646Z"/>
</mask>
<path d="M179.492 127.646C179.256 127.147 179.47 126.55 179.969 126.315L245.963 95.1359C248.459 93.9563 251.44 95.0241 252.619 97.5209L253.046 98.4251C254.226 100.922 253.158 103.902 250.661 105.082L192.806 132.416C187.812 134.775 181.851 132.639 179.492 127.646V127.646Z" stroke="#3D0C02" stroke-width="11" shape-rendering="crispEdges" mask="url(#path-6-inside-1_2_21)"/>
</g>
<g filter="url(#filter5_d_2_21)">
<mask id="path-7-inside-2_2_21" fill="white">
<path d="M204 127L210 124V133H204V127Z"/>
</mask>
<path d="M204 127L201.317 121.633L198 123.292V127H204ZM210 124H216V114.292L207.317 118.633L210 124ZM210 133V139H216V133H210ZM204 133H198V139H204V133ZM206.683 132.367L212.683 129.367L207.317 118.633L201.317 121.633L206.683 132.367ZM204 124V133H216V124H204ZM210 127H204V139H210V127ZM210 133V127H198V133H210Z" fill="#3D0C02" mask="url(#path-7-inside-2_2_21)"/>
</g>
<g filter="url(#filter6_d_2_21)">
<path d="M308 324H330C331.105 324 332 324.895 332 326C332 327.105 331.105 328 330 328H308V324Z" stroke="#3D0C02" stroke-width="5" shape-rendering="crispEdges"/>
</g>
<path d="M96 326H112V342H96V326Z" stroke="#3D0C02" stroke-width="5"/>
<g filter="url(#filter7_d_2_21)">
<path d="M191 162H207V178H191V162Z" stroke="#3D0C02" stroke-width="5" shape-rendering="crispEdges"/>
</g>
<g filter="url(#filter8_d_2_21)">
<path d="M191 207H207V223H191V207Z" stroke="#3D0C02" stroke-width="5" shape-rendering="crispEdges"/>
</g>
<g filter="url(#filter9_d_2_21)">
<path d="M191 252H207V268H191V252Z" stroke="#3D0C02" stroke-width="5" shape-rendering="crispEdges"/>
</g>
<path d="M85.5936 303L120.791 250H138.842L102.909 303H85.5936Z" stroke="#3D0C02" stroke-width="6"/>
<path d="M48.5936 303L83.7905 250H101.842L65.9094 303H48.5936Z" stroke="#3D0C02" stroke-width="6"/>
<path d="M50 277L121 276" stroke="#3D0C02" stroke-width="6"/>
<path d="M67.6685 129.217V142H70.3315V129.217H67.6685Z" fill="#F9CD5E"/>
<path d="M67.6685 56.7826V44H70.3315V56.7826H67.6685Z" fill="#F9CD5E"/>
<path d="M32.7826 91.6685H20V94.3315H32.7826V91.6685Z" fill="#F9CD5E"/>
<path d="M105.217 91.6685H118V94.3315H105.217V91.6685Z" fill="#F9CD5E"/>
<path d="M44.332 66.4489L35.2933 57.4103L33.4102 59.2933L42.4489 68.332L44.332 66.4489Z" fill="#F9CD5E"/>
<path d="M95.5511 117.668L104.59 126.707L102.707 128.59L93.668 119.551L95.5511 117.668Z" fill="#F9CD5E"/>
<path d="M95.5511 68.3319L104.59 59.2933L102.707 57.4103L93.668 66.4489L95.5511 68.3319Z" fill="#F9CD5E"/>
<path d="M44.332 119.551L35.2933 128.59L33.4102 126.707L42.4489 117.668L44.332 119.551Z" fill="#F9CD5E"/>
<path d="M69 122.293C85.1783 122.293 98.2935 109.178 98.2935 93C98.2935 76.8217 85.1783 63.7065 69 63.7065C52.8217 63.7065 39.7065 76.8217 39.7065 93C39.7065 109.178 52.8217 122.293 69 122.293Z" fill="#F9CD5E"/>
<path d="M348.5 231.344C349.792 232.219 350.865 233.365 351.719 234.781C352.573 236.198 353 237.917 353 239.938C353 242 352.552 243.792 351.656 245.312C350.76 246.833 349.594 248.083 348.156 249.062C346.76 250.021 345.177 250.75 343.406 251.25C341.656 251.75 339.844 252 337.969 252H316.969V249.781C317.469 249.74 318.198 249.656 319.156 249.531C320.115 249.385 320.802 249.219 321.219 249.031C321.865 248.74 322.323 248.354 322.594 247.875C322.865 247.375 323 246.74 323 245.969V214.094C323 213.385 322.875 212.76 322.625 212.219C322.396 211.677 321.927 211.24 321.219 210.906C320.594 210.594 319.896 210.354 319.125 210.188C318.354 210.021 317.708 209.917 317.188 209.875V207.656H337.656C339.24 207.656 340.75 207.812 342.188 208.125C343.646 208.438 345.031 208.99 346.344 209.781C347.573 210.51 348.583 211.5 349.375 212.75C350.167 214 350.562 215.521 350.562 217.312C350.562 218.875 350.281 220.271 349.719 221.5C349.156 222.708 348.365 223.75 347.344 224.625C346.385 225.458 345.281 226.167 344.031 226.75C342.802 227.312 341.469 227.75 340.031 228.062V228.344C341.302 228.49 342.719 228.812 344.281 229.312C345.865 229.792 347.271 230.469 348.5 231.344ZM340.969 224.656C341.74 223.76 342.271 222.781 342.562 221.719C342.875 220.656 343.031 219.396 343.031 217.938C343.031 215.5 342.365 213.594 341.031 212.219C339.698 210.823 337.594 210.125 334.719 210.125C334.052 210.125 333.208 210.146 332.188 210.188C331.188 210.208 330.344 210.229 329.656 210.25V227.281H333.625C335.333 227.281 336.792 227.062 338 226.625C339.229 226.188 340.219 225.531 340.969 224.656ZM345.281 238.812C345.281 236.188 344.396 234.031 342.625 232.344C340.875 230.656 338.365 229.812 335.094 229.812C333.76 229.812 332.635 229.833 331.719 229.875C330.802 229.896 330.115 229.917 329.656 229.938V245.562C329.656 246.875 330.188 247.865 331.25 248.531C332.312 249.198 333.792 249.531 335.688 249.531C338.792 249.531 341.167 248.625 342.812 246.812C344.458 245 345.281 242.333 345.281 238.812ZM400.281 252H381.812V249.781C383.438 249.677 384.781 249.469 385.844 249.156C386.927 248.844 387.469 248.458 387.469 248C387.469 247.812 387.448 247.583 387.406 247.312C387.365 247.042 387.302 246.802 387.219 246.594L383.531 236.656H368C367.417 238.115 366.938 239.385 366.562 240.469C366.208 241.552 365.885 242.552 365.594 243.469C365.323 244.365 365.135 245.094 365.031 245.656C364.927 246.219 364.875 246.677 364.875 247.031C364.875 247.865 365.531 248.51 366.844 248.969C368.156 249.427 369.635 249.698 371.281 249.781V252H354.594V249.781C355.135 249.74 355.812 249.625 356.625 249.438C357.438 249.229 358.104 248.958 358.625 248.625C359.458 248.062 360.104 247.479 360.562 246.875C361.021 246.25 361.469 245.396 361.906 244.312C364.135 238.75 366.594 232.5 369.281 225.562C371.969 218.625 374.365 212.448 376.469 207.031H378.969L393.75 245.281C394.062 246.094 394.417 246.75 394.812 247.25C395.208 247.75 395.76 248.24 396.469 248.719C396.948 249.01 397.573 249.26 398.344 249.469C399.115 249.656 399.76 249.76 400.281 249.781V252ZM382.406 233.875L375.688 216.688L369.094 233.875H382.406ZM429.469 231.656C430.406 232.698 431.094 233.844 431.531 235.094C431.99 236.323 432.219 237.76 432.219 239.406C432.219 243.323 430.771 246.552 427.875 249.094C424.979 251.635 421.385 252.906 417.094 252.906C415.115 252.906 413.135 252.604 411.156 252C409.177 251.375 407.469 250.625 406.031 249.75L404.688 252.031H402.188L401.75 236.844H404.281C404.802 238.719 405.406 240.417 406.094 241.938C406.802 243.438 407.729 244.844 408.875 246.156C409.958 247.385 411.219 248.365 412.656 249.094C414.115 249.823 415.802 250.188 417.719 250.188C419.156 250.188 420.406 250 421.469 249.625C422.552 249.25 423.427 248.719 424.094 248.031C424.76 247.344 425.25 246.542 425.562 245.625C425.896 244.688 426.062 243.615 426.062 242.406C426.062 240.635 425.562 238.99 424.562 237.469C423.562 235.927 422.073 234.76 420.094 233.969C418.74 233.427 417.188 232.833 415.438 232.188C413.688 231.521 412.177 230.896 410.906 230.312C408.406 229.188 406.458 227.719 405.062 225.906C403.688 224.073 403 221.688 403 218.75C403 217.062 403.344 215.49 404.031 214.031C404.719 212.573 405.698 211.271 406.969 210.125C408.177 209.042 409.604 208.198 411.25 207.594C412.896 206.969 414.615 206.656 416.406 206.656C418.448 206.656 420.271 206.969 421.875 207.594C423.5 208.219 424.979 208.948 426.312 209.781L427.594 207.656H430.094L430.344 222.375H427.812C427.354 220.688 426.833 219.073 426.25 217.531C425.688 215.99 424.948 214.594 424.031 213.344C423.135 212.135 422.042 211.177 420.75 210.469C419.458 209.74 417.875 209.375 416 209.375C414.021 209.375 412.333 210.01 410.938 211.281C409.542 212.552 408.844 214.104 408.844 215.938C408.844 217.854 409.292 219.448 410.188 220.719C411.083 221.969 412.385 223 414.094 223.812C415.615 224.542 417.104 225.177 418.562 225.719C420.042 226.24 421.469 226.802 422.844 227.406C424.094 227.948 425.292 228.562 426.438 229.25C427.604 229.938 428.615 230.74 429.469 231.656ZM480.844 252H468.406C466.01 248.292 463.344 244.615 460.406 240.969C457.49 237.302 454.427 233.75 451.219 230.312H450.406V245.75C450.406 246.438 450.531 247.052 450.781 247.594C451.052 248.135 451.531 248.573 452.219 248.906C452.552 249.052 453.167 249.229 454.062 249.438C454.979 249.646 455.74 249.76 456.344 249.781V252H437.938V249.781C438.417 249.74 439.115 249.677 440.031 249.594C440.948 249.51 441.594 249.385 441.969 249.219C442.594 248.948 443.042 248.552 443.312 248.031C443.604 247.49 443.75 246.844 443.75 246.094V214.094C443.75 213.385 443.625 212.771 443.375 212.25C443.146 211.729 442.677 211.302 441.969 210.969C441.406 210.698 440.74 210.458 439.969 210.25C439.198 210.042 438.521 209.917 437.938 209.875V207.656H456.344V209.875C455.76 209.896 455.031 209.99 454.156 210.156C453.281 210.323 452.635 210.479 452.219 210.625C451.51 210.875 451.031 211.292 450.781 211.875C450.531 212.458 450.406 213.094 450.406 213.781V229.094H451.031C452.906 227.51 454.75 225.865 456.562 224.156C458.375 222.427 460.021 220.708 461.5 219C463.146 217.104 464.344 215.594 465.094 214.469C465.865 213.323 466.25 212.312 466.25 211.438C466.25 211.125 466.052 210.875 465.656 210.688C465.281 210.479 464.844 210.312 464.344 210.188C463.76 210.062 463.24 209.99 462.781 209.969C462.323 209.927 461.948 209.896 461.656 209.875V207.656H478.281V209.875C478.219 209.875 478.083 209.885 477.875 209.906C477.667 209.927 477.427 209.948 477.156 209.969C476.865 209.99 476.573 210.031 476.281 210.094C475.99 210.156 475.615 210.229 475.156 210.312C474.427 210.479 473.667 210.75 472.875 211.125C472.104 211.479 471.469 211.927 470.969 212.469C468.823 214.906 466.583 217.427 464.25 220.031C461.917 222.635 459.604 225.01 457.312 227.156C460.479 230.74 463.094 233.823 465.156 236.406C467.24 238.99 469.448 241.75 471.781 244.688C472.677 245.812 473.573 246.719 474.469 247.406C475.365 248.073 476.135 248.573 476.781 248.906C477.323 249.177 478 249.385 478.812 249.531C479.625 249.677 480.302 249.76 480.844 249.781V252ZM501.625 252H481.656V249.781C482.219 249.74 483.031 249.677 484.094 249.594C485.156 249.51 485.906 249.385 486.344 249.219C487.031 248.948 487.531 248.583 487.844 248.125C488.156 247.646 488.312 246.99 488.312 246.156V214.031C488.312 213.302 488.198 212.698 487.969 212.219C487.74 211.719 487.198 211.302 486.344 210.969C485.719 210.719 484.927 210.49 483.969 210.281C483.031 210.052 482.26 209.917 481.656 209.875V207.656H501.625V209.875C500.979 209.896 500.208 209.979 499.312 210.125C498.417 210.25 497.635 210.417 496.969 210.625C496.177 210.875 495.646 211.281 495.375 211.844C495.104 212.406 494.969 213.031 494.969 213.719V245.812C494.969 246.5 495.115 247.115 495.406 247.656C495.719 248.177 496.24 248.594 496.969 248.906C497.406 249.073 498.115 249.26 499.094 249.469C500.094 249.656 500.938 249.76 501.625 249.781V252ZM552.688 209.875C552.104 209.896 551.208 210.062 550 210.375C548.792 210.688 547.927 211.01 547.406 211.344C546.656 211.865 546.146 212.865 545.875 214.344C545.625 215.823 545.5 217.698 545.5 219.969V252.438H542.781L515.906 216.156V239.031C515.906 241.594 516.062 243.562 516.375 244.938C516.708 246.312 517.208 247.292 517.875 247.875C518.354 248.333 519.344 248.76 520.844 249.156C522.344 249.552 523.333 249.76 523.812 249.781V252H505.625V249.781C506.188 249.74 507.135 249.542 508.469 249.188C509.802 248.812 510.635 248.479 510.969 248.188C511.698 247.604 512.198 246.719 512.469 245.531C512.74 244.323 512.875 242.271 512.875 239.375V217.531C512.875 216.573 512.708 215.615 512.375 214.656C512.042 213.698 511.594 212.958 511.031 212.438C510.281 211.75 509.26 211.167 507.969 210.688C506.698 210.188 505.667 209.917 504.875 209.875V207.656H517.531L542.469 241.469V220.375C542.469 217.792 542.302 215.812 541.969 214.438C541.635 213.042 541.156 212.115 540.531 211.656C539.948 211.26 538.99 210.875 537.656 210.5C536.344 210.125 535.344 209.917 534.656 209.875V207.656H552.688V209.875ZM599.344 231.656C600.281 232.698 600.969 233.844 601.406 235.094C601.865 236.323 602.094 237.76 602.094 239.406C602.094 243.323 600.646 246.552 597.75 249.094C594.854 251.635 591.26 252.906 586.969 252.906C584.99 252.906 583.01 252.604 581.031 252C579.052 251.375 577.344 250.625 575.906 249.75L574.562 252.031H572.062L571.625 236.844H574.156C574.677 238.719 575.281 240.417 575.969 241.938C576.677 243.438 577.604 244.844 578.75 246.156C579.833 247.385 581.094 248.365 582.531 249.094C583.99 249.823 585.677 250.188 587.594 250.188C589.031 250.188 590.281 250 591.344 249.625C592.427 249.25 593.302 248.719 593.969 248.031C594.635 247.344 595.125 246.542 595.438 245.625C595.771 244.688 595.938 243.615 595.938 242.406C595.938 240.635 595.438 238.99 594.438 237.469C593.438 235.927 591.948 234.76 589.969 233.969C588.615 233.427 587.062 232.833 585.312 232.188C583.562 231.521 582.052 230.896 580.781 230.312C578.281 229.188 576.333 227.719 574.938 225.906C573.562 224.073 572.875 221.688 572.875 218.75C572.875 217.062 573.219 215.49 573.906 214.031C574.594 212.573 575.573 211.271 576.844 210.125C578.052 209.042 579.479 208.198 581.125 207.594C582.771 206.969 584.49 206.656 586.281 206.656C588.323 206.656 590.146 206.969 591.75 207.594C593.375 208.219 594.854 208.948 596.188 209.781L597.469 207.656H599.969L600.219 222.375H597.688C597.229 220.688 596.708 219.073 596.125 217.531C595.562 215.99 594.823 214.594 593.906 213.344C593.01 212.135 591.917 211.177 590.625 210.469C589.333 209.74 587.75 209.375 585.875 209.375C583.896 209.375 582.208 210.01 580.812 211.281C579.417 212.552 578.719 214.104 578.719 215.938C578.719 217.854 579.167 219.448 580.062 220.719C580.958 221.969 582.26 223 583.969 223.812C585.49 224.542 586.979 225.177 588.438 225.719C589.917 226.24 591.344 226.802 592.719 227.406C593.969 227.948 595.167 228.562 596.312 229.25C597.479 229.938 598.49 230.74 599.344 231.656ZM643.5 212.906C645.458 214.948 646.99 217.417 648.094 220.312C649.198 223.188 649.75 226.375 649.75 229.875C649.75 233.396 649.188 236.594 648.062 239.469C646.938 242.344 645.375 244.792 643.375 246.812C641.438 248.812 639.188 250.354 636.625 251.438C634.062 252.521 631.333 253.062 628.438 253.062C625.354 253.062 622.5 252.49 619.875 251.344C617.271 250.177 615.031 248.562 613.156 246.5C611.281 244.479 609.802 242.031 608.719 239.156C607.656 236.26 607.125 233.167 607.125 229.875C607.125 226.271 607.688 223.062 608.812 220.25C609.938 217.417 611.49 214.969 613.469 212.906C615.427 210.865 617.698 209.302 620.281 208.219C622.885 207.135 625.604 206.594 628.438 206.594C631.375 206.594 634.146 207.146 636.75 208.25C639.354 209.354 641.604 210.906 643.5 212.906ZM638.844 244.344C640.01 242.448 640.854 240.302 641.375 237.906C641.917 235.51 642.188 232.833 642.188 229.875C642.188 226.833 641.885 224.042 641.281 221.5C640.698 218.958 639.833 216.792 638.688 215C637.542 213.229 636.104 211.854 634.375 210.875C632.646 209.875 630.667 209.375 628.438 209.375C625.938 209.375 623.812 209.948 622.062 211.094C620.312 212.24 618.885 213.771 617.781 215.688C616.74 217.521 615.958 219.667 615.438 222.125C614.938 224.583 614.688 227.167 614.688 229.875C614.688 232.875 614.958 235.583 615.5 238C616.042 240.417 616.896 242.562 618.062 244.438C619.188 246.271 620.604 247.708 622.312 248.75C624.021 249.771 626.062 250.281 628.438 250.281C630.667 250.281 632.677 249.76 634.469 248.719C636.26 247.677 637.719 246.219 638.844 244.344ZM690.906 238.812L689.969 252H655.312V249.781C655.812 249.74 656.531 249.667 657.469 249.562C658.427 249.458 659.094 249.323 659.469 249.156C660.094 248.885 660.542 248.49 660.812 247.969C661.104 247.448 661.25 246.781 661.25 245.969V214.219C661.25 213.51 661.125 212.885 660.875 212.344C660.646 211.802 660.177 211.365 659.469 211.031C658.99 210.781 658.312 210.542 657.438 210.312C656.583 210.062 655.875 209.917 655.312 209.875V207.656H674.031V209.875C673.448 209.896 672.688 210 671.75 210.188C670.833 210.375 670.167 210.542 669.75 210.688C669.042 210.938 668.552 211.365 668.281 211.969C668.031 212.573 667.906 213.219 667.906 213.906V243.688C667.906 245.062 667.969 246.135 668.094 246.906C668.24 247.656 668.562 248.24 669.062 248.656C669.542 249.031 670.25 249.281 671.188 249.406C672.146 249.51 673.479 249.562 675.188 249.562C675.958 249.562 676.76 249.542 677.594 249.5C678.427 249.458 679.219 249.375 679.969 249.25C680.698 249.125 681.365 248.958 681.969 248.75C682.594 248.521 683.052 248.24 683.344 247.906C684.198 246.948 685.188 245.5 686.312 243.562C687.458 241.604 688.25 240.021 688.688 238.812H690.906ZM735.281 252H716.812V249.781C718.438 249.677 719.781 249.469 720.844 249.156C721.927 248.844 722.469 248.458 722.469 248C722.469 247.812 722.448 247.583 722.406 247.312C722.365 247.042 722.302 246.802 722.219 246.594L718.531 236.656H703C702.417 238.115 701.938 239.385 701.562 240.469C701.208 241.552 700.885 242.552 700.594 243.469C700.323 244.365 700.135 245.094 700.031 245.656C699.927 246.219 699.875 246.677 699.875 247.031C699.875 247.865 700.531 248.51 701.844 248.969C703.156 249.427 704.635 249.698 706.281 249.781V252H689.594V249.781C690.135 249.74 690.812 249.625 691.625 249.438C692.438 249.229 693.104 248.958 693.625 248.625C694.458 248.062 695.104 247.479 695.562 246.875C696.021 246.25 696.469 245.396 696.906 244.312C699.135 238.75 701.594 232.5 704.281 225.562C706.969 218.625 709.365 212.448 711.469 207.031H713.969L728.75 245.281C729.062 246.094 729.417 246.75 729.812 247.25C730.208 247.75 730.76 248.24 731.469 248.719C731.948 249.01 732.573 249.26 733.344 249.469C734.115 249.656 734.76 249.76 735.281 249.781V252ZM717.406 233.875L710.688 216.688L704.094 233.875H717.406ZM780.062 252H768.125C765.479 247.854 763.083 244.271 760.938 241.25C758.812 238.229 756.5 235.115 754 231.906H749.469V245.969C749.469 246.698 749.583 247.344 749.812 247.906C750.042 248.448 750.531 248.865 751.281 249.156C751.656 249.302 752.312 249.438 753.25 249.562C754.188 249.688 754.979 249.76 755.625 249.781V252H736.875V249.781C737.375 249.74 738.094 249.667 739.031 249.562C739.99 249.458 740.656 249.323 741.031 249.156C741.656 248.885 742.104 248.49 742.375 247.969C742.667 247.448 742.812 246.781 742.812 245.969V213.906C742.812 213.177 742.708 212.531 742.5 211.969C742.292 211.406 741.802 210.979 741.031 210.688C740.51 210.5 739.833 210.333 739 210.188C738.167 210.021 737.458 209.917 736.875 209.875V207.656H757.344C759.219 207.656 760.979 207.854 762.625 208.25C764.271 208.625 765.76 209.24 767.094 210.094C768.385 210.927 769.417 212.021 770.188 213.375C770.958 214.708 771.344 216.323 771.344 218.219C771.344 219.927 771.083 221.438 770.562 222.75C770.042 224.062 769.271 225.198 768.25 226.156C767.312 227.052 766.188 227.833 764.875 228.5C763.562 229.146 762.115 229.698 760.531 230.156C762.719 233.052 764.531 235.49 765.969 237.469C767.427 239.448 769.208 241.854 771.312 244.688C772.229 245.938 773.052 246.865 773.781 247.469C774.531 248.052 775.271 248.531 776 248.906C776.542 249.177 777.219 249.385 778.031 249.531C778.844 249.677 779.521 249.76 780.062 249.781V252ZM763.625 218.938C763.625 216.25 762.854 214.125 761.312 212.562C759.771 210.979 757.594 210.188 754.781 210.188H749.469V229.219H753.562C756.438 229.219 758.833 228.302 760.75 226.469C762.667 224.615 763.625 222.104 763.625 218.938Z" fill="#3D0C02"/>
</g>
<defs>
<filter id="filter0_d_2_21" x="46" y="299" width="126" height="84" filterUnits="userSpaceOnUse" color-interpolation-filters="sRGB">
<feFlood flood-opacity="0" result="BackgroundImageFix"/>
<feColorMatrix in="SourceAlpha" type="matrix" values="0 0 0 0 0 0 0 0 0 0 0 0 0 0 0 0 0 0 127 0" result="hardAlpha"/>
<feOffset dy="4"/>
<feGaussianBlur stdDeviation="2"/>
<feComposite in2="hardAlpha" operator="out"/>
<feColorMatrix type="matrix" values="0 0 0 0 0 0 0 0 0 0 0 0 0 0 0 0 0 0 0.25 0"/>
<feBlend mode="normal" in2="BackgroundImageFix" result="effect1_dropShadow_2_21"/>
<feBlend mode="normal" in="SourceGraphic" in2="effect1_dropShadow_2_21" result="shape"/>
</filter>
<filter id="filter1_d_2_21" x="25.4221" y="247" width="146.578" height="67" filterUnits="userSpaceOnUse" color-interpolation-filters="sRGB">
<feFlood flood-opacity="0" result="BackgroundImageFix"/>
<feColorMatrix in="SourceAlpha" type="matrix" values="0 0 0 0 0 0 0 0 0 0 0 0 0 0 0 0 0 0 127 0" result="hardAlpha"/>
<feOffset dy="4"/>
<feGaussianBlur stdDeviation="2"/>
<feComposite in2="hardAlpha" operator="out"/>
<feColorMatrix type="matrix" values="0 0 0 0 0 0 0 0 0 0 0 0 0 0 0 0 0 0 0.25 0"/>
<feBlend mode="normal" in2="BackgroundImageFix" result="effect1_dropShadow_2_21"/>
<feBlend mode="normal" in="SourceGraphic" in2="effect1_dropShadow_2_21" result="shape"/>
</filter>
<filter id="filter2_d_2_21" x="158" y="133" width="151" height="250" filterUnits="userSpaceOnUse" color-interpolation-filters="sRGB">
<feFlood flood-opacity="0" result="BackgroundImageFix"/>
<feColorMatrix in="SourceAlpha" type="matrix" values="0 0 0 0 0 0 0 0 0 0 0 0 0 0 0 0 0 0 127 0" result="hardAlpha"/>
<feOffset dy="4"/>
<feGaussianBlur stdDeviation="2"/>
<feComposite in2="hardAlpha" operator="out"/>
<feColorMatrix type="matrix" values="0 0 0 0 0 0 0 0 0 0 0 0 0 0 0 0 0 0 0.25 0"/>
<feBlend mode="normal" in2="BackgroundImageFix" result="effect1_dropShadow_2_21"/>
<feBlend mode="normal" in="SourceGraphic" in2="effect1_dropShadow_2_21" result="shape"/>
</filter>
<filter id="filter3_d_2_21" x="272" y="93" width="37" height="54" filterUnits="userSpaceOnUse" color-interpolation-filters="sRGB">
<feFlood flood-opacity="0" result="BackgroundImageFix"/>
<feColorMatrix in="SourceAlpha" type="matrix" values="0 0 0 0 0 0 0 0 0 0 0 0 0 0 0 0 0 0 127 0" result="hardAlpha"/>
<feOffset dy="4"/>
<feGaussianBlur stdDeviation="2"/>
<feComposite in2="hardAlpha" operator="out"/>
<feColorMatrix type="matrix" values="0 0 0 0 0 0 0 0 0 0 0 0 0 0 0 0 0 0 0.25 0"/>
<feBlend mode="normal" in2="BackgroundImageFix" result="effect1_dropShadow_2_21"/>
<feBlend mode="normal" in="SourceGraphic" in2="effect1_dropShadow_2_21" result="shape"/>
</filter>
<filter id="filter4_d_2_21" x="175.396" y="94.6556" width="82.1307" height="46.7209" filterUnits="userSpaceOnUse" color-interpolation-filters="sRGB">
<feFlood flood-opacity="0" result="BackgroundImageFix"/>
<feColorMatrix in="SourceAlpha" type="matrix" values="0 0 0 0 0 0 0 0 0 0 0 0 0 0 0 0 0 0 127 0" result="hardAlpha"/>
<feOffset dy="4"/>
<feGaussianBlur stdDeviation="2"/>
<feComposite in2="hardAlpha" operator="out"/>
<feColorMatrix type="matrix" values="0 0 0 0 0 0 0 0 0 0 0 0 0 0 0 0 0 0 0.25 0"/>
<feBlend mode="normal" in2="BackgroundImageFix" result="effect1_dropShadow_2_21"/>
<feBlend mode="normal" in="SourceGraphic" in2="effect1_dropShadow_2_21" result="shape"/>
</filter>
<filter id="filter5_d_2_21" x="200" y="124" width="14" height="17" filterUnits="userSpaceOnUse" color-interpolation-filters="sRGB">
<feFlood flood-opacity="0" result="BackgroundImageFix"/>
<feColorMatrix in="SourceAlpha" type="matrix" values="0 0 0 0 0 0 0 0 0 0 0 0 0 0 0 0 0 0 127 0" result="hardAlpha"/>
<feOffset dy="4"/>
<feGaussianBlur stdDeviation="2"/>
<feComposite in2="hardAlpha" operator="out"/>
<feColorMatrix type="matrix" values="0 0 0 0 0 0 0 0 0 0 0 0 0 0 0 0 0 0 0.25 0"/>
<feBlend mode="normal" in2="BackgroundImageFix" result="effect1_dropShadow_2_21"/>
<feBlend mode="normal" in="SourceGraphic" in2="effect1_dropShadow_2_21" result="shape"/>
</filter>
<filter id="filter6_d_2_21" x="301" y="321" width="38" height="18" filterUnits="userSpaceOnUse" color-interpolation-filters="sRGB">
<feFlood flood-opacity="0" result="BackgroundImageFix"/>
<feColorMatrix in="SourceAlpha" type="matrix" values="0 0 0 0 0 0 0 0 0 0 0 0 0 0 0 0 0 0 127 0" result="hardAlpha"/>
<feOffset dy="4"/>
<feGaussianBlur stdDeviation="2"/>
<feComposite in2="hardAlpha" operator="out"/>
<feColorMatrix type="matrix" values="0 0 0 0 0 0 0 0 0 0 0 0 0 0 0 0 0 0 0.25 0"/>
<feBlend mode="normal" in2="BackgroundImageFix" result="effect1_dropShadow_2_21"/>
<feBlend mode="normal" in="SourceGraphic" in2="effect1_dropShadow_2_21" result="shape"/>
</filter>
<filter id="filter7_d_2_21" x="184.5" y="159.5" width="29" height="29" filterUnits="userSpaceOnUse" color-interpolation-filters="sRGB">
<feFlood flood-opacity="0" result="BackgroundImageFix"/>
<feColorMatrix in="SourceAlpha" type="matrix" values="0 0 0 0 0 0 0 0 0 0 0 0 0 0 0 0 0 0 127 0" result="hardAlpha"/>
<feOffset dy="4"/>
<feGaussianBlur stdDeviation="2"/>
<feComposite in2="hardAlpha" operator="out"/>
<feColorMatrix type="matrix" values="0 0 0 0 0 0 0 0 0 0 0 0 0 0 0 0 0 0 0.25 0"/>
<feBlend mode="normal" in2="BackgroundImageFix" result="effect1_dropShadow_2_21"/>
<feBlend mode="normal" in="SourceGraphic" in2="effect1_dropShadow_2_21" result="shape"/>
</filter>
<filter id="filter8_d_2_21" x="184.5" y="204.5" width="29" height="29" filterUnits="userSpaceOnUse" color-interpolation-filters="sRGB">
<feFlood flood-opacity="0" result="BackgroundImageFix"/>
<feColorMatrix in="SourceAlpha" type="matrix" values="0 0 0 0 0 0 0 0 0 0 0 0 0 0 0 0 0 0 127 0" result="hardAlpha"/>
<feOffset dy="4"/>
<feGaussianBlur stdDeviation="2"/>
<feComposite in2="hardAlpha" operator="out"/>
<feColorMatrix type="matrix" values="0 0 0 0 0 0 0 0 0 0 0 0 0 0 0 0 0 0 0.25 0"/>
<feBlend mode="normal" in2="BackgroundImageFix" result="effect1_dropShadow_2_21"/>
<feBlend mode="normal" in="SourceGraphic" in2="effect1_dropShadow_2_21" result="shape"/>
</filter>
<filter id="filter9_d_2_21" x="184.5" y="249.5" width="29" height="29" filterUnits="userSpaceOnUse" color-interpolation-filters="sRGB">
<feFlood flood-opacity="0" result="BackgroundImageFix"/>
<feColorMatrix in="SourceAlpha" type="matrix" values="0 0 0 0 0 0 0 0 0 0 0 0 0 0 0 0 0 0 127 0" result="hardAlpha"/>
<feOffset dy="4"/>
<feGaussianBlur stdDeviation="2"/>
<feComposite in2="hardAlpha" operator="out"/>
<feColorMatrix type="matrix" values="0 0 0 0 0 0 0 0 0 0 0 0 0 0 0 0 0 0 0.25 0"/>
<feBlend mode="normal" in2="BackgroundImageFix" result="effect1_dropShadow_2_21"/>
<feBlend mode="normal" in="SourceGraphic" in2="effect1_dropShadow_2_21" result="shape"/>
</filter>
<clipPath id="clip0_2_21">
<rect width="836" height="405" fill="white"/>
</clipPath>
</defs>
</svg>
