<svg width="866" height="429" viewBox="0 0 866 429" fill="none" xmlns="http://www.w3.org/2000/svg">
<rect width="866" height="429" fill="white"/>
<path d="M49 317H71V321H49C47.8954 321 47 320.105 47 319C47 317.895 47.8954 317 49 317Z" stroke="#3D0C02" stroke-width="5"/>
<g filter="url(#filter0_d_18_2)">
<path d="M77 295H189V365H85C80.5817 365 77 361.418 77 357V295Z" stroke="#3D0C02" stroke-width="6" shape-rendering="crispEdges"/>
</g>
<g filter="url(#filter1_d_18_2)">
<path d="M91.6509 243H187C188.105 243 189 243.895 189 245V294C189 295.105 188.105 296 187 296H58.4306C56.8262 296 55.8748 294.206 56.7752 292.878L89.9955 243.878C90.3677 243.329 90.9877 243 91.6509 243Z" stroke="#3D0C02" stroke-width="6" shape-rendering="crispEdges"/>
</g>
<g filter="url(#filter2_d_18_2)">
<path d="M197 129H326V357C326 361.418 322.418 365 318 365H189V137C189 132.582 192.582 129 197 129Z" stroke="#3D0C02" stroke-width="6" shape-rendering="crispEdges"/>
</g>
<g filter="url(#filter3_d_18_2)">
<path d="M303 89H326V129H303V89Z" stroke="#3D0C02" stroke-width="6" shape-rendering="crispEdges"/>
</g>
<g filter="url(#filter4_d_18_2)">
<mask id="path-6-inside-1_18_2" fill="white">
<path d="M203.492 120.646C203.256 120.147 203.47 119.55 203.969 119.315L269.963 88.1359C272.459 86.9563 275.44 88.0241 276.619 90.5209L277.046 91.4251C278.226 93.9219 277.158 96.9022 274.661 98.0818L216.806 125.416C211.812 127.775 205.851 125.639 203.492 120.646V120.646Z"/>
</mask>
<path d="M203.492 120.646C203.256 120.147 203.47 119.55 203.969 119.315L269.963 88.1359C272.459 86.9563 275.44 88.0241 276.619 90.5209L277.046 91.4251C278.226 93.9219 277.158 96.9022 274.661 98.0818L216.806 125.416C211.812 127.775 205.851 125.639 203.492 120.646V120.646Z" stroke="#3D0C02" stroke-width="11" shape-rendering="crispEdges" mask="url(#path-6-inside-1_18_2)"/>
</g>
<g filter="url(#filter5_d_18_2)">
<mask id="path-7-inside-2_18_2" fill="white">
<path d="M228 120L234 117V126H228V120Z"/>
</mask>
<path d="M228 120L225.317 114.633L222 116.292V120H228ZM234 117H240V107.292L231.317 111.633L234 117ZM234 126V132H240V126H234ZM228 126H222V132H228V126ZM230.683 125.367L236.683 122.367L231.317 111.633L225.317 114.633L230.683 125.367ZM228 117V126H240V117H228ZM234 120H228V132H234V120ZM234 126V120H222V126H234Z" fill="#3D0C02" mask="url(#path-7-inside-2_18_2)"/>
</g>
<g filter="url(#filter6_d_18_2)">
<path d="M332 317H354C355.105 317 356 317.895 356 319C356 320.105 355.105 321 354 321H332V317Z" stroke="#3D0C02" stroke-width="5" shape-rendering="crispEdges"/>
</g>
<path d="M120 319H136V335H120V319Z" stroke="#3D0C02" stroke-width="5"/>
<g filter="url(#filter7_d_18_2)">
<path d="M215 155H231V171H215V155Z" stroke="#3D0C02" stroke-width="5" shape-rendering="crispEdges"/>
</g>
<g filter="url(#filter8_d_18_2)">
<path d="M215 200H231V216H215V200Z" stroke="#3D0C02" stroke-width="5" shape-rendering="crispEdges"/>
</g>
<g filter="url(#filter9_d_18_2)">
<path d="M215 245H231V261H215V245Z" stroke="#3D0C02" stroke-width="5" shape-rendering="crispEdges"/>
</g>
<path d="M109.594 296L144.791 243H162.842L126.909 296H109.594Z" stroke="#3D0C02" stroke-width="6"/>
<path d="M72.5936 296L107.791 243H125.842L89.9094 296H72.5936Z" stroke="#3D0C02" stroke-width="6"/>
<path d="M74 270L145 269" stroke="#3D0C02" stroke-width="6"/>
<path d="M91.6685 122.217V135H94.3315V122.217H91.6685Z" fill="#FFD700"/>
<path d="M91.6685 49.7826V37H94.3315V49.7826H91.6685Z" fill="#FFD700"/>
<path d="M56.7826 84.6685H44V87.3315H56.7826V84.6685Z" fill="#FFD700"/>
<path d="M129.217 84.6685H142V87.3315H129.217V84.6685Z" fill="#FFD700"/>
<path d="M68.332 59.4489L59.2933 50.4103L57.4102 52.2933L66.4489 61.332L68.332 59.4489Z" fill="#FFD700"/>
<path d="M119.551 110.668L128.59 119.707L126.707 121.59L117.668 112.551L119.551 110.668Z" fill="#FFD700"/>
<path d="M119.551 61.3319L128.59 52.2933L126.707 50.4103L117.668 59.4489L119.551 61.3319Z" fill="#FFD700"/>
<path d="M68.332 112.551L59.2933 121.59L57.4102 119.707L66.4489 110.668L68.332 112.551Z" fill="#FFD700"/>
<path d="M93 115.293C109.178 115.293 122.293 102.178 122.293 86C122.293 69.8217 109.178 56.7065 93 56.7065C76.8217 56.7065 63.7065 69.8217 63.7065 86C63.7065 102.178 76.8217 115.293 93 115.293Z" fill="#FFD700"/>
<path d="M433.5 240.344C434.792 241.219 435.865 242.365 436.719 243.781C437.573 245.198 438 246.917 438 248.938C438 251 437.552 252.792 436.656 254.312C435.76 255.833 434.594 257.083 433.156 258.062C431.76 259.021 430.177 259.75 428.406 260.25C426.656 260.75 424.844 261 422.969 261H401.969V258.781C402.469 258.74 403.198 258.656 404.156 258.531C405.115 258.385 405.802 258.219 406.219 258.031C406.865 257.74 407.323 257.354 407.594 256.875C407.865 256.375 408 255.74 408 254.969V223.094C408 222.385 407.875 221.76 407.625 221.219C407.396 220.677 406.927 220.24 406.219 219.906C405.594 219.594 404.896 219.354 404.125 219.188C403.354 219.021 402.708 218.917 402.188 218.875V216.656H422.656C424.24 216.656 425.75 216.812 427.188 217.125C428.646 217.438 430.031 217.99 431.344 218.781C432.573 219.51 433.583 220.5 434.375 221.75C435.167 223 435.562 224.521 435.562 226.312C435.562 227.875 435.281 229.271 434.719 230.5C434.156 231.708 433.365 232.75 432.344 233.625C431.385 234.458 430.281 235.167 429.031 235.75C427.802 236.312 426.469 236.75 425.031 237.062V237.344C426.302 237.49 427.719 237.812 429.281 238.312C430.865 238.792 432.271 239.469 433.5 240.344ZM425.969 233.656C426.74 232.76 427.271 231.781 427.562 230.719C427.875 229.656 428.031 228.396 428.031 226.938C428.031 224.5 427.365 222.594 426.031 221.219C424.698 219.823 422.594 219.125 419.719 219.125C419.052 219.125 418.208 219.146 417.188 219.188C416.188 219.208 415.344 219.229 414.656 219.25V236.281H418.625C420.333 236.281 421.792 236.062 423 235.625C424.229 235.188 425.219 234.531 425.969 233.656ZM430.281 247.812C430.281 245.188 429.396 243.031 427.625 241.344C425.875 239.656 423.365 238.812 420.094 238.812C418.76 238.812 417.635 238.833 416.719 238.875C415.802 238.896 415.115 238.917 414.656 238.938V254.562C414.656 255.875 415.188 256.865 416.25 257.531C417.312 258.198 418.792 258.531 420.688 258.531C423.792 258.531 426.167 257.625 427.812 255.812C429.458 254 430.281 251.333 430.281 247.812ZM485.281 261H466.812V258.781C468.438 258.677 469.781 258.469 470.844 258.156C471.927 257.844 472.469 257.458 472.469 257C472.469 256.812 472.448 256.583 472.406 256.312C472.365 256.042 472.302 255.802 472.219 255.594L468.531 245.656H453C452.417 247.115 451.938 248.385 451.562 249.469C451.208 250.552 450.885 251.552 450.594 252.469C450.323 253.365 450.135 254.094 450.031 254.656C449.927 255.219 449.875 255.677 449.875 256.031C449.875 256.865 450.531 257.51 451.844 257.969C453.156 258.427 454.635 258.698 456.281 258.781V261H439.594V258.781C440.135 258.74 440.812 258.625 441.625 258.438C442.438 258.229 443.104 257.958 443.625 257.625C444.458 257.062 445.104 256.479 445.562 255.875C446.021 255.25 446.469 254.396 446.906 253.312C449.135 247.75 451.594 241.5 454.281 234.562C456.969 227.625 459.365 221.448 461.469 216.031H463.969L478.75 254.281C479.062 255.094 479.417 255.75 479.812 256.25C480.208 256.75 480.76 257.24 481.469 257.719C481.948 258.01 482.573 258.26 483.344 258.469C484.115 258.656 484.76 258.76 485.281 258.781V261ZM467.406 242.875L460.688 225.688L454.094 242.875H467.406ZM514.469 240.656C515.406 241.698 516.094 242.844 516.531 244.094C516.99 245.323 517.219 246.76 517.219 248.406C517.219 252.323 515.771 255.552 512.875 258.094C509.979 260.635 506.385 261.906 502.094 261.906C500.115 261.906 498.135 261.604 496.156 261C494.177 260.375 492.469 259.625 491.031 258.75L489.688 261.031H487.188L486.75 245.844H489.281C489.802 247.719 490.406 249.417 491.094 250.938C491.802 252.438 492.729 253.844 493.875 255.156C494.958 256.385 496.219 257.365 497.656 258.094C499.115 258.823 500.802 259.188 502.719 259.188C504.156 259.188 505.406 259 506.469 258.625C507.552 258.25 508.427 257.719 509.094 257.031C509.76 256.344 510.25 255.542 510.562 254.625C510.896 253.688 511.062 252.615 511.062 251.406C511.062 249.635 510.562 247.99 509.562 246.469C508.562 244.927 507.073 243.76 505.094 242.969C503.74 242.427 502.188 241.833 500.438 241.188C498.688 240.521 497.177 239.896 495.906 239.312C493.406 238.188 491.458 236.719 490.062 234.906C488.688 233.073 488 230.688 488 227.75C488 226.062 488.344 224.49 489.031 223.031C489.719 221.573 490.698 220.271 491.969 219.125C493.177 218.042 494.604 217.198 496.25 216.594C497.896 215.969 499.615 215.656 501.406 215.656C503.448 215.656 505.271 215.969 506.875 216.594C508.5 217.219 509.979 217.948 511.312 218.781L512.594 216.656H515.094L515.344 231.375H512.812C512.354 229.688 511.833 228.073 511.25 226.531C510.688 224.99 509.948 223.594 509.031 222.344C508.135 221.135 507.042 220.177 505.75 219.469C504.458 218.74 502.875 218.375 501 218.375C499.021 218.375 497.333 219.01 495.938 220.281C494.542 221.552 493.844 223.104 493.844 224.938C493.844 226.854 494.292 228.448 495.188 229.719C496.083 230.969 497.385 232 499.094 232.812C500.615 233.542 502.104 234.177 503.562 234.719C505.042 235.24 506.469 235.802 507.844 236.406C509.094 236.948 510.292 237.562 511.438 238.25C512.604 238.938 513.615 239.74 514.469 240.656ZM565.844 261H553.406C551.01 257.292 548.344 253.615 545.406 249.969C542.49 246.302 539.427 242.75 536.219 239.312H535.406V254.75C535.406 255.438 535.531 256.052 535.781 256.594C536.052 257.135 536.531 257.573 537.219 257.906C537.552 258.052 538.167 258.229 539.062 258.438C539.979 258.646 540.74 258.76 541.344 258.781V261H522.938V258.781C523.417 258.74 524.115 258.677 525.031 258.594C525.948 258.51 526.594 258.385 526.969 258.219C527.594 257.948 528.042 257.552 528.312 257.031C528.604 256.49 528.75 255.844 528.75 255.094V223.094C528.75 222.385 528.625 221.771 528.375 221.25C528.146 220.729 527.677 220.302 526.969 219.969C526.406 219.698 525.74 219.458 524.969 219.25C524.198 219.042 523.521 218.917 522.938 218.875V216.656H541.344V218.875C540.76 218.896 540.031 218.99 539.156 219.156C538.281 219.323 537.635 219.479 537.219 219.625C536.51 219.875 536.031 220.292 535.781 220.875C535.531 221.458 535.406 222.094 535.406 222.781V238.094H536.031C537.906 236.51 539.75 234.865 541.562 233.156C543.375 231.427 545.021 229.708 546.5 228C548.146 226.104 549.344 224.594 550.094 223.469C550.865 222.323 551.25 221.312 551.25 220.438C551.25 220.125 551.052 219.875 550.656 219.688C550.281 219.479 549.844 219.312 549.344 219.188C548.76 219.062 548.24 218.99 547.781 218.969C547.323 218.927 546.948 218.896 546.656 218.875V216.656H563.281V218.875C563.219 218.875 563.083 218.885 562.875 218.906C562.667 218.927 562.427 218.948 562.156 218.969C561.865 218.99 561.573 219.031 561.281 219.094C560.99 219.156 560.615 219.229 560.156 219.312C559.427 219.479 558.667 219.75 557.875 220.125C557.104 220.479 556.469 220.927 555.969 221.469C553.823 223.906 551.583 226.427 549.25 229.031C546.917 231.635 544.604 234.01 542.312 236.156C545.479 239.74 548.094 242.823 550.156 245.406C552.24 247.99 554.448 250.75 556.781 253.688C557.677 254.812 558.573 255.719 559.469 256.406C560.365 257.073 561.135 257.573 561.781 257.906C562.323 258.177 563 258.385 563.812 258.531C564.625 258.677 565.302 258.76 565.844 258.781V261ZM586.625 261H566.656V258.781C567.219 258.74 568.031 258.677 569.094 258.594C570.156 258.51 570.906 258.385 571.344 258.219C572.031 257.948 572.531 257.583 572.844 257.125C573.156 256.646 573.312 255.99 573.312 255.156V223.031C573.312 222.302 573.198 221.698 572.969 221.219C572.74 220.719 572.198 220.302 571.344 219.969C570.719 219.719 569.927 219.49 568.969 219.281C568.031 219.052 567.26 218.917 566.656 218.875V216.656H586.625V218.875C585.979 218.896 585.208 218.979 584.312 219.125C583.417 219.25 582.635 219.417 581.969 219.625C581.177 219.875 580.646 220.281 580.375 220.844C580.104 221.406 579.969 222.031 579.969 222.719V254.812C579.969 255.5 580.115 256.115 580.406 256.656C580.719 257.177 581.24 257.594 581.969 257.906C582.406 258.073 583.115 258.26 584.094 258.469C585.094 258.656 585.938 258.76 586.625 258.781V261ZM637.688 218.875C637.104 218.896 636.208 219.062 635 219.375C633.792 219.688 632.927 220.01 632.406 220.344C631.656 220.865 631.146 221.865 630.875 223.344C630.625 224.823 630.5 226.698 630.5 228.969V261.438H627.781L600.906 225.156V248.031C600.906 250.594 601.062 252.562 601.375 253.938C601.708 255.312 602.208 256.292 602.875 256.875C603.354 257.333 604.344 257.76 605.844 258.156C607.344 258.552 608.333 258.76 608.812 258.781V261H590.625V258.781C591.188 258.74 592.135 258.542 593.469 258.188C594.802 257.812 595.635 257.479 595.969 257.188C596.698 256.604 597.198 255.719 597.469 254.531C597.74 253.323 597.875 251.271 597.875 248.375V226.531C597.875 225.573 597.708 224.615 597.375 223.656C597.042 222.698 596.594 221.958 596.031 221.438C595.281 220.75 594.26 220.167 592.969 219.688C591.698 219.188 590.667 218.917 589.875 218.875V216.656H602.531L627.469 250.469V229.375C627.469 226.792 627.302 224.812 626.969 223.438C626.635 222.042 626.156 221.115 625.531 220.656C624.948 220.26 623.99 219.875 622.656 219.5C621.344 219.125 620.344 218.917 619.656 218.875V216.656H637.688V218.875ZM668.906 240.656C669.844 241.698 670.531 242.844 670.969 244.094C671.427 245.323 671.656 246.76 671.656 248.406C671.656 252.323 670.208 255.552 667.312 258.094C664.417 260.635 660.823 261.906 656.531 261.906C654.552 261.906 652.573 261.604 650.594 261C648.615 260.375 646.906 259.625 645.469 258.75L644.125 261.031H641.625L641.188 245.844H643.719C644.24 247.719 644.844 249.417 645.531 250.938C646.24 252.438 647.167 253.844 648.312 255.156C649.396 256.385 650.656 257.365 652.094 258.094C653.552 258.823 655.24 259.188 657.156 259.188C658.594 259.188 659.844 259 660.906 258.625C661.99 258.25 662.865 257.719 663.531 257.031C664.198 256.344 664.688 255.542 665 254.625C665.333 253.688 665.5 252.615 665.5 251.406C665.5 249.635 665 247.99 664 246.469C663 244.927 661.51 243.76 659.531 242.969C658.177 242.427 656.625 241.833 654.875 241.188C653.125 240.521 651.615 239.896 650.344 239.312C647.844 238.188 645.896 236.719 644.5 234.906C643.125 233.073 642.438 230.688 642.438 227.75C642.438 226.062 642.781 224.49 643.469 223.031C644.156 221.573 645.135 220.271 646.406 219.125C647.615 218.042 649.042 217.198 650.688 216.594C652.333 215.969 654.052 215.656 655.844 215.656C657.885 215.656 659.708 215.969 661.312 216.594C662.938 217.219 664.417 217.948 665.75 218.781L667.031 216.656H669.531L669.781 231.375H667.25C666.792 229.688 666.271 228.073 665.688 226.531C665.125 224.99 664.385 223.594 663.469 222.344C662.573 221.135 661.479 220.177 660.188 219.469C658.896 218.74 657.312 218.375 655.438 218.375C653.458 218.375 651.771 219.01 650.375 220.281C648.979 221.552 648.281 223.104 648.281 224.938C648.281 226.854 648.729 228.448 649.625 229.719C650.521 230.969 651.823 232 653.531 232.812C655.052 233.542 656.542 234.177 658 234.719C659.479 235.24 660.906 235.802 662.281 236.406C663.531 236.948 664.729 237.562 665.875 238.25C667.042 238.938 668.052 239.74 668.906 240.656ZM713.062 221.906C715.021 223.948 716.552 226.417 717.656 229.312C718.76 232.188 719.312 235.375 719.312 238.875C719.312 242.396 718.75 245.594 717.625 248.469C716.5 251.344 714.938 253.792 712.938 255.812C711 257.812 708.75 259.354 706.188 260.438C703.625 261.521 700.896 262.062 698 262.062C694.917 262.062 692.062 261.49 689.438 260.344C686.833 259.177 684.594 257.562 682.719 255.5C680.844 253.479 679.365 251.031 678.281 248.156C677.219 245.26 676.688 242.167 676.688 238.875C676.688 235.271 677.25 232.062 678.375 229.25C679.5 226.417 681.052 223.969 683.031 221.906C684.99 219.865 687.26 218.302 689.844 217.219C692.448 216.135 695.167 215.594 698 215.594C700.938 215.594 703.708 216.146 706.312 217.25C708.917 218.354 711.167 219.906 713.062 221.906ZM708.406 253.344C709.573 251.448 710.417 249.302 710.938 246.906C711.479 244.51 711.75 241.833 711.75 238.875C711.75 235.833 711.448 233.042 710.844 230.5C710.26 227.958 709.396 225.792 708.25 224C707.104 222.229 705.667 220.854 703.938 219.875C702.208 218.875 700.229 218.375 698 218.375C695.5 218.375 693.375 218.948 691.625 220.094C689.875 221.24 688.448 222.771 687.344 224.688C686.302 226.521 685.521 228.667 685 231.125C684.5 233.583 684.25 236.167 684.25 238.875C684.25 241.875 684.521 244.583 685.062 247C685.604 249.417 686.458 251.562 687.625 253.438C688.75 255.271 690.167 256.708 691.875 257.75C693.583 258.771 695.625 259.281 698 259.281C700.229 259.281 702.24 258.76 704.031 257.719C705.823 256.677 707.281 255.219 708.406 253.344ZM760.469 247.812L759.531 261H724.875V258.781C725.375 258.74 726.094 258.667 727.031 258.562C727.99 258.458 728.656 258.323 729.031 258.156C729.656 257.885 730.104 257.49 730.375 256.969C730.667 256.448 730.812 255.781 730.812 254.969V223.219C730.812 222.51 730.688 221.885 730.438 221.344C730.208 220.802 729.74 220.365 729.031 220.031C728.552 219.781 727.875 219.542 727 219.312C726.146 219.062 725.438 218.917 724.875 218.875V216.656H743.594V218.875C743.01 218.896 742.25 219 741.312 219.188C740.396 219.375 739.729 219.542 739.312 219.688C738.604 219.938 738.115 220.365 737.844 220.969C737.594 221.573 737.469 222.219 737.469 222.906V252.688C737.469 254.062 737.531 255.135 737.656 255.906C737.802 256.656 738.125 257.24 738.625 257.656C739.104 258.031 739.812 258.281 740.75 258.406C741.708 258.51 743.042 258.562 744.75 258.562C745.521 258.562 746.323 258.542 747.156 258.5C747.99 258.458 748.781 258.375 749.531 258.25C750.26 258.125 750.927 257.958 751.531 257.75C752.156 257.521 752.615 257.24 752.906 256.906C753.76 255.948 754.75 254.5 755.875 252.562C757.021 250.604 757.812 249.021 758.25 247.812H760.469ZM804.844 261H786.375V258.781C788 258.677 789.344 258.469 790.406 258.156C791.49 257.844 792.031 257.458 792.031 257C792.031 256.812 792.01 256.583 791.969 256.312C791.927 256.042 791.865 255.802 791.781 255.594L788.094 245.656H772.562C771.979 247.115 771.5 248.385 771.125 249.469C770.771 250.552 770.448 251.552 770.156 252.469C769.885 253.365 769.698 254.094 769.594 254.656C769.49 255.219 769.438 255.677 769.438 256.031C769.438 256.865 770.094 257.51 771.406 257.969C772.719 258.427 774.198 258.698 775.844 258.781V261H759.156V258.781C759.698 258.74 760.375 258.625 761.188 258.438C762 258.229 762.667 257.958 763.188 257.625C764.021 257.062 764.667 256.479 765.125 255.875C765.583 255.25 766.031 254.396 766.469 253.312C768.698 247.75 771.156 241.5 773.844 234.562C776.531 227.625 778.927 221.448 781.031 216.031H783.531L798.312 254.281C798.625 255.094 798.979 255.75 799.375 256.25C799.771 256.75 800.323 257.24 801.031 257.719C801.51 258.01 802.135 258.26 802.906 258.469C803.677 258.656 804.323 258.76 804.844 258.781V261ZM786.969 242.875L780.25 225.688L773.656 242.875H786.969ZM849.625 261H837.688C835.042 256.854 832.646 253.271 830.5 250.25C828.375 247.229 826.062 244.115 823.562 240.906H819.031V254.969C819.031 255.698 819.146 256.344 819.375 256.906C819.604 257.448 820.094 257.865 820.844 258.156C821.219 258.302 821.875 258.438 822.812 258.562C823.75 258.688 824.542 258.76 825.188 258.781V261H806.438V258.781C806.938 258.74 807.656 258.667 808.594 258.562C809.552 258.458 810.219 258.323 810.594 258.156C811.219 257.885 811.667 257.49 811.938 256.969C812.229 256.448 812.375 255.781 812.375 254.969V222.906C812.375 222.177 812.271 221.531 812.062 220.969C811.854 220.406 811.365 219.979 810.594 219.688C810.073 219.5 809.396 219.333 808.562 219.188C807.729 219.021 807.021 218.917 806.438 218.875V216.656H826.906C828.781 216.656 830.542 216.854 832.188 217.25C833.833 217.625 835.323 218.24 836.656 219.094C837.948 219.927 838.979 221.021 839.75 222.375C840.521 223.708 840.906 225.323 840.906 227.219C840.906 228.927 840.646 230.438 840.125 231.75C839.604 233.062 838.833 234.198 837.812 235.156C836.875 236.052 835.75 236.833 834.438 237.5C833.125 238.146 831.677 238.698 830.094 239.156C832.281 242.052 834.094 244.49 835.531 246.469C836.99 248.448 838.771 250.854 840.875 253.688C841.792 254.938 842.615 255.865 843.344 256.469C844.094 257.052 844.833 257.531 845.562 257.906C846.104 258.177 846.781 258.385 847.594 258.531C848.406 258.677 849.083 258.76 849.625 258.781V261ZM833.188 227.938C833.188 225.25 832.417 223.125 830.875 221.562C829.333 219.979 827.156 219.188 824.344 219.188H819.031V238.219H823.125C826 238.219 828.396 237.302 830.312 235.469C832.229 233.615 833.188 231.104 833.188 227.938Z" fill="#129CD2"/>
<path d="M470.109 303.594C468.88 303.594 467.641 303.443 466.391 303.141C465.151 302.839 464.062 302.427 463.125 301.906L461.781 303H460.453L462.109 294.984H463.453C463.578 295.766 463.807 296.578 464.141 297.422C464.474 298.255 464.906 299 465.438 299.656C465.958 300.333 466.62 300.896 467.422 301.344C468.224 301.792 469.141 302.016 470.172 302.016C471.682 302.016 472.891 301.651 473.797 300.922C474.703 300.182 475.156 299.214 475.156 298.016C475.156 297.245 474.896 296.568 474.375 295.984C473.865 295.401 473.036 294.901 471.891 294.484C471.161 294.224 470.453 293.974 469.766 293.734C469.089 293.484 468.443 293.229 467.828 292.969C466.609 292.458 465.693 291.734 465.078 290.797C464.464 289.849 464.156 288.844 464.156 287.781C464.156 286.802 464.38 285.865 464.828 284.969C465.276 284.062 465.922 283.255 466.766 282.547C467.589 281.849 468.604 281.292 469.812 280.875C471.031 280.448 472.365 280.234 473.812 280.234C475.021 280.234 476.219 280.411 477.406 280.766C478.594 281.109 479.469 281.443 480.031 281.766L481.203 280.828H482.562L480.938 288.391H479.594C479.458 287.505 479.26 286.672 479 285.891C478.75 285.109 478.401 284.406 477.953 283.781C477.516 283.177 476.969 282.698 476.312 282.344C475.667 281.979 474.885 281.797 473.969 281.797C472.698 281.797 471.635 282.151 470.781 282.859C469.938 283.568 469.516 284.458 469.516 285.531C469.516 286.281 469.771 286.938 470.281 287.5C470.792 288.062 471.599 288.552 472.703 288.969C473.349 289.208 474.026 289.458 474.734 289.719C475.443 289.969 476.12 290.229 476.766 290.5C477.974 291 478.927 291.682 479.625 292.547C480.323 293.401 480.672 294.417 480.672 295.594C480.672 296.708 480.417 297.755 479.906 298.734C479.396 299.714 478.682 300.557 477.766 301.266C476.797 302.016 475.667 302.594 474.375 303C473.083 303.396 471.661 303.594 470.109 303.594ZM501.328 293.641C501.328 294.953 501.078 296.208 500.578 297.406C500.078 298.604 499.37 299.646 498.453 300.531C497.464 301.479 496.302 302.214 494.969 302.734C493.646 303.245 492.156 303.5 490.5 303.5C488.281 303.5 486.49 302.911 485.125 301.734C483.76 300.547 483.078 298.932 483.078 296.891C483.078 295.505 483.333 294.219 483.844 293.031C484.365 291.844 485.089 290.807 486.016 289.922C486.932 289.057 488.057 288.375 489.391 287.875C490.724 287.365 492.167 287.109 493.719 287.109C496.073 287.109 497.927 287.688 499.281 288.844C500.646 289.99 501.328 291.589 501.328 293.641ZM495.828 291.875C495.828 290.656 495.62 289.76 495.203 289.188C494.797 288.615 494.203 288.328 493.422 288.328C492.62 288.328 491.885 288.651 491.219 289.297C490.552 289.932 490.01 290.87 489.594 292.109C489.229 293.141 488.969 294.26 488.812 295.469C488.656 296.667 488.578 297.74 488.578 298.688C488.578 299.948 488.786 300.865 489.203 301.438C489.62 302 490.224 302.281 491.016 302.281C491.87 302.281 492.609 301.932 493.234 301.234C493.859 300.536 494.354 299.677 494.719 298.656C495.083 297.656 495.359 296.552 495.547 295.344C495.734 294.125 495.828 292.969 495.828 291.875ZM514.031 279.062L509.828 297.344C509.755 297.646 509.667 298.047 509.562 298.547C509.469 299.047 509.422 299.417 509.422 299.656C509.422 300.26 509.573 300.672 509.875 300.891C510.177 301.109 510.677 301.219 511.375 301.219C511.635 301.219 511.99 301.167 512.438 301.062C512.885 300.948 513.203 300.849 513.391 300.766L513.047 302.172C512.016 302.578 511.172 302.885 510.516 303.094C509.859 303.312 509.115 303.422 508.281 303.422C507.031 303.422 506.047 303.12 505.328 302.516C504.609 301.901 504.25 301.125 504.25 300.188C504.25 299.802 504.281 299.401 504.344 298.984C504.417 298.568 504.495 298.167 504.578 297.781L507.953 283.109C507.995 282.932 508.026 282.766 508.047 282.609C508.068 282.453 508.078 282.323 508.078 282.219C508.078 281.844 508.016 281.547 507.891 281.328C507.766 281.109 507.578 280.932 507.328 280.797C507.078 280.661 506.792 280.568 506.469 280.516C506.146 280.464 505.771 280.417 505.344 280.375L505.625 279.219L513.859 278.812L514.031 279.062ZM525.594 301.047H525.469C525.104 301.359 524.755 301.646 524.422 301.906C524.099 302.167 523.688 302.427 523.188 302.688C522.75 302.917 522.286 303.104 521.797 303.25C521.318 303.406 520.786 303.484 520.203 303.484C518.391 303.484 517.026 302.953 516.109 301.891C515.193 300.818 514.734 299.354 514.734 297.5C514.734 296.073 514.99 294.734 515.5 293.484C516.01 292.234 516.693 291.135 517.547 290.188C518.411 289.25 519.422 288.51 520.578 287.969C521.734 287.417 522.953 287.141 524.234 287.141C525.172 287.141 525.99 287.25 526.688 287.469C527.396 287.688 527.974 287.984 528.422 288.359L533.219 287.375L533.438 287.625L531.141 297.234C531.057 297.557 530.969 297.964 530.875 298.453C530.781 298.932 530.734 299.297 530.734 299.547C530.734 300.141 530.87 300.552 531.141 300.781C531.411 301 531.88 301.109 532.547 301.109C532.839 301.109 533.188 301.052 533.594 300.938C534.01 300.823 534.302 300.729 534.469 300.656L534.125 302.062C533.094 302.469 532.266 302.781 531.641 303C531.026 303.208 530.312 303.312 529.5 303.312C528.427 303.312 527.568 303.104 526.922 302.688C526.286 302.26 525.844 301.714 525.594 301.047ZM527.453 291.141C527.453 290.911 527.422 290.641 527.359 290.328C527.297 290.016 527.188 289.75 527.031 289.531C526.844 289.26 526.599 289.057 526.297 288.922C525.995 288.776 525.62 288.703 525.172 288.703C524.484 288.703 523.849 288.953 523.266 289.453C522.693 289.943 522.182 290.599 521.734 291.422C521.297 292.234 520.953 293.182 520.703 294.266C520.453 295.339 520.328 296.438 520.328 297.562C520.328 298.073 520.365 298.547 520.438 298.984C520.521 299.422 520.651 299.792 520.828 300.094C521.016 300.417 521.266 300.667 521.578 300.844C521.901 301.021 522.302 301.109 522.781 301.109C523.271 301.109 523.74 300.969 524.188 300.688C524.646 300.396 525.068 300.042 525.453 299.625L527.453 291.141ZM552.125 290.391C552.125 290.859 552.057 291.312 551.922 291.75C551.786 292.188 551.583 292.562 551.312 292.875C551.01 293.229 550.693 293.495 550.359 293.672C550.026 293.839 549.557 293.922 548.953 293.922C548.172 293.922 547.557 293.729 547.109 293.344C546.661 292.958 546.438 292.526 546.438 292.047C546.438 291.599 546.5 291.214 546.625 290.891C546.76 290.568 546.969 290.078 547.25 289.422C546.552 289.714 545.953 290.073 545.453 290.5C544.953 290.917 544.474 291.396 544.016 291.938L541.547 303H536.375L538.531 293.391C538.594 293.099 538.672 292.719 538.766 292.25C538.87 291.781 538.922 291.391 538.922 291.078C538.922 290.474 538.802 290.062 538.562 289.844C538.333 289.625 537.885 289.516 537.219 289.516C536.885 289.516 536.542 289.568 536.188 289.672C535.844 289.776 535.547 289.875 535.297 289.969L535.641 288.562C536.484 288.219 537.292 287.927 538.062 287.688C538.833 287.438 539.562 287.312 540.25 287.312C541.479 287.312 542.396 287.557 543 288.047C543.615 288.526 544.021 289.203 544.219 290.078H544.328C545.359 288.984 546.234 288.224 546.953 287.797C547.672 287.359 548.443 287.141 549.266 287.141C550.151 287.141 550.849 287.422 551.359 287.984C551.87 288.536 552.125 289.339 552.125 290.391ZM563.078 300.766L562.734 302.172C561.703 302.578 560.88 302.885 560.266 303.094C559.651 303.312 558.938 303.422 558.125 303.422C556.875 303.422 555.901 303.12 555.203 302.516C554.516 301.901 554.172 301.125 554.172 300.188C554.172 299.823 554.198 299.453 554.25 299.078C554.302 298.693 554.385 298.26 554.5 297.781L555.781 293.219C555.896 292.781 555.99 292.37 556.062 291.984C556.146 291.589 556.188 291.229 556.188 290.906C556.188 290.323 556.068 289.917 555.828 289.688C555.589 289.458 555.13 289.344 554.453 289.344C554.12 289.344 553.776 289.396 553.422 289.5C553.078 289.604 552.781 289.703 552.531 289.797L552.875 288.391C553.719 288.047 554.526 287.755 555.297 287.516C556.068 287.266 556.797 287.141 557.484 287.141C558.724 287.141 559.677 287.443 560.344 288.047C561.021 288.641 561.359 289.417 561.359 290.375C561.359 290.573 561.333 290.922 561.281 291.422C561.24 291.922 561.156 292.38 561.031 292.797L559.75 297.344C559.646 297.708 559.552 298.125 559.469 298.594C559.385 299.062 559.344 299.417 559.344 299.656C559.344 300.26 559.479 300.672 559.75 300.891C560.021 301.109 560.49 301.219 561.156 301.219C561.469 301.219 561.823 301.167 562.219 301.062C562.615 300.948 562.901 300.849 563.078 300.766ZM563.406 281.688C563.406 282.479 563.104 283.156 562.5 283.719C561.906 284.271 561.188 284.547 560.344 284.547C559.5 284.547 558.776 284.271 558.172 283.719C557.568 283.156 557.266 282.479 557.266 281.688C557.266 280.896 557.568 280.219 558.172 279.656C558.776 279.094 559.5 278.812 560.344 278.812C561.188 278.812 561.906 279.094 562.5 279.656C563.104 280.219 563.406 280.896 563.406 281.688ZM580.594 287.594L580.359 288.719L569.297 301.688C569.672 301.698 570.047 301.708 570.422 301.719C570.807 301.719 571.25 301.719 571.75 301.719C572.125 301.719 572.5 301.714 572.875 301.703C573.26 301.693 573.766 301.661 574.391 301.609C574.797 301.568 575.151 301.422 575.453 301.172C575.755 300.922 576 300.625 576.188 300.281C576.333 300.021 576.589 299.589 576.953 298.984C577.328 298.37 577.625 297.818 577.844 297.328H578.938L577.828 303H563.234L563.516 301.703L574.406 288.906H572.562C571.656 288.906 571.005 288.922 570.609 288.953C570.224 288.984 569.776 289.094 569.266 289.281C568.911 289.417 568.5 289.802 568.031 290.438C567.562 291.073 567.161 291.781 566.828 292.562H565.719L566.688 287.594H580.594ZM588.75 303.516C587.5 303.516 586.401 303.344 585.453 303C584.516 302.667 583.74 302.198 583.125 301.594C582.521 300.99 582.068 300.286 581.766 299.484C581.464 298.682 581.312 297.797 581.312 296.828C581.312 295.599 581.542 294.406 582 293.25C582.458 292.094 583.141 291.052 584.047 290.125C584.901 289.24 585.984 288.521 587.297 287.969C588.609 287.417 590.057 287.141 591.641 287.141C593.505 287.141 594.922 287.438 595.891 288.031C596.87 288.625 597.359 289.516 597.359 290.703C597.359 291.839 596.938 292.818 596.094 293.641C595.25 294.453 594.104 295.057 592.656 295.453C591.51 295.797 590.531 296.042 589.719 296.188C588.917 296.333 587.932 296.469 586.766 296.594C586.786 297.052 586.849 297.568 586.953 298.141C587.057 298.714 587.214 299.203 587.422 299.609C587.672 300.078 588.026 300.453 588.484 300.734C588.943 301.005 589.526 301.141 590.234 301.141C591.464 301.141 592.505 300.906 593.359 300.438C594.224 299.958 595.047 299.203 595.828 298.172L596.969 299.125C596.031 300.458 594.828 301.526 593.359 302.328C591.901 303.12 590.365 303.516 588.75 303.516ZM592.281 291.141C592.281 290.255 592.12 289.578 591.797 289.109C591.474 288.63 591.026 288.391 590.453 288.391C589.651 288.391 588.891 289.047 588.172 290.359C587.464 291.661 587.01 293.312 586.812 295.312C587.427 295.24 588.036 295.146 588.641 295.031C589.245 294.917 589.724 294.781 590.078 294.625C590.859 294.281 591.422 293.839 591.766 293.297C592.109 292.755 592.281 292.036 592.281 291.141ZM614.719 303.516C613.469 303.516 612.37 303.344 611.422 303C610.484 302.667 609.708 302.198 609.094 301.594C608.49 300.99 608.036 300.286 607.734 299.484C607.432 298.682 607.281 297.797 607.281 296.828C607.281 295.599 607.51 294.406 607.969 293.25C608.427 292.094 609.109 291.052 610.016 290.125C610.87 289.24 611.953 288.521 613.266 287.969C614.578 287.417 616.026 287.141 617.609 287.141C619.474 287.141 620.891 287.438 621.859 288.031C622.839 288.625 623.328 289.516 623.328 290.703C623.328 291.839 622.906 292.818 622.062 293.641C621.219 294.453 620.073 295.057 618.625 295.453C617.479 295.797 616.5 296.042 615.688 296.188C614.885 296.333 613.901 296.469 612.734 296.594C612.755 297.052 612.818 297.568 612.922 298.141C613.026 298.714 613.182 299.203 613.391 299.609C613.641 300.078 613.995 300.453 614.453 300.734C614.911 301.005 615.495 301.141 616.203 301.141C617.432 301.141 618.474 300.906 619.328 300.438C620.193 299.958 621.016 299.203 621.797 298.172L622.938 299.125C622 300.458 620.797 301.526 619.328 302.328C617.87 303.12 616.333 303.516 614.719 303.516ZM618.25 291.141C618.25 290.255 618.089 289.578 617.766 289.109C617.443 288.63 616.995 288.391 616.422 288.391C615.62 288.391 614.859 289.047 614.141 290.359C613.432 291.661 612.979 293.312 612.781 295.312C613.396 295.24 614.005 295.146 614.609 295.031C615.214 294.917 615.693 294.781 616.047 294.625C616.828 294.281 617.391 293.839 617.734 293.297C618.078 292.755 618.25 292.036 618.25 291.141ZM642.922 291.031C642.922 292.5 642.672 293.99 642.172 295.5C641.682 297.01 640.99 298.349 640.094 299.516C639.031 300.88 637.854 301.885 636.562 302.531C635.271 303.177 633.927 303.5 632.531 303.5C630.677 303.5 629.203 303.068 628.109 302.203C627.016 301.339 626.469 300.099 626.469 298.484C626.469 297.984 626.552 297.448 626.719 296.875C626.885 296.302 627.094 295.63 627.344 294.859C627.552 294.203 627.745 293.557 627.922 292.922C628.109 292.276 628.203 291.667 628.203 291.094C628.203 290.531 628.078 290.13 627.828 289.891C627.578 289.651 627.13 289.531 626.484 289.531C626.151 289.531 625.807 289.583 625.453 289.688C625.109 289.792 624.812 289.891 624.562 289.984L624.906 288.578C625.75 288.234 626.557 287.943 627.328 287.703C628.099 287.453 628.828 287.328 629.516 287.328C630.755 287.328 631.708 287.641 632.375 288.266C633.052 288.88 633.391 289.646 633.391 290.562C633.391 291.24 633.297 291.958 633.109 292.719C632.932 293.479 632.745 294.161 632.547 294.766C632.37 295.307 632.182 295.932 631.984 296.641C631.797 297.339 631.703 297.896 631.703 298.312C631.703 299.198 631.917 299.906 632.344 300.438C632.771 300.969 633.458 301.234 634.406 301.234C635.823 301.234 637.052 300.708 638.094 299.656C639.135 298.594 639.656 297.167 639.656 295.375C639.656 295.198 639.646 295.005 639.625 294.797C639.604 294.589 639.562 294.354 639.5 294.094C639.385 293.854 639.161 293.599 638.828 293.328C638.495 293.057 638.214 292.807 637.984 292.578C637.682 292.276 637.417 291.922 637.188 291.516C636.958 291.099 636.844 290.562 636.844 289.906C636.844 289.354 636.948 288.906 637.156 288.562C637.375 288.219 637.635 287.938 637.938 287.719C638.188 287.542 638.484 287.401 638.828 287.297C639.182 287.193 639.51 287.141 639.812 287.141C640.781 287.141 641.542 287.49 642.094 288.188C642.646 288.875 642.922 289.823 642.922 291.031ZM652.156 303.516C650.906 303.516 649.807 303.344 648.859 303C647.922 302.667 647.146 302.198 646.531 301.594C645.927 300.99 645.474 300.286 645.172 299.484C644.87 298.682 644.719 297.797 644.719 296.828C644.719 295.599 644.948 294.406 645.406 293.25C645.865 292.094 646.547 291.052 647.453 290.125C648.307 289.24 649.391 288.521 650.703 287.969C652.016 287.417 653.464 287.141 655.047 287.141C656.911 287.141 658.328 287.438 659.297 288.031C660.276 288.625 660.766 289.516 660.766 290.703C660.766 291.839 660.344 292.818 659.5 293.641C658.656 294.453 657.51 295.057 656.062 295.453C654.917 295.797 653.938 296.042 653.125 296.188C652.323 296.333 651.339 296.469 650.172 296.594C650.193 297.052 650.255 297.568 650.359 298.141C650.464 298.714 650.62 299.203 650.828 299.609C651.078 300.078 651.432 300.453 651.891 300.734C652.349 301.005 652.932 301.141 653.641 301.141C654.87 301.141 655.911 300.906 656.766 300.438C657.63 299.958 658.453 299.203 659.234 298.172L660.375 299.125C659.438 300.458 658.234 301.526 656.766 302.328C655.307 303.12 653.771 303.516 652.156 303.516ZM655.688 291.141C655.688 290.255 655.526 289.578 655.203 289.109C654.88 288.63 654.432 288.391 653.859 288.391C653.057 288.391 652.297 289.047 651.578 290.359C650.87 291.661 650.417 293.312 650.219 295.312C650.833 295.24 651.443 295.146 652.047 295.031C652.651 294.917 653.13 294.781 653.484 294.625C654.266 294.281 654.828 293.839 655.172 293.297C655.516 292.755 655.688 292.036 655.688 291.141ZM678.75 290.391C678.75 290.859 678.682 291.312 678.547 291.75C678.411 292.188 678.208 292.562 677.938 292.875C677.635 293.229 677.318 293.495 676.984 293.672C676.651 293.839 676.182 293.922 675.578 293.922C674.797 293.922 674.182 293.729 673.734 293.344C673.286 292.958 673.062 292.526 673.062 292.047C673.062 291.599 673.125 291.214 673.25 290.891C673.385 290.568 673.594 290.078 673.875 289.422C673.177 289.714 672.578 290.073 672.078 290.5C671.578 290.917 671.099 291.396 670.641 291.938L668.172 303H663L665.156 293.391C665.219 293.099 665.297 292.719 665.391 292.25C665.495 291.781 665.547 291.391 665.547 291.078C665.547 290.474 665.427 290.062 665.188 289.844C664.958 289.625 664.51 289.516 663.844 289.516C663.51 289.516 663.167 289.568 662.812 289.672C662.469 289.776 662.172 289.875 661.922 289.969L662.266 288.562C663.109 288.219 663.917 287.927 664.688 287.688C665.458 287.438 666.188 287.312 666.875 287.312C668.104 287.312 669.021 287.557 669.625 288.047C670.24 288.526 670.646 289.203 670.844 290.078H670.953C671.984 288.984 672.859 288.224 673.578 287.797C674.297 287.359 675.068 287.141 675.891 287.141C676.776 287.141 677.474 287.422 677.984 287.984C678.495 288.536 678.75 289.339 678.75 290.391ZM691.109 300.5H691C689.823 301.573 688.74 302.318 687.75 302.734C686.76 303.151 685.667 303.359 684.469 303.359C683.312 303.359 682.411 303.036 681.766 302.391C681.13 301.745 680.812 300.969 680.812 300.062C680.812 299.74 680.828 299.411 680.859 299.078C680.901 298.745 681 298.276 681.156 297.672L682.328 293.406C682.401 293.115 682.484 292.719 682.578 292.219C682.682 291.708 682.734 291.333 682.734 291.094C682.734 290.5 682.615 290.094 682.375 289.875C682.146 289.646 681.693 289.531 681.016 289.531C680.682 289.531 680.339 289.583 679.984 289.688C679.641 289.792 679.344 289.891 679.094 289.984L679.438 288.578C680.281 288.234 681.089 287.943 681.859 287.703C682.63 287.453 683.359 287.328 684.047 287.328C685.286 287.328 686.24 287.641 686.906 288.266C687.583 288.88 687.922 289.646 687.922 290.562C687.922 290.75 687.901 291.094 687.859 291.594C687.818 292.094 687.734 292.557 687.609 292.984L686.469 297.047C686.365 297.411 686.281 297.802 686.219 298.219C686.156 298.635 686.125 298.938 686.125 299.125C686.125 299.646 686.25 300.042 686.5 300.312C686.76 300.583 687.167 300.719 687.719 300.719C688.177 300.719 688.755 300.547 689.453 300.203C690.161 299.849 690.812 299.38 691.406 298.797L693.781 287.594L698.734 287.375L698.953 287.625L696.219 300.328C695.802 302.224 695.219 303.786 694.469 305.016C693.719 306.255 692.849 307.24 691.859 307.969C690.911 308.667 689.885 309.167 688.781 309.469C687.677 309.781 686.557 309.938 685.422 309.938C684.182 309.938 683.151 309.844 682.328 309.656C681.516 309.479 680.88 309.229 680.422 308.906C680.005 308.615 679.719 308.286 679.562 307.922C679.417 307.568 679.344 307.219 679.344 306.875C679.344 306.271 679.557 305.734 679.984 305.266C680.411 304.797 680.995 304.562 681.734 304.562C682.297 304.562 682.797 304.714 683.234 305.016C683.682 305.318 684.073 305.682 684.406 306.109C684.729 306.516 685.016 306.964 685.266 307.453C685.526 307.953 685.724 308.359 685.859 308.672C686.047 308.641 686.276 308.573 686.547 308.469C686.828 308.375 687.062 308.266 687.25 308.141C687.521 307.964 687.76 307.786 687.969 307.609C688.177 307.432 688.417 307.161 688.688 306.797C689.208 306.099 689.672 305.234 690.078 304.203C690.484 303.172 690.828 301.938 691.109 300.5ZM747.953 280.828L747.672 281.969C747.328 282 746.984 282.078 746.641 282.203C746.297 282.328 745.964 282.469 745.641 282.625C745.141 282.875 744.75 283.156 744.469 283.469C744.188 283.771 743.896 284.177 743.594 284.688C742.562 286.427 741.062 289 739.094 292.406C737.125 295.812 735.042 299.427 732.844 303.25H729.594L727.594 286.875L718.594 303.25H715.469C715.031 299.344 714.625 295.672 714.25 292.234C713.885 288.797 713.609 286.26 713.422 284.625C713.349 284.073 713.229 283.667 713.062 283.406C712.906 283.135 712.63 282.859 712.234 282.578C711.984 282.401 711.714 282.271 711.422 282.188C711.13 282.094 710.792 282.021 710.406 281.969L710.672 280.828H722.266L721.984 281.969C721.234 282.052 720.651 282.141 720.234 282.234C719.818 282.328 719.505 282.432 719.297 282.547C719.109 282.651 719 282.771 718.969 282.906C718.938 283.031 718.922 283.161 718.922 283.297C718.922 283.505 718.932 283.75 718.953 284.031C718.974 284.302 719 284.599 719.031 284.922C719.115 285.901 719.266 287.453 719.484 289.578C719.714 291.693 719.969 294.161 720.25 296.984L728.984 280.828H732.312L734.328 297.484C735.568 295.245 736.719 293.156 737.781 291.219C738.844 289.271 739.688 287.693 740.312 286.484C740.698 285.745 741.031 285.057 741.312 284.422C741.604 283.786 741.75 283.375 741.75 283.188C741.75 282.865 741.474 282.599 740.922 282.391C740.38 282.182 739.583 282.042 738.531 281.969L738.812 280.828H747.953ZM756.062 301.047H755.938C755.573 301.359 755.224 301.646 754.891 301.906C754.568 302.167 754.156 302.427 753.656 302.688C753.219 302.917 752.755 303.104 752.266 303.25C751.786 303.406 751.255 303.484 750.672 303.484C748.859 303.484 747.495 302.953 746.578 301.891C745.661 300.818 745.203 299.354 745.203 297.5C745.203 296.073 745.458 294.734 745.969 293.484C746.479 292.234 747.161 291.135 748.016 290.188C748.88 289.25 749.891 288.51 751.047 287.969C752.203 287.417 753.422 287.141 754.703 287.141C755.641 287.141 756.458 287.25 757.156 287.469C757.865 287.688 758.443 287.984 758.891 288.359L763.688 287.375L763.906 287.625L761.609 297.234C761.526 297.557 761.438 297.964 761.344 298.453C761.25 298.932 761.203 299.297 761.203 299.547C761.203 300.141 761.339 300.552 761.609 300.781C761.88 301 762.349 301.109 763.016 301.109C763.307 301.109 763.656 301.052 764.062 300.938C764.479 300.823 764.771 300.729 764.938 300.656L764.594 302.062C763.562 302.469 762.734 302.781 762.109 303C761.495 303.208 760.781 303.312 759.969 303.312C758.896 303.312 758.036 303.104 757.391 302.688C756.755 302.26 756.312 301.714 756.062 301.047ZM757.922 291.141C757.922 290.911 757.891 290.641 757.828 290.328C757.766 290.016 757.656 289.75 757.5 289.531C757.312 289.26 757.068 289.057 756.766 288.922C756.464 288.776 756.089 288.703 755.641 288.703C754.953 288.703 754.318 288.953 753.734 289.453C753.161 289.943 752.651 290.599 752.203 291.422C751.766 292.234 751.422 293.182 751.172 294.266C750.922 295.339 750.797 296.438 750.797 297.562C750.797 298.073 750.833 298.547 750.906 298.984C750.99 299.422 751.12 299.792 751.297 300.094C751.484 300.417 751.734 300.667 752.047 300.844C752.37 301.021 752.771 301.109 753.25 301.109C753.74 301.109 754.208 300.969 754.656 300.688C755.115 300.396 755.536 300.042 755.922 299.625L757.922 291.141ZM771.688 303.406C770.438 303.406 769.438 303.104 768.688 302.5C767.938 301.885 767.562 301.109 767.562 300.172C767.562 299.786 767.589 299.422 767.641 299.078C767.693 298.734 767.776 298.292 767.891 297.75L769.828 289.438H766.969L767.344 287.828H770.266L771.391 283.094H776.453L775.359 287.828H779.594L779.219 289.438H775L773.094 297.75C773.021 298.042 772.948 298.396 772.875 298.812C772.812 299.229 772.781 299.5 772.781 299.625C772.781 300.219 772.943 300.63 773.266 300.859C773.599 301.089 774.104 301.203 774.781 301.203C775.104 301.203 775.547 301.141 776.109 301.016C776.682 300.891 777.083 300.786 777.312 300.703L776.969 302.109C776.052 302.516 775.13 302.833 774.203 303.062C773.286 303.292 772.448 303.406 771.688 303.406ZM785.031 303.406C783.781 303.406 782.781 303.104 782.031 302.5C781.281 301.885 780.906 301.109 780.906 300.172C780.906 299.786 780.932 299.422 780.984 299.078C781.036 298.734 781.12 298.292 781.234 297.75L783.172 289.438H780.312L780.688 287.828H783.609L784.734 283.094H789.797L788.703 287.828H792.938L792.562 289.438H788.344L786.438 297.75C786.365 298.042 786.292 298.396 786.219 298.812C786.156 299.229 786.125 299.5 786.125 299.625C786.125 300.219 786.286 300.63 786.609 300.859C786.943 301.089 787.448 301.203 788.125 301.203C788.448 301.203 788.891 301.141 789.453 301.016C790.026 300.891 790.427 300.786 790.656 300.703L790.312 302.109C789.396 302.516 788.474 302.833 787.547 303.062C786.63 303.292 785.792 303.406 785.031 303.406Z" fill="#129CD2"/>
<defs>
<filter id="filter0_d_18_2" x="70" y="292" width="126" height="84" filterUnits="userSpaceOnUse" color-interpolation-filters="sRGB">
<feFlood flood-opacity="0" result="BackgroundImageFix"/>
<feColorMatrix in="SourceAlpha" type="matrix" values="0 0 0 0 0 0 0 0 0 0 0 0 0 0 0 0 0 0 127 0" result="hardAlpha"/>
<feOffset dy="4"/>
<feGaussianBlur stdDeviation="2"/>
<feComposite in2="hardAlpha" operator="out"/>
<feColorMatrix type="matrix" values="0 0 0 0 0 0 0 0 0 0 0 0 0 0 0 0 0 0 0.25 0"/>
<feBlend mode="normal" in2="BackgroundImageFix" result="effect1_dropShadow_18_2"/>
<feBlend mode="normal" in="SourceGraphic" in2="effect1_dropShadow_18_2" result="shape"/>
</filter>
<filter id="filter1_d_18_2" x="49.4221" y="240" width="146.578" height="67" filterUnits="userSpaceOnUse" color-interpolation-filters="sRGB">
<feFlood flood-opacity="0" result="BackgroundImageFix"/>
<feColorMatrix in="SourceAlpha" type="matrix" values="0 0 0 0 0 0 0 0 0 0 0 0 0 0 0 0 0 0 127 0" result="hardAlpha"/>
<feOffset dy="4"/>
<feGaussianBlur stdDeviation="2"/>
<feComposite in2="hardAlpha" operator="out"/>
<feColorMatrix type="matrix" values="0 0 0 0 0 0 0 0 0 0 0 0 0 0 0 0 0 0 0.25 0"/>
<feBlend mode="normal" in2="BackgroundImageFix" result="effect1_dropShadow_18_2"/>
<feBlend mode="normal" in="SourceGraphic" in2="effect1_dropShadow_18_2" result="shape"/>
</filter>
<filter id="filter2_d_18_2" x="182" y="126" width="151" height="250" filterUnits="userSpaceOnUse" color-interpolation-filters="sRGB">
<feFlood flood-opacity="0" result="BackgroundImageFix"/>
<feColorMatrix in="SourceAlpha" type="matrix" values="0 0 0 0 0 0 0 0 0 0 0 0 0 0 0 0 0 0 127 0" result="hardAlpha"/>
<feOffset dy="4"/>
<feGaussianBlur stdDeviation="2"/>
<feComposite in2="hardAlpha" operator="out"/>
<feColorMatrix type="matrix" values="0 0 0 0 0 0 0 0 0 0 0 0 0 0 0 0 0 0 0.25 0"/>
<feBlend mode="normal" in2="BackgroundImageFix" result="effect1_dropShadow_18_2"/>
<feBlend mode="normal" in="SourceGraphic" in2="effect1_dropShadow_18_2" result="shape"/>
</filter>
<filter id="filter3_d_18_2" x="296" y="86" width="37" height="54" filterUnits="userSpaceOnUse" color-interpolation-filters="sRGB">
<feFlood flood-opacity="0" result="BackgroundImageFix"/>
<feColorMatrix in="SourceAlpha" type="matrix" values="0 0 0 0 0 0 0 0 0 0 0 0 0 0 0 0 0 0 127 0" result="hardAlpha"/>
<feOffset dy="4"/>
<feGaussianBlur stdDeviation="2"/>
<feComposite in2="hardAlpha" operator="out"/>
<feColorMatrix type="matrix" values="0 0 0 0 0 0 0 0 0 0 0 0 0 0 0 0 0 0 0.25 0"/>
<feBlend mode="normal" in2="BackgroundImageFix" result="effect1_dropShadow_18_2"/>
<feBlend mode="normal" in="SourceGraphic" in2="effect1_dropShadow_18_2" result="shape"/>
</filter>
<filter id="filter4_d_18_2" x="199.396" y="87.6555" width="82.1307" height="46.7209" filterUnits="userSpaceOnUse" color-interpolation-filters="sRGB">
<feFlood flood-opacity="0" result="BackgroundImageFix"/>
<feColorMatrix in="SourceAlpha" type="matrix" values="0 0 0 0 0 0 0 0 0 0 0 0 0 0 0 0 0 0 127 0" result="hardAlpha"/>
<feOffset dy="4"/>
<feGaussianBlur stdDeviation="2"/>
<feComposite in2="hardAlpha" operator="out"/>
<feColorMatrix type="matrix" values="0 0 0 0 0 0 0 0 0 0 0 0 0 0 0 0 0 0 0.25 0"/>
<feBlend mode="normal" in2="BackgroundImageFix" result="effect1_dropShadow_18_2"/>
<feBlend mode="normal" in="SourceGraphic" in2="effect1_dropShadow_18_2" result="shape"/>
</filter>
<filter id="filter5_d_18_2" x="224" y="117" width="14" height="17" filterUnits="userSpaceOnUse" color-interpolation-filters="sRGB">
<feFlood flood-opacity="0" result="BackgroundImageFix"/>
<feColorMatrix in="SourceAlpha" type="matrix" values="0 0 0 0 0 0 0 0 0 0 0 0 0 0 0 0 0 0 127 0" result="hardAlpha"/>
<feOffset dy="4"/>
<feGaussianBlur stdDeviation="2"/>
<feComposite in2="hardAlpha" operator="out"/>
<feColorMatrix type="matrix" values="0 0 0 0 0 0 0 0 0 0 0 0 0 0 0 0 0 0 0.25 0"/>
<feBlend mode="normal" in2="BackgroundImageFix" result="effect1_dropShadow_18_2"/>
<feBlend mode="normal" in="SourceGraphic" in2="effect1_dropShadow_18_2" result="shape"/>
</filter>
<filter id="filter6_d_18_2" x="325" y="314" width="38" height="18" filterUnits="userSpaceOnUse" color-interpolation-filters="sRGB">
<feFlood flood-opacity="0" result="BackgroundImageFix"/>
<feColorMatrix in="SourceAlpha" type="matrix" values="0 0 0 0 0 0 0 0 0 0 0 0 0 0 0 0 0 0 127 0" result="hardAlpha"/>
<feOffset dy="4"/>
<feGaussianBlur stdDeviation="2"/>
<feComposite in2="hardAlpha" operator="out"/>
<feColorMatrix type="matrix" values="0 0 0 0 0 0 0 0 0 0 0 0 0 0 0 0 0 0 0.25 0"/>
<feBlend mode="normal" in2="BackgroundImageFix" result="effect1_dropShadow_18_2"/>
<feBlend mode="normal" in="SourceGraphic" in2="effect1_dropShadow_18_2" result="shape"/>
</filter>
<filter id="filter7_d_18_2" x="208.5" y="152.5" width="29" height="29" filterUnits="userSpaceOnUse" color-interpolation-filters="sRGB">
<feFlood flood-opacity="0" result="BackgroundImageFix"/>
<feColorMatrix in="SourceAlpha" type="matrix" values="0 0 0 0 0 0 0 0 0 0 0 0 0 0 0 0 0 0 127 0" result="hardAlpha"/>
<feOffset dy="4"/>
<feGaussianBlur stdDeviation="2"/>
<feComposite in2="hardAlpha" operator="out"/>
<feColorMatrix type="matrix" values="0 0 0 0 0 0 0 0 0 0 0 0 0 0 0 0 0 0 0.25 0"/>
<feBlend mode="normal" in2="BackgroundImageFix" result="effect1_dropShadow_18_2"/>
<feBlend mode="normal" in="SourceGraphic" in2="effect1_dropShadow_18_2" result="shape"/>
</filter>
<filter id="filter8_d_18_2" x="208.5" y="197.5" width="29" height="29" filterUnits="userSpaceOnUse" color-interpolation-filters="sRGB">
<feFlood flood-opacity="0" result="BackgroundImageFix"/>
<feColorMatrix in="SourceAlpha" type="matrix" values="0 0 0 0 0 0 0 0 0 0 0 0 0 0 0 0 0 0 127 0" result="hardAlpha"/>
<feOffset dy="4"/>
<feGaussianBlur stdDeviation="2"/>
<feComposite in2="hardAlpha" operator="out"/>
<feColorMatrix type="matrix" values="0 0 0 0 0 0 0 0 0 0 0 0 0 0 0 0 0 0 0.25 0"/>
<feBlend mode="normal" in2="BackgroundImageFix" result="effect1_dropShadow_18_2"/>
<feBlend mode="normal" in="SourceGraphic" in2="effect1_dropShadow_18_2" result="shape"/>
</filter>
<filter id="filter9_d_18_2" x="208.5" y="242.5" width="29" height="29" filterUnits="userSpaceOnUse" color-interpolation-filters="sRGB">
<feFlood flood-opacity="0" result="BackgroundImageFix"/>
<feColorMatrix in="SourceAlpha" type="matrix" values="0 0 0 0 0 0 0 0 0 0 0 0 0 0 0 0 0 0 127 0" result="hardAlpha"/>
<feOffset dy="4"/>
<feGaussianBlur stdDeviation="2"/>
<feComposite in2="hardAlpha" operator="out"/>
<feColorMatrix type="matrix" values="0 0 0 0 0 0 0 0 0 0 0 0 0 0 0 0 0 0 0.25 0"/>
<feBlend mode="normal" in2="BackgroundImageFix" result="effect1_dropShadow_18_2"/>
<feBlend mode="normal" in="SourceGraphic" in2="effect1_dropShadow_18_2" result="shape"/>
</filter>
</defs>
</svg>
