<svg width="836" height="405" viewBox="0 0 836 405" fill="none" xmlns="http://www.w3.org/2000/svg">
<g clip-path="url(#clip0_2_21)">
<rect width="836" height="405" fill="white"/>
<path d="M23 326C23 324.895 23.8954 324 25 324H47V328H25C23.8954 328 23 327.105 23 326Z" stroke="#3D0C02" stroke-width="5"/>
<g filter="url(#filter0_d_2_21)">
<path d="M53 302H165V372H61C56.5817 372 53 368.418 53 364V302Z" stroke="#3D0C02" stroke-width="6" shape-rendering="crispEdges"/>
</g>
<g filter="url(#filter1_d_2_21)">
<path d="M65.9955 250.878C66.3677 250.329 66.9877 250 67.6509 250H163C164.105 250 165 250.895 165 252V301C165 302.105 164.105 303 163 303H34.4306C32.8262 303 31.8748 301.206 32.7752 299.878L65.9955 250.878Z" stroke="#3D0C02" stroke-width="6" shape-rendering="crispEdges"/>
</g>
<g filter="url(#filter2_d_2_21)">
<path d="M165 144C165 139.582 168.582 136 173 136H302V364C302 368.418 298.418 372 294 372H165V144Z" stroke="#3D0C02" stroke-width="6" shape-rendering="crispEdges"/>
</g>
<g filter="url(#filter3_d_2_21)">
<path d="M279 96H302V136H279V96Z" stroke="#3D0C02" stroke-width="6" shape-rendering="crispEdges"/>
</g>
<g filter="url(#filter4_d_2_21)">
<mask id="path-6-inside-1_2_21" fill="white">
<path d="M179.492 127.646C179.256 127.147 179.47 126.55 179.969 126.315L245.963 95.1359C248.459 93.9563 251.44 95.0241 252.619 97.5209L253.046 98.4251C254.226 100.922 253.158 103.902 250.661 105.082L192.806 132.416C187.812 134.775 181.851 132.639 179.492 127.646Z"/>
</mask>
<path d="M179.492 127.646C179.256 127.147 179.47 126.55 179.969 126.315L245.963 95.1359C248.459 93.9563 251.44 95.0241 252.619 97.5209L253.046 98.4251C254.226 100.922 253.158 103.902 250.661 105.082L192.806 132.416C187.812 134.775 181.851 132.639 179.492 127.646Z" stroke="#3D0C02" stroke-width="11" shape-rendering="crispEdges" mask="url(#path-6-inside-1_2_21)"/>
</g>
<g filter="url(#filter5_d_2_21)">
<mask id="path-7-inside-2_2_21" fill="white">
<path d="M204 127L210 124V133H204V127Z"/>
</mask>
<path d="M204 127L201.317 121.633L198 123.292V127H204ZM210 124H216V114.292L207.317 118.633L210 124ZM210 133V139H216V133H210ZM204 133H198V139H204V133ZM206.683 132.367L212.683 129.367L207.317 118.633L201.317 121.633L206.683 132.367ZM204 124V133H216V124H204ZM210 127H204V139H210V127ZM210 133V127H198V133H210Z" fill="#3D0C02" mask="url(#path-7-inside-2_2_21)"/>
</g>
<g filter="url(#filter6_d_2_21)">
<path d="M308 324H330C331.105 324 332 324.895 332 326C332 327.105 331.105 328 330 328H308V324Z" stroke="#3D0C02" stroke-width="5" shape-rendering="crispEdges"/>
</g>
<path d="M96 326H112V342H96V326Z" stroke="#3D0C02" stroke-width="5"/>
<g filter="url(#filter7_d_2_21)">
<path d="M191 162H207V178H191V162Z" stroke="#3D0C02" stroke-width="5" shape-rendering="crispEdges"/>
</g>
<g filter="url(#filter8_d_2_21)">
<path d="M191 207H207V223H191V207Z" stroke="#3D0C02" stroke-width="5" shape-rendering="crispEdges"/>
</g>
<g filter="url(#filter9_d_2_21)">
<path d="M191 252H207V268H191V252Z" stroke="#3D0C02" stroke-width="5" shape-rendering="crispEdges"/>
</g>
<path d="M85.5936 303L120.791 250H138.842L102.909 303H85.5936Z" stroke="#3D0C02" stroke-width="6"/>
<path d="M48.5936 303L83.7905 250H101.842L65.9094 303H48.5936Z" stroke="#3D0C02" stroke-width="6"/>
<path d="M50 277L121 276" stroke="#3D0C02" stroke-width="6"/>
<path d="M67.6685 129.217V142H70.3315V129.217H67.6685Z" fill="#F9CD5E"/>
<path d="M67.6685 56.7826V44H70.3315V56.7826H67.6685Z" fill="#F9CD5E"/>
<path d="M32.7826 91.6685H20V94.3315H32.7826V91.6685Z" fill="#F9CD5E"/>
<path d="M105.217 91.6685H118V94.3315H105.217V91.6685Z" fill="#F9CD5E"/>
<path d="M44.332 66.4489L35.2933 57.4103L33.4102 59.2933L42.4489 68.332L44.332 66.4489Z" fill="#F9CD5E"/>
<path d="M95.5511 117.668L104.59 126.707L102.707 128.59L93.668 119.551L95.5511 117.668Z" fill="#F9CD5E"/>
<path d="M95.5511 68.3319L104.59 59.2933L102.707 57.4103L93.668 66.4489L95.5511 68.3319Z" fill="#F9CD5E"/>
<path d="M44.332 119.551L35.2933 128.59L33.4102 126.707L42.4489 117.668L44.332 119.551Z" fill="#F9CD5E"/>
<path d="M69 122.293C85.1783 122.293 98.2935 109.178 98.2935 93C98.2935 76.8217 85.1783 63.7065 69 63.7065C52.8217 63.7065 39.7065 76.8217 39.7065 93C39.7065 109.178 52.8217 122.293 69 122.293Z" fill="#F9CD5E"/>
<path d="M348.5 231.344C349.792 232.219 350.865 233.365 351.719 234.781C352.573 236.198 353 237.917 353 239.938C353 242 352.552 243.792 351.656 245.312C350.76 246.833 349.594 248.083 348.156 249.062C346.76 250.021 345.177 250.75 343.406 251.25C341.656 251.75 339.844 252 337.969 252H316.969V249.781C317.469 249.74 318.198 249.656 319.156 249.531C320.115 249.385 320.802 249.219 321.219 249.031C321.865 248.74 322.323 248.354 322.594 247.875C322.865 247.375 323 246.74 323 245.969V214.094C323 213.385 322.875 212.76 322.625 212.219C322.396 211.677 321.927 211.24 321.219 210.906C320.594 210.594 319.896 210.354 319.125 210.188C318.354 210.021 317.708 209.917 317.188 209.875V207.656H337.656C339.24 207.656 340.75 207.812 342.188 208.125C343.646 208.438 345.031 208.99 346.344 209.781C347.573 210.51 348.583 211.5 349.375 212.75C350.167 214 350.562 215.521 350.562 217.312C350.562 218.875 350.281 220.271 349.719 221.5C349.156 222.708 348.365 223.75 347.344 224.625C346.385 225.458 345.281 226.167 344.031 226.75C342.802 227.312 341.469 227.75 340.031 228.062V228.344C341.302 228.49 342.719 228.812 344.281 229.312C345.865 229.792 347.271 230.469 348.5 231.344ZM340.969 224.656C341.74 223.76 342.271 222.781 342.562 221.719C342.875 220.656 343.031 219.396 343.031 217.938C343.031 215.5 342.365 213.594 341.031 212.219C339.698 210.823 337.594 210.125 334.719 210.125C334.052 210.125 333.208 210.146 332.188 210.188C331.188 210.208 330.344 210.229 329.656 210.25V227.281H333.625C335.333 227.281 336.792 227.062 338 226.625C339.229 226.188 340.219 225.531 340.969 224.656ZM345.281 238.812C345.281 236.188 344.396 234.031 342.625 232.344C340.875 230.656 338.365 229.812 335.094 229.812C333.76 229.812 332.635 229.833 331.719 229.875C330.802 229.896 330.115 229.917 329.656 229.938V245.562C329.656 246.875 330.188 247.865 331.25 248.531C332.312 249.198 333.792 249.531 335.688 249.531C338.792 249.531 341.167 248.625 342.812 246.812C344.458 245 345.281 242.333 345.281 238.812ZM400.281 252H381.812V249.781C383.438 249.677 384.781 249.469 385.844 249.156C386.927 248.844 387.469 248.458 387.469 248C387.469 247.812 387.448 247.583 387.406 247.312C387.365 247.042 387.302 246.802 387.219 246.594L383.531 236.656H368C367.417 238.115 366.938 239.385 366.562 240.469C366.208 241.552 365.885 242.552 365.594 243.469C365.323 244.365 365.135 245.094 365.031 245.656C364.927 246.219 364.875 246.677 364.875 247.031C364.875 247.865 365.531 248.51 366.844 248.969C368.156 249.427 369.635 249.698 371.281 249.781V252H354.594V249.781C355.135 249.74 355.812 249.625 356.625 249.438C357.438 249.229 358.104 248.958 358.625 248.625C359.458 248.062 360.104 247.479 360.562 246.875C361.021 246.25 361.469 245.396 361.906 244.312C364.135 238.75 366.594 232.5 369.281 225.562C371.969 218.625 374.365 212.448 376.469 207.031H378.969L393.75 245.281C394.062 246.094 394.417 246.75 394.812 247.25C395.208 247.75 395.76 248.24 396.469 248.719C396.948 249.01 397.573 249.26 398.344 249.469C399.115 249.656 399.76 249.76 400.281 249.781V252ZM382.406 233.875L375.688 216.688L369.094 233.875H382.406ZM429.469 231.656C430.406 232.698 431.094 233.844 431.531 235.094C431.99 236.323 432.219 237.76 432.219 239.406C432.219 243.323 430.771 246.552 427.875 249.094C424.979 251.635 421.385 252.906 417.094 252.906C415.115 252.906 413.135 252.604 411.156 252C409.177 251.375 407.469 250.625 406.031 249.75L404.688 252.031H402.188L401.75 236.844H404.281C404.802 238.719 405.406 240.417 406.094 241.938C406.802 243.438 407.729 244.844 408.875 246.156C409.958 247.385 411.219 248.365 412.656 249.094C414.115 249.823 415.802 250.188 417.719 250.188C419.156 250.188 420.406 250 421.469 249.625C422.552 249.25 423.427 248.719 424.094 248.031C424.76 247.344 425.25 246.542 425.562 245.625C425.896 244.688 426.062 243.615 426.062 242.406C426.062 240.635 425.562 238.99 424.562 237.469C423.562 235.927 422.073 234.76 420.094 233.969C418.74 233.427 417.188 232.833 415.438 232.188C413.688 231.521 412.177 230.896 410.906 230.312C408.406 229.188 406.458 227.719 405.062 225.906C403.688 224.073 403 221.688 403 218.75C403 217.062 403.344 215.49 404.031 214.031C404.719 212.573 405.698 211.271 406.969 210.125C408.177 209.042 409.604 208.198 411.25 207.594C412.896 206.969 414.615 206.656 416.406 206.656C418.448 206.656 420.271 206.969 421.875 207.594C423.5 208.219 424.979 208.948 426.312 209.781L427.594 207.656H430.094L430.344 222.375H427.812C427.354 220.688 426.833 219.073 426.25 217.531C425.688 215.99 424.948 214.594 424.031 213.344C423.135 212.135 422.042 211.177 420.75 210.469C419.458 209.74 417.875 209.375 416 209.375C414.021 209.375 412.333 210.01 410.938 211.281C409.542 212.552 408.844 214.104 408.844 215.938C408.844 217.854 409.292 219.448 410.188 220.719C411.083 221.969 412.385 223 414.094 223.812C415.615 224.542 417.104 225.177 418.562 225.719C420.042 226.24 421.469 226.802 422.844 227.406C424.094 227.948 425.292 228.562 426.438 229.25C427.604 229.938 428.615 230.74 429.469 231.656ZM480.844 252H468.406C466.01 248.292 463.344 244.615 460.406 240.969C457.49 237.302 454.427 233.75 451.219 230.312H450.406V245.75C450.406 246.438 450.531 247.052 450.781 247.594C451.052 248.135 451.531 248.573 452.219 248.906C452.552 249.052 453.167 249.229 454.062 249.438C454.979 249.646 455.74 249.76 456.344 249.781V252H437.938V249.781C438.417 249.74 439.115 249.677 440.031 249.594C440.948 249.51 441.594 249.385 441.969 249.219C442.594 248.948 443.042 248.552 443.312 248.031C443.604 247.49 443.75 246.844 443.75 246.094V214.094C443.75 213.385 443.625 212.771 443.375 212.25C443.146 211.729 442.677 211.302 441.969 210.969C441.406 210.698 440.74 210.458 439.969 210.25C439.198 210.042 438.521 209.917 437.938 209.875V207.656H456.344V209.875C455.76 209.896 455.031 209.99 454.156 210.156C453.281 210.323 452.635 210.479 452.219 210.625C451.51 210.875 451.031 211.292 450.781 211.875C450.531 212.458 450.406 213.094 450.406 213.781V229.094H451.031C452.906 227.51 454.75 225.865 456.562 224.156C458.375 222.427 460.021 220.708 461.5 219C463.146 217.104 464.344 215.594 465.094 214.469C465.865 213.323 466.25 212.312 466.25 211.438C466.25 211.125 466.052 210.875 465.656 210.688C465.281 210.479 464.844 210.312 464.344 210.188C463.76 210.062 463.24 209.99 462.781 209.969C462.323 209.927 461.948 209.896 461.656 209.875V207.656H478.281V209.875C478.219 209.875 478.083 209.885 477.875 209.906C477.667 209.927 477.427 209.948 477.156 209.969C476.865 209.99 476.573 210.031 476.281 210.094C475.99 210.156 475.615 210.229 475.156 210.312C474.427 210.479 473.667 210.75 472.875 211.125C472.104 211.479 471.469 211.927 470.969 212.469C468.823 214.906 466.583 217.427 464.25 220.031C461.917 222.635 459.604 225.01 457.312 227.156C460.479 230.74 463.094 233.823 465.156 236.406C467.24 238.99 469.448 241.75 471.781 244.688C472.677 245.812 473.573 246.719 474.469 247.406C475.365 248.073 476.135 248.573 476.781 248.906C477.323 249.177 478 249.385 478.812 249.531C479.625 249.677 480.302 249.76 480.844 249.781V252ZM501.625 252H481.656V249.781C482.219 249.74 483.031 249.677 484.094 249.594C485.156 249.51 485.906 249.385 486.344 249.219C487.031 248.948 487.531 248.583 487.844 248.125C488.156 247.646 488.312 246.99 488.312 246.156V214.031C488.312 213.302 488.198 212.698 487.969 212.219C487.74 211.719 487.198 211.302 486.344 210.969C485.719 210.719 484.927 210.49 483.969 210.281C483.031 210.052 482.26 209.917 481.656 209.875V207.656H501.625V209.875C500.979 209.896 500.208 209.979 499.312 210.125C498.417 210.25 497.635 210.417 496.969 210.625C496.177 210.875 495.646 211.281 495.375 211.844C495.104 212.406 494.969 213.031 494.969 213.719V245.812C494.969 246.5 495.115 247.115 495.406 247.656C495.719 248.177 496.24 248.594 496.969 248.906C497.406 249.073 498.115 249.26 499.094 249.469C500.094 249.656 500.938 249.76 501.625 249.781V252ZM552.688 209.875C552.104 209.896 551.208 210.062 550 210.375C548.792 210.688 547.927 211.01 547.406 211.344C546.656 211.865 546.146 212.865 545.875 214.344C545.625 215.823 545.5 217.698 545.5 219.969V252.438H542.781L515.906 216.156V239.031C515.906 241.594 516.062 243.562 516.375 244.938C516.708 246.312 517.208 247.292 517.875 247.875C518.354 248.333 519.344 248.76 520.844 249.156C522.344 249.552 523.333 249.76 523.812 249.781V252H505.625V249.781C506.188 249.74 507.135 249.542 508.469 249.188C509.802 248.812 510.635 248.479 510.969 248.188C511.698 247.604 512.198 246.719 512.469 245.531C512.74 244.323 512.875 242.271 512.875 239.375V217.531C512.875 216.573 512.708 215.615 512.375 214.656C512.042 213.698 511.594 212.958 511.031 212.438C510.281 211.75 509.26 211.167 507.969 210.688C506.698 210.188 505.667 209.917 504.875 209.875V207.656H517.531L542.469 241.469V220.375C542.469 217.792 542.302 215.812 541.969 214.438C541.635 213.042 541.156 212.115 540.531 211.656C539.948 211.26 538.99 210.875 537.656 210.5C536.344 210.125 535.344 209.917 534.656 209.875V207.656H552.688V209.875ZM583.906 231.656C584.844 232.698 585.531 233.844 585.969 235.094C586.427 236.323 586.656 237.76 586.656 239.406C586.656 243.323 585.208 246.552 582.312 249.094C579.417 251.635 575.823 252.906 571.531 252.906C569.552 252.906 567.573 252.604 565.594 252C563.615 251.375 561.906 250.625 560.469 249.75L559.125 252.031H556.625L556.188 236.844H558.719C559.24 238.719 559.844 240.417 560.531 241.938C561.24 243.438 562.167 244.844 563.312 246.156C564.396 247.385 565.656 248.365 567.094 249.094C568.552 249.823 570.24 250.188 572.156 250.188C573.594 250.188 574.844 250 575.906 249.625C576.99 249.25 577.865 248.719 578.531 248.031C579.198 247.344 579.688 246.542 580 245.625C580.333 244.688 580.5 243.615 580.5 242.406C580.5 240.635 580 238.99 579 237.469C578 235.927 576.51 234.76 574.531 233.969C573.177 233.427 571.625 232.833 569.875 232.188C568.125 231.521 566.615 230.896 565.344 230.312C562.844 229.188 560.896 227.719 559.5 225.906C558.125 224.073 557.438 221.688 557.438 218.75C557.438 217.062 557.781 215.49 558.469 214.031C559.156 212.573 560.135 211.271 561.406 210.125C562.615 209.042 564.042 208.198 565.688 207.594C567.333 206.969 569.052 206.656 570.844 206.656C572.885 206.656 574.708 206.969 576.312 207.594C577.938 208.219 579.417 208.948 580.75 209.781L582.031 207.656H584.531L584.781 222.375H582.25C581.792 220.688 581.271 219.073 580.688 217.531C580.125 215.99 579.385 214.594 578.469 213.344C577.573 212.135 576.479 211.177 575.188 210.469C573.896 209.74 572.312 209.375 570.438 209.375C568.458 209.375 566.771 210.01 565.375 211.281C563.979 212.552 563.281 214.104 563.281 215.938C563.281 217.854 563.729 219.448 564.625 220.719C565.521 221.969 566.823 223 568.531 223.812C570.052 224.542 571.542 225.177 573 225.719C574.479 226.24 575.906 226.802 577.281 227.406C578.531 227.948 579.729 228.562 580.875 229.25C582.042 229.938 583.052 230.74 583.906 231.656ZM628.062 212.906C630.021 214.948 631.552 217.417 632.656 220.312C633.76 223.188 634.312 226.375 634.312 229.875C634.312 233.396 633.75 236.594 632.625 239.469C631.5 242.344 629.938 244.792 627.938 246.812C626 248.812 623.75 250.354 621.188 251.438C618.625 252.521 615.896 253.062 613 253.062C609.917 253.062 607.062 252.49 604.438 251.344C601.833 250.177 599.594 248.562 597.719 246.5C595.844 244.479 594.365 242.031 593.281 239.156C592.219 236.26 591.688 233.167 591.688 229.875C591.688 226.271 592.25 223.062 593.375 220.25C594.5 217.417 596.052 214.969 598.031 212.906C599.99 210.865 602.26 209.302 604.844 208.219C607.448 207.135 610.167 206.594 613 206.594C615.938 206.594 618.708 207.146 621.312 208.25C623.917 209.354 626.167 210.906 628.062 212.906ZM623.406 244.344C624.573 242.448 625.417 240.302 625.938 237.906C626.479 235.51 626.75 232.833 626.75 229.875C626.75 226.833 626.448 224.042 625.844 221.5C625.26 218.958 624.396 216.792 623.25 215C622.104 213.229 620.667 211.854 618.938 210.875C617.208 209.875 615.229 209.375 613 209.375C610.5 209.375 608.375 209.948 606.625 211.094C604.875 212.24 603.448 213.771 602.344 215.688C601.302 217.521 600.521 219.667 600 222.125C599.5 224.583 599.25 227.167 599.25 229.875C599.25 232.875 599.521 235.583 600.062 238C600.604 240.417 601.458 242.562 602.625 244.438C603.75 246.271 605.167 247.708 606.875 248.75C608.583 249.771 610.625 250.281 613 250.281C615.229 250.281 617.24 249.76 619.031 248.719C620.823 247.677 622.281 246.219 623.406 244.344ZM675.469 238.812L674.531 252H639.875V249.781C640.375 249.74 641.094 249.667 642.031 249.562C642.99 249.458 643.656 249.323 644.031 249.156C644.656 248.885 645.104 248.49 645.375 247.969C645.667 247.448 645.812 246.781 645.812 245.969V214.219C645.812 213.51 645.688 212.885 645.438 212.344C645.208 211.802 644.74 211.365 644.031 211.031C643.552 210.781 642.875 210.542 642 210.312C641.146 210.062 640.438 209.917 639.875 209.875V207.656H658.594V209.875C658.01 209.896 657.25 210 656.312 210.188C655.396 210.375 654.729 210.542 654.312 210.688C653.604 210.938 653.115 211.365 652.844 211.969C652.594 212.573 652.469 213.219 652.469 213.906V243.688C652.469 245.062 652.531 246.135 652.656 246.906C652.802 247.656 653.125 248.24 653.625 248.656C654.104 249.031 654.812 249.281 655.75 249.406C656.708 249.51 658.042 249.562 659.75 249.562C660.521 249.562 661.323 249.542 662.156 249.5C662.99 249.458 663.781 249.375 664.531 249.25C665.26 249.125 665.927 248.958 666.531 248.75C667.156 248.521 667.615 248.24 667.906 247.906C668.76 246.948 669.75 245.5 670.875 243.562C672.021 241.604 672.812 240.021 673.25 238.812H675.469ZM719.844 252H701.375V249.781C703 249.677 704.344 249.469 705.406 249.156C706.49 248.844 707.031 248.458 707.031 248C707.031 247.812 707.01 247.583 706.969 247.312C706.927 247.042 706.865 246.802 706.781 246.594L703.094 236.656H687.562C686.979 238.115 686.5 239.385 686.125 240.469C685.771 241.552 685.448 242.552 685.156 243.469C684.885 244.365 684.698 245.094 684.594 245.656C684.49 246.219 684.438 246.677 684.438 247.031C684.438 247.865 685.094 248.51 686.406 248.969C687.719 249.427 689.198 249.698 690.844 249.781V252H674.156V249.781C674.698 249.74 675.375 249.625 676.188 249.438C677 249.229 677.667 248.958 678.188 248.625C679.021 248.062 679.667 247.479 680.125 246.875C680.583 246.25 681.031 245.396 681.469 244.312C683.698 238.75 686.156 232.5 688.844 225.562C691.531 218.625 693.927 212.448 696.031 207.031H698.531L713.312 245.281C713.625 246.094 713.979 246.75 714.375 247.25C714.771 247.75 715.323 248.24 716.031 248.719C716.51 249.01 717.135 249.26 717.906 249.469C718.677 249.656 719.323 249.76 719.844 249.781V252ZM701.969 233.875L695.25 216.688L688.656 233.875H701.969ZM764.625 252H752.688C750.042 247.854 747.646 244.271 745.5 241.25C743.375 238.229 741.062 235.115 738.562 231.906H734.031V245.969C734.031 246.698 734.146 247.344 734.375 247.906C734.604 248.448 735.094 248.865 735.844 249.156C736.219 249.302 736.875 249.438 737.812 249.562C738.75 249.688 739.542 249.76 740.188 249.781V252H721.438V249.781C721.938 249.74 722.656 249.667 723.594 249.562C724.552 249.458 725.219 249.323 725.594 249.156C726.219 248.885 726.667 248.49 726.938 247.969C727.229 247.448 727.375 246.781 727.375 245.969V213.906C727.375 213.177 727.271 212.531 727.062 211.969C726.854 211.406 726.365 210.979 725.594 210.688C725.073 210.5 724.396 210.333 723.562 210.188C722.729 210.021 722.021 209.917 721.438 209.875V207.656H741.906C743.781 207.656 745.542 207.854 747.188 208.25C748.833 208.625 750.323 209.24 751.656 210.094C752.948 210.927 753.979 212.021 754.75 213.375C755.521 214.708 755.906 216.323 755.906 218.219C755.906 219.927 755.646 221.438 755.125 222.75C754.604 224.062 753.833 225.198 752.812 226.156C751.875 227.052 750.75 227.833 749.438 228.5C748.125 229.146 746.677 229.698 745.094 230.156C747.281 233.052 749.094 235.49 750.531 237.469C751.99 239.448 753.771 241.854 755.875 244.688C756.792 245.938 757.615 246.865 758.344 247.469C759.094 248.052 759.833 248.531 760.562 248.906C761.104 249.177 761.781 249.385 762.594 249.531C763.406 249.677 764.083 249.76 764.625 249.781V252ZM748.188 218.938C748.188 216.25 747.417 214.125 745.875 212.562C744.333 210.979 742.156 210.188 739.344 210.188H734.031V229.219H738.125C741 229.219 743.396 228.302 745.312 226.469C747.229 224.615 748.188 222.104 748.188 218.938Z" fill="#3D0C02"/>
</g>
<defs>
<filter id="filter0_d_2_21" x="46" y="299" width="126" height="84" filterUnits="userSpaceOnUse" color-interpolation-filters="sRGB">
<feFlood flood-opacity="0" result="BackgroundImageFix"/>
<feColorMatrix in="SourceAlpha" type="matrix" values="0 0 0 0 0 0 0 0 0 0 0 0 0 0 0 0 0 0 127 0" result="hardAlpha"/>
<feOffset dy="4"/>
<feGaussianBlur stdDeviation="2"/>
<feComposite in2="hardAlpha" operator="out"/>
<feColorMatrix type="matrix" values="0 0 0 0 0 0 0 0 0 0 0 0 0 0 0 0 0 0 0.25 0"/>
<feBlend mode="normal" in2="BackgroundImageFix" result="effect1_dropShadow_2_21"/>
<feBlend mode="normal" in="SourceGraphic" in2="effect1_dropShadow_2_21" result="shape"/>
</filter>
<filter id="filter1_d_2_21" x="25.4221" y="247" width="146.578" height="67" filterUnits="userSpaceOnUse" color-interpolation-filters="sRGB">
<feFlood flood-opacity="0" result="BackgroundImageFix"/>
<feColorMatrix in="SourceAlpha" type="matrix" values="0 0 0 0 0 0 0 0 0 0 0 0 0 0 0 0 0 0 127 0" result="hardAlpha"/>
<feOffset dy="4"/>
<feGaussianBlur stdDeviation="2"/>
<feComposite in2="hardAlpha" operator="out"/>
<feColorMatrix type="matrix" values="0 0 0 0 0 0 0 0 0 0 0 0 0 0 0 0 0 0 0.25 0"/>
<feBlend mode="normal" in2="BackgroundImageFix" result="effect1_dropShadow_2_21"/>
<feBlend mode="normal" in="SourceGraphic" in2="effect1_dropShadow_2_21" result="shape"/>
</filter>
<filter id="filter2_d_2_21" x="158" y="133" width="151" height="250" filterUnits="userSpaceOnUse" color-interpolation-filters="sRGB">
<feFlood flood-opacity="0" result="BackgroundImageFix"/>
<feColorMatrix in="SourceAlpha" type="matrix" values="0 0 0 0 0 0 0 0 0 0 0 0 0 0 0 0 0 0 127 0" result="hardAlpha"/>
<feOffset dy="4"/>
<feGaussianBlur stdDeviation="2"/>
<feComposite in2="hardAlpha" operator="out"/>
<feColorMatrix type="matrix" values="0 0 0 0 0 0 0 0 0 0 0 0 0 0 0 0 0 0 0.25 0"/>
<feBlend mode="normal" in2="BackgroundImageFix" result="effect1_dropShadow_2_21"/>
<feBlend mode="normal" in="SourceGraphic" in2="effect1_dropShadow_2_21" result="shape"/>
</filter>
<filter id="filter3_d_2_21" x="272" y="93" width="37" height="54" filterUnits="userSpaceOnUse" color-interpolation-filters="sRGB">
<feFlood flood-opacity="0" result="BackgroundImageFix"/>
<feColorMatrix in="SourceAlpha" type="matrix" values="0 0 0 0 0 0 0 0 0 0 0 0 0 0 0 0 0 0 127 0" result="hardAlpha"/>
<feOffset dy="4"/>
<feGaussianBlur stdDeviation="2"/>
<feComposite in2="hardAlpha" operator="out"/>
<feColorMatrix type="matrix" values="0 0 0 0 0 0 0 0 0 0 0 0 0 0 0 0 0 0 0.25 0"/>
<feBlend mode="normal" in2="BackgroundImageFix" result="effect1_dropShadow_2_21"/>
<feBlend mode="normal" in="SourceGraphic" in2="effect1_dropShadow_2_21" result="shape"/>
</filter>
<filter id="filter4_d_2_21" x="175.396" y="94.6556" width="82.1307" height="46.7209" filterUnits="userSpaceOnUse" color-interpolation-filters="sRGB">
<feFlood flood-opacity="0" result="BackgroundImageFix"/>
<feColorMatrix in="SourceAlpha" type="matrix" values="0 0 0 0 0 0 0 0 0 0 0 0 0 0 0 0 0 0 127 0" result="hardAlpha"/>
<feOffset dy="4"/>
<feGaussianBlur stdDeviation="2"/>
<feComposite in2="hardAlpha" operator="out"/>
<feColorMatrix type="matrix" values="0 0 0 0 0 0 0 0 0 0 0 0 0 0 0 0 0 0 0.25 0"/>
<feBlend mode="normal" in2="BackgroundImageFix" result="effect1_dropShadow_2_21"/>
<feBlend mode="normal" in="SourceGraphic" in2="effect1_dropShadow_2_21" result="shape"/>
</filter>
<filter id="filter5_d_2_21" x="200" y="124" width="14" height="17" filterUnits="userSpaceOnUse" color-interpolation-filters="sRGB">
<feFlood flood-opacity="0" result="BackgroundImageFix"/>
<feColorMatrix in="SourceAlpha" type="matrix" values="0 0 0 0 0 0 0 0 0 0 0 0 0 0 0 0 0 0 127 0" result="hardAlpha"/>
<feOffset dy="4"/>
<feGaussianBlur stdDeviation="2"/>
<feComposite in2="hardAlpha" operator="out"/>
<feColorMatrix type="matrix" values="0 0 0 0 0 0 0 0 0 0 0 0 0 0 0 0 0 0 0.25 0"/>
<feBlend mode="normal" in2="BackgroundImageFix" result="effect1_dropShadow_2_21"/>
<feBlend mode="normal" in="SourceGraphic" in2="effect1_dropShadow_2_21" result="shape"/>
</filter>
<filter id="filter6_d_2_21" x="301" y="321" width="38" height="18" filterUnits="userSpaceOnUse" color-interpolation-filters="sRGB">
<feFlood flood-opacity="0" result="BackgroundImageFix"/>
<feColorMatrix in="SourceAlpha" type="matrix" values="0 0 0 0 0 0 0 0 0 0 0 0 0 0 0 0 0 0 127 0" result="hardAlpha"/>
<feOffset dy="4"/>
<feGaussianBlur stdDeviation="2"/>
<feComposite in2="hardAlpha" operator="out"/>
<feColorMatrix type="matrix" values="0 0 0 0 0 0 0 0 0 0 0 0 0 0 0 0 0 0 0.25 0"/>
<feBlend mode="normal" in2="BackgroundImageFix" result="effect1_dropShadow_2_21"/>
<feBlend mode="normal" in="SourceGraphic" in2="effect1_dropShadow_2_21" result="shape"/>
</filter>
<filter id="filter7_d_2_21" x="184.5" y="159.5" width="29" height="29" filterUnits="userSpaceOnUse" color-interpolation-filters="sRGB">
<feFlood flood-opacity="0" result="BackgroundImageFix"/>
<feColorMatrix in="SourceAlpha" type="matrix" values="0 0 0 0 0 0 0 0 0 0 0 0 0 0 0 0 0 0 127 0" result="hardAlpha"/>
<feOffset dy="4"/>
<feGaussianBlur stdDeviation="2"/>
<feComposite in2="hardAlpha" operator="out"/>
<feColorMatrix type="matrix" values="0 0 0 0 0 0 0 0 0 0 0 0 0 0 0 0 0 0 0.25 0"/>
<feBlend mode="normal" in2="BackgroundImageFix" result="effect1_dropShadow_2_21"/>
<feBlend mode="normal" in="SourceGraphic" in2="effect1_dropShadow_2_21" result="shape"/>
</filter>
<filter id="filter8_d_2_21" x="184.5" y="204.5" width="29" height="29" filterUnits="userSpaceOnUse" color-interpolation-filters="sRGB">
<feFlood flood-opacity="0" result="BackgroundImageFix"/>
<feColorMatrix in="SourceAlpha" type="matrix" values="0 0 0 0 0 0 0 0 0 0 0 0 0 0 0 0 0 0 127 0" result="hardAlpha"/>
<feOffset dy="4"/>
<feGaussianBlur stdDeviation="2"/>
<feComposite in2="hardAlpha" operator="out"/>
<feColorMatrix type="matrix" values="0 0 0 0 0 0 0 0 0 0 0 0 0 0 0 0 0 0 0.25 0"/>
<feBlend mode="normal" in2="BackgroundImageFix" result="effect1_dropShadow_2_21"/>
<feBlend mode="normal" in="SourceGraphic" in2="effect1_dropShadow_2_21" result="shape"/>
</filter>
<filter id="filter9_d_2_21" x="184.5" y="249.5" width="29" height="29" filterUnits="userSpaceOnUse" color-interpolation-filters="sRGB">
<feFlood flood-opacity="0" result="BackgroundImageFix"/>
<feColorMatrix in="SourceAlpha" type="matrix" values="0 0 0 0 0 0 0 0 0 0 0 0 0 0 0 0 0 0 127 0" result="hardAlpha"/>
<feOffset dy="4"/>
<feGaussianBlur stdDeviation="2"/>
<feComposite in2="hardAlpha" operator="out"/>
<feColorMatrix type="matrix" values="0 0 0 0 0 0 0 0 0 0 0 0 0 0 0 0 0 0 0.25 0"/>
<feBlend mode="normal" in2="BackgroundImageFix" result="effect1_dropShadow_2_21"/>
<feBlend mode="normal" in="SourceGraphic" in2="effect1_dropShadow_2_21" result="shape"/>
</filter>
<clipPath id="clip0_2_21">
<rect width="836" height="405" fill="white"/>
</clipPath>
</defs>
</svg>
