<svg width="836" height="553" viewBox="0 0 836 553" fill="none" xmlns="http://www.w3.org/2000/svg">
<rect width="836" height="553" fill="white"/>
<path d="M263 331C263 329.895 263.895 329 265 329H287V333H265C263.895 333 263 332.105 263 331Z" stroke="#3D0C02" stroke-width="5"/>
<g filter="url(#filter0_d_5_108)">
<path d="M293 307H405V377H301C296.582 377 293 373.418 293 369V307Z" stroke="#3D0C02" stroke-width="6" shape-rendering="crispEdges"/>
</g>
<g filter="url(#filter1_d_5_108)">
<path d="M305.996 255.878C306.368 255.329 306.988 255 307.651 255H403C404.105 255 405 255.895 405 257V306C405 307.105 404.105 308 403 308H274.431C272.826 308 271.875 306.206 272.775 304.878L305.996 255.878Z" stroke="#3D0C02" stroke-width="6" shape-rendering="crispEdges"/>
</g>
<g filter="url(#filter2_d_5_108)">
<path d="M405 149C405 144.582 408.582 141 413 141H542V369C542 373.418 538.418 377 534 377H405V149Z" stroke="#3D0C02" stroke-width="6" shape-rendering="crispEdges"/>
</g>
<g filter="url(#filter3_d_5_108)">
<path d="M519 101H542V141H519V101Z" stroke="#3D0C02" stroke-width="6" shape-rendering="crispEdges"/>
</g>
<g filter="url(#filter4_d_5_108)">
<mask id="path-6-inside-1_5_108" fill="white">
<path d="M419.492 132.646C419.256 132.147 419.47 131.55 419.969 131.315L485.963 100.136C488.459 98.9563 491.44 100.024 492.619 102.521L493.046 103.425C494.226 105.922 493.158 108.902 490.661 110.082L432.806 137.416C427.812 139.775 421.851 137.639 419.492 132.646Z"/>
</mask>
<path d="M419.492 132.646C419.256 132.147 419.47 131.55 419.969 131.315L485.963 100.136C488.459 98.9563 491.44 100.024 492.619 102.521L493.046 103.425C494.226 105.922 493.158 108.902 490.661 110.082L432.806 137.416C427.812 139.775 421.851 137.639 419.492 132.646Z" stroke="#3D0C02" stroke-width="11" shape-rendering="crispEdges" mask="url(#path-6-inside-1_5_108)"/>
</g>
<g filter="url(#filter5_d_5_108)">
<mask id="path-7-inside-2_5_108" fill="white">
<path d="M444 132L450 129V138H444V132Z"/>
</mask>
<path d="M444 132L441.317 126.633L438 128.292V132H444ZM450 129H456V119.292L447.317 123.633L450 129ZM450 138V144H456V138H450ZM444 138H438V144H444V138ZM446.683 137.367L452.683 134.367L447.317 123.633L441.317 126.633L446.683 137.367ZM444 129V138H456V129H444ZM450 132H444V144H450V132ZM450 138V132H438V138H450Z" fill="#3D0C02" mask="url(#path-7-inside-2_5_108)"/>
</g>
<g filter="url(#filter6_d_5_108)">
<path d="M548 329H570C571.105 329 572 329.895 572 331C572 332.105 571.105 333 570 333H548V329Z" stroke="#3D0C02" stroke-width="5" shape-rendering="crispEdges"/>
</g>
<path d="M336 331H352V347H336V331Z" stroke="#3D0C02" stroke-width="5"/>
<g filter="url(#filter7_d_5_108)">
<path d="M431 167H447V183H431V167Z" stroke="#3D0C02" stroke-width="5" shape-rendering="crispEdges"/>
</g>
<g filter="url(#filter8_d_5_108)">
<path d="M431 212H447V228H431V212Z" stroke="#3D0C02" stroke-width="5" shape-rendering="crispEdges"/>
</g>
<g filter="url(#filter9_d_5_108)">
<path d="M431 257H447V273H431V257Z" stroke="#3D0C02" stroke-width="5" shape-rendering="crispEdges"/>
</g>
<path d="M325.594 308L360.791 255H378.842L342.909 308H325.594Z" stroke="#3D0C02" stroke-width="6"/>
<path d="M288.594 308L323.791 255H341.842L305.909 308H288.594Z" stroke="#3D0C02" stroke-width="6"/>
<path d="M290 282L361 281" stroke="#3D0C02" stroke-width="6"/>
<path d="M307.668 134.217V147H310.332V134.217H307.668Z" fill="#FFD700"/>
<path d="M307.668 61.7826V49H310.332V61.7826H307.668Z" fill="#FFD700"/>
<path d="M272.783 96.6685H260V99.3315H272.783V96.6685Z" fill="#FFD700"/>
<path d="M345.217 96.6685H358V99.3315H345.217V96.6685Z" fill="#FFD700"/>
<path d="M284.332 71.4489L275.293 62.4103L273.41 64.2933L282.449 73.332L284.332 71.4489Z" fill="#FFD700"/>
<path d="M335.551 122.668L344.59 131.707L342.707 133.59L333.668 124.551L335.551 122.668Z" fill="#FFD700"/>
<path d="M335.551 73.3319L344.59 64.2933L342.707 62.4103L333.668 71.4489L335.551 73.3319Z" fill="#FFD700"/>
<path d="M284.332 124.551L275.293 133.59L273.41 131.707L282.449 122.668L284.332 124.551Z" fill="#FFD700"/>
<path d="M309 127.293C325.178 127.293 338.293 114.178 338.293 98C338.293 81.8217 325.178 68.7065 309 68.7065C292.822 68.7065 279.707 81.8217 279.707 98C279.707 114.178 292.822 127.293 309 127.293Z" fill="#FFD700"/>
<path d="M233.5 418.344C234.792 419.219 235.865 420.365 236.719 421.781C237.573 423.198 238 424.917 238 426.938C238 429 237.552 430.792 236.656 432.312C235.76 433.833 234.594 435.083 233.156 436.062C231.76 437.021 230.177 437.75 228.406 438.25C226.656 438.75 224.844 439 222.969 439H201.969V436.781C202.469 436.74 203.198 436.656 204.156 436.531C205.115 436.385 205.802 436.219 206.219 436.031C206.865 435.74 207.323 435.354 207.594 434.875C207.865 434.375 208 433.74 208 432.969V401.094C208 400.385 207.875 399.76 207.625 399.219C207.396 398.677 206.927 398.24 206.219 397.906C205.594 397.594 204.896 397.354 204.125 397.188C203.354 397.021 202.708 396.917 202.188 396.875V394.656H222.656C224.24 394.656 225.75 394.812 227.188 395.125C228.646 395.438 230.031 395.99 231.344 396.781C232.573 397.51 233.583 398.5 234.375 399.75C235.167 401 235.562 402.521 235.562 404.312C235.562 405.875 235.281 407.271 234.719 408.5C234.156 409.708 233.365 410.75 232.344 411.625C231.385 412.458 230.281 413.167 229.031 413.75C227.802 414.312 226.469 414.75 225.031 415.062V415.344C226.302 415.49 227.719 415.812 229.281 416.312C230.865 416.792 232.271 417.469 233.5 418.344ZM225.969 411.656C226.74 410.76 227.271 409.781 227.562 408.719C227.875 407.656 228.031 406.396 228.031 404.938C228.031 402.5 227.365 400.594 226.031 399.219C224.698 397.823 222.594 397.125 219.719 397.125C219.052 397.125 218.208 397.146 217.188 397.188C216.188 397.208 215.344 397.229 214.656 397.25V414.281H218.625C220.333 414.281 221.792 414.062 223 413.625C224.229 413.188 225.219 412.531 225.969 411.656ZM230.281 425.812C230.281 423.188 229.396 421.031 227.625 419.344C225.875 417.656 223.365 416.812 220.094 416.812C218.76 416.812 217.635 416.833 216.719 416.875C215.802 416.896 215.115 416.917 214.656 416.938V432.562C214.656 433.875 215.188 434.865 216.25 435.531C217.312 436.198 218.792 436.531 220.688 436.531C223.792 436.531 226.167 435.625 227.812 433.812C229.458 432 230.281 429.333 230.281 425.812ZM285.281 439H266.812V436.781C268.438 436.677 269.781 436.469 270.844 436.156C271.927 435.844 272.469 435.458 272.469 435C272.469 434.812 272.448 434.583 272.406 434.312C272.365 434.042 272.302 433.802 272.219 433.594L268.531 423.656H253C252.417 425.115 251.938 426.385 251.562 427.469C251.208 428.552 250.885 429.552 250.594 430.469C250.323 431.365 250.135 432.094 250.031 432.656C249.927 433.219 249.875 433.677 249.875 434.031C249.875 434.865 250.531 435.51 251.844 435.969C253.156 436.427 254.635 436.698 256.281 436.781V439H239.594V436.781C240.135 436.74 240.812 436.625 241.625 436.438C242.438 436.229 243.104 435.958 243.625 435.625C244.458 435.062 245.104 434.479 245.562 433.875C246.021 433.25 246.469 432.396 246.906 431.312C249.135 425.75 251.594 419.5 254.281 412.562C256.969 405.625 259.365 399.448 261.469 394.031H263.969L278.75 432.281C279.062 433.094 279.417 433.75 279.812 434.25C280.208 434.75 280.76 435.24 281.469 435.719C281.948 436.01 282.573 436.26 283.344 436.469C284.115 436.656 284.76 436.76 285.281 436.781V439ZM267.406 420.875L260.688 403.688L254.094 420.875H267.406ZM314.469 418.656C315.406 419.698 316.094 420.844 316.531 422.094C316.99 423.323 317.219 424.76 317.219 426.406C317.219 430.323 315.771 433.552 312.875 436.094C309.979 438.635 306.385 439.906 302.094 439.906C300.115 439.906 298.135 439.604 296.156 439C294.177 438.375 292.469 437.625 291.031 436.75L289.688 439.031H287.188L286.75 423.844H289.281C289.802 425.719 290.406 427.417 291.094 428.938C291.802 430.438 292.729 431.844 293.875 433.156C294.958 434.385 296.219 435.365 297.656 436.094C299.115 436.823 300.802 437.188 302.719 437.188C304.156 437.188 305.406 437 306.469 436.625C307.552 436.25 308.427 435.719 309.094 435.031C309.76 434.344 310.25 433.542 310.562 432.625C310.896 431.688 311.062 430.615 311.062 429.406C311.062 427.635 310.562 425.99 309.562 424.469C308.562 422.927 307.073 421.76 305.094 420.969C303.74 420.427 302.188 419.833 300.438 419.188C298.688 418.521 297.177 417.896 295.906 417.312C293.406 416.188 291.458 414.719 290.062 412.906C288.688 411.073 288 408.688 288 405.75C288 404.062 288.344 402.49 289.031 401.031C289.719 399.573 290.698 398.271 291.969 397.125C293.177 396.042 294.604 395.198 296.25 394.594C297.896 393.969 299.615 393.656 301.406 393.656C303.448 393.656 305.271 393.969 306.875 394.594C308.5 395.219 309.979 395.948 311.312 396.781L312.594 394.656H315.094L315.344 409.375H312.812C312.354 407.688 311.833 406.073 311.25 404.531C310.688 402.99 309.948 401.594 309.031 400.344C308.135 399.135 307.042 398.177 305.75 397.469C304.458 396.74 302.875 396.375 301 396.375C299.021 396.375 297.333 397.01 295.938 398.281C294.542 399.552 293.844 401.104 293.844 402.938C293.844 404.854 294.292 406.448 295.188 407.719C296.083 408.969 297.385 410 299.094 410.812C300.615 411.542 302.104 412.177 303.562 412.719C305.042 413.24 306.469 413.802 307.844 414.406C309.094 414.948 310.292 415.562 311.438 416.25C312.604 416.938 313.615 417.74 314.469 418.656ZM365.844 439H353.406C351.01 435.292 348.344 431.615 345.406 427.969C342.49 424.302 339.427 420.75 336.219 417.312H335.406V432.75C335.406 433.438 335.531 434.052 335.781 434.594C336.052 435.135 336.531 435.573 337.219 435.906C337.552 436.052 338.167 436.229 339.062 436.438C339.979 436.646 340.74 436.76 341.344 436.781V439H322.938V436.781C323.417 436.74 324.115 436.677 325.031 436.594C325.948 436.51 326.594 436.385 326.969 436.219C327.594 435.948 328.042 435.552 328.312 435.031C328.604 434.49 328.75 433.844 328.75 433.094V401.094C328.75 400.385 328.625 399.771 328.375 399.25C328.146 398.729 327.677 398.302 326.969 397.969C326.406 397.698 325.74 397.458 324.969 397.25C324.198 397.042 323.521 396.917 322.938 396.875V394.656H341.344V396.875C340.76 396.896 340.031 396.99 339.156 397.156C338.281 397.323 337.635 397.479 337.219 397.625C336.51 397.875 336.031 398.292 335.781 398.875C335.531 399.458 335.406 400.094 335.406 400.781V416.094H336.031C337.906 414.51 339.75 412.865 341.562 411.156C343.375 409.427 345.021 407.708 346.5 406C348.146 404.104 349.344 402.594 350.094 401.469C350.865 400.323 351.25 399.312 351.25 398.438C351.25 398.125 351.052 397.875 350.656 397.688C350.281 397.479 349.844 397.312 349.344 397.188C348.76 397.062 348.24 396.99 347.781 396.969C347.323 396.927 346.948 396.896 346.656 396.875V394.656H363.281V396.875C363.219 396.875 363.083 396.885 362.875 396.906C362.667 396.927 362.427 396.948 362.156 396.969C361.865 396.99 361.573 397.031 361.281 397.094C360.99 397.156 360.615 397.229 360.156 397.312C359.427 397.479 358.667 397.75 357.875 398.125C357.104 398.479 356.469 398.927 355.969 399.469C353.823 401.906 351.583 404.427 349.25 407.031C346.917 409.635 344.604 412.01 342.312 414.156C345.479 417.74 348.094 420.823 350.156 423.406C352.24 425.99 354.448 428.75 356.781 431.688C357.677 432.812 358.573 433.719 359.469 434.406C360.365 435.073 361.135 435.573 361.781 435.906C362.323 436.177 363 436.385 363.812 436.531C364.625 436.677 365.302 436.76 365.844 436.781V439ZM386.625 439H366.656V436.781C367.219 436.74 368.031 436.677 369.094 436.594C370.156 436.51 370.906 436.385 371.344 436.219C372.031 435.948 372.531 435.583 372.844 435.125C373.156 434.646 373.312 433.99 373.312 433.156V401.031C373.312 400.302 373.198 399.698 372.969 399.219C372.74 398.719 372.198 398.302 371.344 397.969C370.719 397.719 369.927 397.49 368.969 397.281C368.031 397.052 367.26 396.917 366.656 396.875V394.656H386.625V396.875C385.979 396.896 385.208 396.979 384.312 397.125C383.417 397.25 382.635 397.417 381.969 397.625C381.177 397.875 380.646 398.281 380.375 398.844C380.104 399.406 379.969 400.031 379.969 400.719V432.812C379.969 433.5 380.115 434.115 380.406 434.656C380.719 435.177 381.24 435.594 381.969 435.906C382.406 436.073 383.115 436.26 384.094 436.469C385.094 436.656 385.938 436.76 386.625 436.781V439ZM437.688 396.875C437.104 396.896 436.208 397.062 435 397.375C433.792 397.688 432.927 398.01 432.406 398.344C431.656 398.865 431.146 399.865 430.875 401.344C430.625 402.823 430.5 404.698 430.5 406.969V439.438H427.781L400.906 403.156V426.031C400.906 428.594 401.062 430.562 401.375 431.938C401.708 433.312 402.208 434.292 402.875 434.875C403.354 435.333 404.344 435.76 405.844 436.156C407.344 436.552 408.333 436.76 408.812 436.781V439H390.625V436.781C391.188 436.74 392.135 436.542 393.469 436.188C394.802 435.812 395.635 435.479 395.969 435.188C396.698 434.604 397.198 433.719 397.469 432.531C397.74 431.323 397.875 429.271 397.875 426.375V404.531C397.875 403.573 397.708 402.615 397.375 401.656C397.042 400.698 396.594 399.958 396.031 399.438C395.281 398.75 394.26 398.167 392.969 397.688C391.698 397.188 390.667 396.917 389.875 396.875V394.656H402.531L427.469 428.469V407.375C427.469 404.792 427.302 402.812 426.969 401.438C426.635 400.042 426.156 399.115 425.531 398.656C424.948 398.26 423.99 397.875 422.656 397.5C421.344 397.125 420.344 396.917 419.656 396.875V394.656H437.688V396.875ZM468.906 418.656C469.844 419.698 470.531 420.844 470.969 422.094C471.427 423.323 471.656 424.76 471.656 426.406C471.656 430.323 470.208 433.552 467.312 436.094C464.417 438.635 460.823 439.906 456.531 439.906C454.552 439.906 452.573 439.604 450.594 439C448.615 438.375 446.906 437.625 445.469 436.75L444.125 439.031H441.625L441.188 423.844H443.719C444.24 425.719 444.844 427.417 445.531 428.938C446.24 430.438 447.167 431.844 448.312 433.156C449.396 434.385 450.656 435.365 452.094 436.094C453.552 436.823 455.24 437.188 457.156 437.188C458.594 437.188 459.844 437 460.906 436.625C461.99 436.25 462.865 435.719 463.531 435.031C464.198 434.344 464.688 433.542 465 432.625C465.333 431.688 465.5 430.615 465.5 429.406C465.5 427.635 465 425.99 464 424.469C463 422.927 461.51 421.76 459.531 420.969C458.177 420.427 456.625 419.833 454.875 419.188C453.125 418.521 451.615 417.896 450.344 417.312C447.844 416.188 445.896 414.719 444.5 412.906C443.125 411.073 442.438 408.688 442.438 405.75C442.438 404.062 442.781 402.49 443.469 401.031C444.156 399.573 445.135 398.271 446.406 397.125C447.615 396.042 449.042 395.198 450.688 394.594C452.333 393.969 454.052 393.656 455.844 393.656C457.885 393.656 459.708 393.969 461.312 394.594C462.938 395.219 464.417 395.948 465.75 396.781L467.031 394.656H469.531L469.781 409.375H467.25C466.792 407.688 466.271 406.073 465.688 404.531C465.125 402.99 464.385 401.594 463.469 400.344C462.573 399.135 461.479 398.177 460.188 397.469C458.896 396.74 457.312 396.375 455.438 396.375C453.458 396.375 451.771 397.01 450.375 398.281C448.979 399.552 448.281 401.104 448.281 402.938C448.281 404.854 448.729 406.448 449.625 407.719C450.521 408.969 451.823 410 453.531 410.812C455.052 411.542 456.542 412.177 458 412.719C459.479 413.24 460.906 413.802 462.281 414.406C463.531 414.948 464.729 415.562 465.875 416.25C467.042 416.938 468.052 417.74 468.906 418.656ZM513.062 399.906C515.021 401.948 516.552 404.417 517.656 407.312C518.76 410.188 519.312 413.375 519.312 416.875C519.312 420.396 518.75 423.594 517.625 426.469C516.5 429.344 514.938 431.792 512.938 433.812C511 435.812 508.75 437.354 506.188 438.438C503.625 439.521 500.896 440.062 498 440.062C494.917 440.062 492.062 439.49 489.438 438.344C486.833 437.177 484.594 435.562 482.719 433.5C480.844 431.479 479.365 429.031 478.281 426.156C477.219 423.26 476.688 420.167 476.688 416.875C476.688 413.271 477.25 410.062 478.375 407.25C479.5 404.417 481.052 401.969 483.031 399.906C484.99 397.865 487.26 396.302 489.844 395.219C492.448 394.135 495.167 393.594 498 393.594C500.938 393.594 503.708 394.146 506.312 395.25C508.917 396.354 511.167 397.906 513.062 399.906ZM508.406 431.344C509.573 429.448 510.417 427.302 510.938 424.906C511.479 422.51 511.75 419.833 511.75 416.875C511.75 413.833 511.448 411.042 510.844 408.5C510.26 405.958 509.396 403.792 508.25 402C507.104 400.229 505.667 398.854 503.938 397.875C502.208 396.875 500.229 396.375 498 396.375C495.5 396.375 493.375 396.948 491.625 398.094C489.875 399.24 488.448 400.771 487.344 402.688C486.302 404.521 485.521 406.667 485 409.125C484.5 411.583 484.25 414.167 484.25 416.875C484.25 419.875 484.521 422.583 485.062 425C485.604 427.417 486.458 429.562 487.625 431.438C488.75 433.271 490.167 434.708 491.875 435.75C493.583 436.771 495.625 437.281 498 437.281C500.229 437.281 502.24 436.76 504.031 435.719C505.823 434.677 507.281 433.219 508.406 431.344ZM560.469 425.812L559.531 439H524.875V436.781C525.375 436.74 526.094 436.667 527.031 436.562C527.99 436.458 528.656 436.323 529.031 436.156C529.656 435.885 530.104 435.49 530.375 434.969C530.667 434.448 530.812 433.781 530.812 432.969V401.219C530.812 400.51 530.688 399.885 530.438 399.344C530.208 398.802 529.74 398.365 529.031 398.031C528.552 397.781 527.875 397.542 527 397.312C526.146 397.062 525.438 396.917 524.875 396.875V394.656H543.594V396.875C543.01 396.896 542.25 397 541.312 397.188C540.396 397.375 539.729 397.542 539.312 397.688C538.604 397.938 538.115 398.365 537.844 398.969C537.594 399.573 537.469 400.219 537.469 400.906V430.688C537.469 432.062 537.531 433.135 537.656 433.906C537.802 434.656 538.125 435.24 538.625 435.656C539.104 436.031 539.812 436.281 540.75 436.406C541.708 436.51 543.042 436.562 544.75 436.562C545.521 436.562 546.323 436.542 547.156 436.5C547.99 436.458 548.781 436.375 549.531 436.25C550.26 436.125 550.927 435.958 551.531 435.75C552.156 435.521 552.615 435.24 552.906 434.906C553.76 433.948 554.75 432.5 555.875 430.562C557.021 428.604 557.812 427.021 558.25 425.812H560.469ZM604.844 439H586.375V436.781C588 436.677 589.344 436.469 590.406 436.156C591.49 435.844 592.031 435.458 592.031 435C592.031 434.812 592.01 434.583 591.969 434.312C591.927 434.042 591.865 433.802 591.781 433.594L588.094 423.656H572.562C571.979 425.115 571.5 426.385 571.125 427.469C570.771 428.552 570.448 429.552 570.156 430.469C569.885 431.365 569.698 432.094 569.594 432.656C569.49 433.219 569.438 433.677 569.438 434.031C569.438 434.865 570.094 435.51 571.406 435.969C572.719 436.427 574.198 436.698 575.844 436.781V439H559.156V436.781C559.698 436.74 560.375 436.625 561.188 436.438C562 436.229 562.667 435.958 563.188 435.625C564.021 435.062 564.667 434.479 565.125 433.875C565.583 433.25 566.031 432.396 566.469 431.312C568.698 425.75 571.156 419.5 573.844 412.562C576.531 405.625 578.927 399.448 581.031 394.031H583.531L598.312 432.281C598.625 433.094 598.979 433.75 599.375 434.25C599.771 434.75 600.323 435.24 601.031 435.719C601.51 436.01 602.135 436.26 602.906 436.469C603.677 436.656 604.323 436.76 604.844 436.781V439ZM586.969 420.875L580.25 403.688L573.656 420.875H586.969ZM649.625 439H637.688C635.042 434.854 632.646 431.271 630.5 428.25C628.375 425.229 626.062 422.115 623.562 418.906H619.031V432.969C619.031 433.698 619.146 434.344 619.375 434.906C619.604 435.448 620.094 435.865 620.844 436.156C621.219 436.302 621.875 436.438 622.812 436.562C623.75 436.688 624.542 436.76 625.188 436.781V439H606.438V436.781C606.938 436.74 607.656 436.667 608.594 436.562C609.552 436.458 610.219 436.323 610.594 436.156C611.219 435.885 611.667 435.49 611.938 434.969C612.229 434.448 612.375 433.781 612.375 432.969V400.906C612.375 400.177 612.271 399.531 612.062 398.969C611.854 398.406 611.365 397.979 610.594 397.688C610.073 397.5 609.396 397.333 608.562 397.188C607.729 397.021 607.021 396.917 606.438 396.875V394.656H626.906C628.781 394.656 630.542 394.854 632.188 395.25C633.833 395.625 635.323 396.24 636.656 397.094C637.948 397.927 638.979 399.021 639.75 400.375C640.521 401.708 640.906 403.323 640.906 405.219C640.906 406.927 640.646 408.438 640.125 409.75C639.604 411.062 638.833 412.198 637.812 413.156C636.875 414.052 635.75 414.833 634.438 415.5C633.125 416.146 631.677 416.698 630.094 417.156C632.281 420.052 634.094 422.49 635.531 424.469C636.99 426.448 638.771 428.854 640.875 431.688C641.792 432.938 642.615 433.865 643.344 434.469C644.094 435.052 644.833 435.531 645.562 435.906C646.104 436.177 646.781 436.385 647.594 436.531C648.406 436.677 649.083 436.76 649.625 436.781V439ZM633.188 405.938C633.188 403.25 632.417 401.125 630.875 399.562C629.333 397.979 627.156 397.188 624.344 397.188H619.031V416.219H623.125C626 416.219 628.396 415.302 630.312 413.469C632.229 411.615 633.188 409.104 633.188 405.938Z" fill="#129CD2"/>
<path d="M266.109 477.594C264.88 477.594 263.641 477.443 262.391 477.141C261.151 476.839 260.062 476.427 259.125 475.906L257.781 477H256.453L258.109 468.984H259.453C259.578 469.766 259.807 470.578 260.141 471.422C260.474 472.255 260.906 473 261.438 473.656C261.958 474.333 262.62 474.896 263.422 475.344C264.224 475.792 265.141 476.016 266.172 476.016C267.682 476.016 268.891 475.651 269.797 474.922C270.703 474.182 271.156 473.214 271.156 472.016C271.156 471.245 270.896 470.568 270.375 469.984C269.865 469.401 269.036 468.901 267.891 468.484C267.161 468.224 266.453 467.974 265.766 467.734C265.089 467.484 264.443 467.229 263.828 466.969C262.609 466.458 261.693 465.734 261.078 464.797C260.464 463.849 260.156 462.844 260.156 461.781C260.156 460.802 260.38 459.865 260.828 458.969C261.276 458.062 261.922 457.255 262.766 456.547C263.589 455.849 264.604 455.292 265.812 454.875C267.031 454.448 268.365 454.234 269.812 454.234C271.021 454.234 272.219 454.411 273.406 454.766C274.594 455.109 275.469 455.443 276.031 455.766L277.203 454.828H278.562L276.938 462.391H275.594C275.458 461.505 275.26 460.672 275 459.891C274.75 459.109 274.401 458.406 273.953 457.781C273.516 457.177 272.969 456.698 272.312 456.344C271.667 455.979 270.885 455.797 269.969 455.797C268.698 455.797 267.635 456.151 266.781 456.859C265.938 457.568 265.516 458.458 265.516 459.531C265.516 460.281 265.771 460.938 266.281 461.5C266.792 462.062 267.599 462.552 268.703 462.969C269.349 463.208 270.026 463.458 270.734 463.719C271.443 463.969 272.12 464.229 272.766 464.5C273.974 465 274.927 465.682 275.625 466.547C276.323 467.401 276.672 468.417 276.672 469.594C276.672 470.708 276.417 471.755 275.906 472.734C275.396 473.714 274.682 474.557 273.766 475.266C272.797 476.016 271.667 476.594 270.375 477C269.083 477.396 267.661 477.594 266.109 477.594ZM297.328 467.641C297.328 468.953 297.078 470.208 296.578 471.406C296.078 472.604 295.37 473.646 294.453 474.531C293.464 475.479 292.302 476.214 290.969 476.734C289.646 477.245 288.156 477.5 286.5 477.5C284.281 477.5 282.49 476.911 281.125 475.734C279.76 474.547 279.078 472.932 279.078 470.891C279.078 469.505 279.333 468.219 279.844 467.031C280.365 465.844 281.089 464.807 282.016 463.922C282.932 463.057 284.057 462.375 285.391 461.875C286.724 461.365 288.167 461.109 289.719 461.109C292.073 461.109 293.927 461.688 295.281 462.844C296.646 463.99 297.328 465.589 297.328 467.641ZM291.828 465.875C291.828 464.656 291.62 463.76 291.203 463.188C290.797 462.615 290.203 462.328 289.422 462.328C288.62 462.328 287.885 462.651 287.219 463.297C286.552 463.932 286.01 464.87 285.594 466.109C285.229 467.141 284.969 468.26 284.812 469.469C284.656 470.667 284.578 471.74 284.578 472.688C284.578 473.948 284.786 474.865 285.203 475.438C285.62 476 286.224 476.281 287.016 476.281C287.87 476.281 288.609 475.932 289.234 475.234C289.859 474.536 290.354 473.677 290.719 472.656C291.083 471.656 291.359 470.552 291.547 469.344C291.734 468.125 291.828 466.969 291.828 465.875ZM310.031 453.062L305.828 471.344C305.755 471.646 305.667 472.047 305.562 472.547C305.469 473.047 305.422 473.417 305.422 473.656C305.422 474.26 305.573 474.672 305.875 474.891C306.177 475.109 306.677 475.219 307.375 475.219C307.635 475.219 307.99 475.167 308.438 475.062C308.885 474.948 309.203 474.849 309.391 474.766L309.047 476.172C308.016 476.578 307.172 476.885 306.516 477.094C305.859 477.312 305.115 477.422 304.281 477.422C303.031 477.422 302.047 477.12 301.328 476.516C300.609 475.901 300.25 475.125 300.25 474.188C300.25 473.802 300.281 473.401 300.344 472.984C300.417 472.568 300.495 472.167 300.578 471.781L303.953 457.109C303.995 456.932 304.026 456.766 304.047 456.609C304.068 456.453 304.078 456.323 304.078 456.219C304.078 455.844 304.016 455.547 303.891 455.328C303.766 455.109 303.578 454.932 303.328 454.797C303.078 454.661 302.792 454.568 302.469 454.516C302.146 454.464 301.771 454.417 301.344 454.375L301.625 453.219L309.859 452.812L310.031 453.062ZM321.594 475.047H321.469C321.104 475.359 320.755 475.646 320.422 475.906C320.099 476.167 319.688 476.427 319.188 476.688C318.75 476.917 318.286 477.104 317.797 477.25C317.318 477.406 316.786 477.484 316.203 477.484C314.391 477.484 313.026 476.953 312.109 475.891C311.193 474.818 310.734 473.354 310.734 471.5C310.734 470.073 310.99 468.734 311.5 467.484C312.01 466.234 312.693 465.135 313.547 464.188C314.411 463.25 315.422 462.51 316.578 461.969C317.734 461.417 318.953 461.141 320.234 461.141C321.172 461.141 321.99 461.25 322.688 461.469C323.396 461.688 323.974 461.984 324.422 462.359L329.219 461.375L329.438 461.625L327.141 471.234C327.057 471.557 326.969 471.964 326.875 472.453C326.781 472.932 326.734 473.297 326.734 473.547C326.734 474.141 326.87 474.552 327.141 474.781C327.411 475 327.88 475.109 328.547 475.109C328.839 475.109 329.188 475.052 329.594 474.938C330.01 474.823 330.302 474.729 330.469 474.656L330.125 476.062C329.094 476.469 328.266 476.781 327.641 477C327.026 477.208 326.312 477.312 325.5 477.312C324.427 477.312 323.568 477.104 322.922 476.688C322.286 476.26 321.844 475.714 321.594 475.047ZM323.453 465.141C323.453 464.911 323.422 464.641 323.359 464.328C323.297 464.016 323.188 463.75 323.031 463.531C322.844 463.26 322.599 463.057 322.297 462.922C321.995 462.776 321.62 462.703 321.172 462.703C320.484 462.703 319.849 462.953 319.266 463.453C318.693 463.943 318.182 464.599 317.734 465.422C317.297 466.234 316.953 467.182 316.703 468.266C316.453 469.339 316.328 470.438 316.328 471.562C316.328 472.073 316.365 472.547 316.438 472.984C316.521 473.422 316.651 473.792 316.828 474.094C317.016 474.417 317.266 474.667 317.578 474.844C317.901 475.021 318.302 475.109 318.781 475.109C319.271 475.109 319.74 474.969 320.188 474.688C320.646 474.396 321.068 474.042 321.453 473.625L323.453 465.141ZM348.125 464.391C348.125 464.859 348.057 465.312 347.922 465.75C347.786 466.188 347.583 466.562 347.312 466.875C347.01 467.229 346.693 467.495 346.359 467.672C346.026 467.839 345.557 467.922 344.953 467.922C344.172 467.922 343.557 467.729 343.109 467.344C342.661 466.958 342.438 466.526 342.438 466.047C342.438 465.599 342.5 465.214 342.625 464.891C342.76 464.568 342.969 464.078 343.25 463.422C342.552 463.714 341.953 464.073 341.453 464.5C340.953 464.917 340.474 465.396 340.016 465.938L337.547 477H332.375L334.531 467.391C334.594 467.099 334.672 466.719 334.766 466.25C334.87 465.781 334.922 465.391 334.922 465.078C334.922 464.474 334.802 464.062 334.562 463.844C334.333 463.625 333.885 463.516 333.219 463.516C332.885 463.516 332.542 463.568 332.188 463.672C331.844 463.776 331.547 463.875 331.297 463.969L331.641 462.562C332.484 462.219 333.292 461.927 334.062 461.688C334.833 461.438 335.562 461.312 336.25 461.312C337.479 461.312 338.396 461.557 339 462.047C339.615 462.526 340.021 463.203 340.219 464.078H340.328C341.359 462.984 342.234 462.224 342.953 461.797C343.672 461.359 344.443 461.141 345.266 461.141C346.151 461.141 346.849 461.422 347.359 461.984C347.87 462.536 348.125 463.339 348.125 464.391ZM359.078 474.766L358.734 476.172C357.703 476.578 356.88 476.885 356.266 477.094C355.651 477.312 354.938 477.422 354.125 477.422C352.875 477.422 351.901 477.12 351.203 476.516C350.516 475.901 350.172 475.125 350.172 474.188C350.172 473.823 350.198 473.453 350.25 473.078C350.302 472.693 350.385 472.26 350.5 471.781L351.781 467.219C351.896 466.781 351.99 466.37 352.062 465.984C352.146 465.589 352.188 465.229 352.188 464.906C352.188 464.323 352.068 463.917 351.828 463.688C351.589 463.458 351.13 463.344 350.453 463.344C350.12 463.344 349.776 463.396 349.422 463.5C349.078 463.604 348.781 463.703 348.531 463.797L348.875 462.391C349.719 462.047 350.526 461.755 351.297 461.516C352.068 461.266 352.797 461.141 353.484 461.141C354.724 461.141 355.677 461.443 356.344 462.047C357.021 462.641 357.359 463.417 357.359 464.375C357.359 464.573 357.333 464.922 357.281 465.422C357.24 465.922 357.156 466.38 357.031 466.797L355.75 471.344C355.646 471.708 355.552 472.125 355.469 472.594C355.385 473.062 355.344 473.417 355.344 473.656C355.344 474.26 355.479 474.672 355.75 474.891C356.021 475.109 356.49 475.219 357.156 475.219C357.469 475.219 357.823 475.167 358.219 475.062C358.615 474.948 358.901 474.849 359.078 474.766ZM359.406 455.688C359.406 456.479 359.104 457.156 358.5 457.719C357.906 458.271 357.188 458.547 356.344 458.547C355.5 458.547 354.776 458.271 354.172 457.719C353.568 457.156 353.266 456.479 353.266 455.688C353.266 454.896 353.568 454.219 354.172 453.656C354.776 453.094 355.5 452.812 356.344 452.812C357.188 452.812 357.906 453.094 358.5 453.656C359.104 454.219 359.406 454.896 359.406 455.688ZM376.594 461.594L376.359 462.719L365.297 475.688C365.672 475.698 366.047 475.708 366.422 475.719C366.807 475.719 367.25 475.719 367.75 475.719C368.125 475.719 368.5 475.714 368.875 475.703C369.26 475.693 369.766 475.661 370.391 475.609C370.797 475.568 371.151 475.422 371.453 475.172C371.755 474.922 372 474.625 372.188 474.281C372.333 474.021 372.589 473.589 372.953 472.984C373.328 472.37 373.625 471.818 373.844 471.328H374.938L373.828 477H359.234L359.516 475.703L370.406 462.906H368.562C367.656 462.906 367.005 462.922 366.609 462.953C366.224 462.984 365.776 463.094 365.266 463.281C364.911 463.417 364.5 463.802 364.031 464.438C363.562 465.073 363.161 465.781 362.828 466.562H361.719L362.688 461.594H376.594ZM384.75 477.516C383.5 477.516 382.401 477.344 381.453 477C380.516 476.667 379.74 476.198 379.125 475.594C378.521 474.99 378.068 474.286 377.766 473.484C377.464 472.682 377.312 471.797 377.312 470.828C377.312 469.599 377.542 468.406 378 467.25C378.458 466.094 379.141 465.052 380.047 464.125C380.901 463.24 381.984 462.521 383.297 461.969C384.609 461.417 386.057 461.141 387.641 461.141C389.505 461.141 390.922 461.438 391.891 462.031C392.87 462.625 393.359 463.516 393.359 464.703C393.359 465.839 392.938 466.818 392.094 467.641C391.25 468.453 390.104 469.057 388.656 469.453C387.51 469.797 386.531 470.042 385.719 470.188C384.917 470.333 383.932 470.469 382.766 470.594C382.786 471.052 382.849 471.568 382.953 472.141C383.057 472.714 383.214 473.203 383.422 473.609C383.672 474.078 384.026 474.453 384.484 474.734C384.943 475.005 385.526 475.141 386.234 475.141C387.464 475.141 388.505 474.906 389.359 474.438C390.224 473.958 391.047 473.203 391.828 472.172L392.969 473.125C392.031 474.458 390.828 475.526 389.359 476.328C387.901 477.12 386.365 477.516 384.75 477.516ZM388.281 465.141C388.281 464.255 388.12 463.578 387.797 463.109C387.474 462.63 387.026 462.391 386.453 462.391C385.651 462.391 384.891 463.047 384.172 464.359C383.464 465.661 383.01 467.312 382.812 469.312C383.427 469.24 384.036 469.146 384.641 469.031C385.245 468.917 385.724 468.781 386.078 468.625C386.859 468.281 387.422 467.839 387.766 467.297C388.109 466.755 388.281 466.036 388.281 465.141ZM410.719 477.516C409.469 477.516 408.37 477.344 407.422 477C406.484 476.667 405.708 476.198 405.094 475.594C404.49 474.99 404.036 474.286 403.734 473.484C403.432 472.682 403.281 471.797 403.281 470.828C403.281 469.599 403.51 468.406 403.969 467.25C404.427 466.094 405.109 465.052 406.016 464.125C406.87 463.24 407.953 462.521 409.266 461.969C410.578 461.417 412.026 461.141 413.609 461.141C415.474 461.141 416.891 461.438 417.859 462.031C418.839 462.625 419.328 463.516 419.328 464.703C419.328 465.839 418.906 466.818 418.062 467.641C417.219 468.453 416.073 469.057 414.625 469.453C413.479 469.797 412.5 470.042 411.688 470.188C410.885 470.333 409.901 470.469 408.734 470.594C408.755 471.052 408.818 471.568 408.922 472.141C409.026 472.714 409.182 473.203 409.391 473.609C409.641 474.078 409.995 474.453 410.453 474.734C410.911 475.005 411.495 475.141 412.203 475.141C413.432 475.141 414.474 474.906 415.328 474.438C416.193 473.958 417.016 473.203 417.797 472.172L418.938 473.125C418 474.458 416.797 475.526 415.328 476.328C413.87 477.12 412.333 477.516 410.719 477.516ZM414.25 465.141C414.25 464.255 414.089 463.578 413.766 463.109C413.443 462.63 412.995 462.391 412.422 462.391C411.62 462.391 410.859 463.047 410.141 464.359C409.432 465.661 408.979 467.312 408.781 469.312C409.396 469.24 410.005 469.146 410.609 469.031C411.214 468.917 411.693 468.781 412.047 468.625C412.828 468.281 413.391 467.839 413.734 467.297C414.078 466.755 414.25 466.036 414.25 465.141ZM438.922 465.031C438.922 466.5 438.672 467.99 438.172 469.5C437.682 471.01 436.99 472.349 436.094 473.516C435.031 474.88 433.854 475.885 432.562 476.531C431.271 477.177 429.927 477.5 428.531 477.5C426.677 477.5 425.203 477.068 424.109 476.203C423.016 475.339 422.469 474.099 422.469 472.484C422.469 471.984 422.552 471.448 422.719 470.875C422.885 470.302 423.094 469.63 423.344 468.859C423.552 468.203 423.745 467.557 423.922 466.922C424.109 466.276 424.203 465.667 424.203 465.094C424.203 464.531 424.078 464.13 423.828 463.891C423.578 463.651 423.13 463.531 422.484 463.531C422.151 463.531 421.807 463.583 421.453 463.688C421.109 463.792 420.812 463.891 420.562 463.984L420.906 462.578C421.75 462.234 422.557 461.943 423.328 461.703C424.099 461.453 424.828 461.328 425.516 461.328C426.755 461.328 427.708 461.641 428.375 462.266C429.052 462.88 429.391 463.646 429.391 464.562C429.391 465.24 429.297 465.958 429.109 466.719C428.932 467.479 428.745 468.161 428.547 468.766C428.37 469.307 428.182 469.932 427.984 470.641C427.797 471.339 427.703 471.896 427.703 472.312C427.703 473.198 427.917 473.906 428.344 474.438C428.771 474.969 429.458 475.234 430.406 475.234C431.823 475.234 433.052 474.708 434.094 473.656C435.135 472.594 435.656 471.167 435.656 469.375C435.656 469.198 435.646 469.005 435.625 468.797C435.604 468.589 435.562 468.354 435.5 468.094C435.385 467.854 435.161 467.599 434.828 467.328C434.495 467.057 434.214 466.807 433.984 466.578C433.682 466.276 433.417 465.922 433.188 465.516C432.958 465.099 432.844 464.562 432.844 463.906C432.844 463.354 432.948 462.906 433.156 462.562C433.375 462.219 433.635 461.938 433.938 461.719C434.188 461.542 434.484 461.401 434.828 461.297C435.182 461.193 435.51 461.141 435.812 461.141C436.781 461.141 437.542 461.49 438.094 462.188C438.646 462.875 438.922 463.823 438.922 465.031ZM448.156 477.516C446.906 477.516 445.807 477.344 444.859 477C443.922 476.667 443.146 476.198 442.531 475.594C441.927 474.99 441.474 474.286 441.172 473.484C440.87 472.682 440.719 471.797 440.719 470.828C440.719 469.599 440.948 468.406 441.406 467.25C441.865 466.094 442.547 465.052 443.453 464.125C444.307 463.24 445.391 462.521 446.703 461.969C448.016 461.417 449.464 461.141 451.047 461.141C452.911 461.141 454.328 461.438 455.297 462.031C456.276 462.625 456.766 463.516 456.766 464.703C456.766 465.839 456.344 466.818 455.5 467.641C454.656 468.453 453.51 469.057 452.062 469.453C450.917 469.797 449.938 470.042 449.125 470.188C448.323 470.333 447.339 470.469 446.172 470.594C446.193 471.052 446.255 471.568 446.359 472.141C446.464 472.714 446.62 473.203 446.828 473.609C447.078 474.078 447.432 474.453 447.891 474.734C448.349 475.005 448.932 475.141 449.641 475.141C450.87 475.141 451.911 474.906 452.766 474.438C453.63 473.958 454.453 473.203 455.234 472.172L456.375 473.125C455.438 474.458 454.234 475.526 452.766 476.328C451.307 477.12 449.771 477.516 448.156 477.516ZM451.688 465.141C451.688 464.255 451.526 463.578 451.203 463.109C450.88 462.63 450.432 462.391 449.859 462.391C449.057 462.391 448.297 463.047 447.578 464.359C446.87 465.661 446.417 467.312 446.219 469.312C446.833 469.24 447.443 469.146 448.047 469.031C448.651 468.917 449.13 468.781 449.484 468.625C450.266 468.281 450.828 467.839 451.172 467.297C451.516 466.755 451.688 466.036 451.688 465.141ZM474.75 464.391C474.75 464.859 474.682 465.312 474.547 465.75C474.411 466.188 474.208 466.562 473.938 466.875C473.635 467.229 473.318 467.495 472.984 467.672C472.651 467.839 472.182 467.922 471.578 467.922C470.797 467.922 470.182 467.729 469.734 467.344C469.286 466.958 469.062 466.526 469.062 466.047C469.062 465.599 469.125 465.214 469.25 464.891C469.385 464.568 469.594 464.078 469.875 463.422C469.177 463.714 468.578 464.073 468.078 464.5C467.578 464.917 467.099 465.396 466.641 465.938L464.172 477H459L461.156 467.391C461.219 467.099 461.297 466.719 461.391 466.25C461.495 465.781 461.547 465.391 461.547 465.078C461.547 464.474 461.427 464.062 461.188 463.844C460.958 463.625 460.51 463.516 459.844 463.516C459.51 463.516 459.167 463.568 458.812 463.672C458.469 463.776 458.172 463.875 457.922 463.969L458.266 462.562C459.109 462.219 459.917 461.927 460.688 461.688C461.458 461.438 462.188 461.312 462.875 461.312C464.104 461.312 465.021 461.557 465.625 462.047C466.24 462.526 466.646 463.203 466.844 464.078H466.953C467.984 462.984 468.859 462.224 469.578 461.797C470.297 461.359 471.068 461.141 471.891 461.141C472.776 461.141 473.474 461.422 473.984 461.984C474.495 462.536 474.75 463.339 474.75 464.391ZM487.109 474.5H487C485.823 475.573 484.74 476.318 483.75 476.734C482.76 477.151 481.667 477.359 480.469 477.359C479.312 477.359 478.411 477.036 477.766 476.391C477.13 475.745 476.812 474.969 476.812 474.062C476.812 473.74 476.828 473.411 476.859 473.078C476.901 472.745 477 472.276 477.156 471.672L478.328 467.406C478.401 467.115 478.484 466.719 478.578 466.219C478.682 465.708 478.734 465.333 478.734 465.094C478.734 464.5 478.615 464.094 478.375 463.875C478.146 463.646 477.693 463.531 477.016 463.531C476.682 463.531 476.339 463.583 475.984 463.688C475.641 463.792 475.344 463.891 475.094 463.984L475.438 462.578C476.281 462.234 477.089 461.943 477.859 461.703C478.63 461.453 479.359 461.328 480.047 461.328C481.286 461.328 482.24 461.641 482.906 462.266C483.583 462.88 483.922 463.646 483.922 464.562C483.922 464.75 483.901 465.094 483.859 465.594C483.818 466.094 483.734 466.557 483.609 466.984L482.469 471.047C482.365 471.411 482.281 471.802 482.219 472.219C482.156 472.635 482.125 472.938 482.125 473.125C482.125 473.646 482.25 474.042 482.5 474.312C482.76 474.583 483.167 474.719 483.719 474.719C484.177 474.719 484.755 474.547 485.453 474.203C486.161 473.849 486.812 473.38 487.406 472.797L489.781 461.594L494.734 461.375L494.953 461.625L492.219 474.328C491.802 476.224 491.219 477.786 490.469 479.016C489.719 480.255 488.849 481.24 487.859 481.969C486.911 482.667 485.885 483.167 484.781 483.469C483.677 483.781 482.557 483.938 481.422 483.938C480.182 483.938 479.151 483.844 478.328 483.656C477.516 483.479 476.88 483.229 476.422 482.906C476.005 482.615 475.719 482.286 475.562 481.922C475.417 481.568 475.344 481.219 475.344 480.875C475.344 480.271 475.557 479.734 475.984 479.266C476.411 478.797 476.995 478.562 477.734 478.562C478.297 478.562 478.797 478.714 479.234 479.016C479.682 479.318 480.073 479.682 480.406 480.109C480.729 480.516 481.016 480.964 481.266 481.453C481.526 481.953 481.724 482.359 481.859 482.672C482.047 482.641 482.276 482.573 482.547 482.469C482.828 482.375 483.062 482.266 483.25 482.141C483.521 481.964 483.76 481.786 483.969 481.609C484.177 481.432 484.417 481.161 484.688 480.797C485.208 480.099 485.672 479.234 486.078 478.203C486.484 477.172 486.828 475.938 487.109 474.5ZM543.953 454.828L543.672 455.969C543.328 456 542.984 456.078 542.641 456.203C542.297 456.328 541.964 456.469 541.641 456.625C541.141 456.875 540.75 457.156 540.469 457.469C540.188 457.771 539.896 458.177 539.594 458.688C538.562 460.427 537.062 463 535.094 466.406C533.125 469.812 531.042 473.427 528.844 477.25H525.594L523.594 460.875L514.594 477.25H511.469C511.031 473.344 510.625 469.672 510.25 466.234C509.885 462.797 509.609 460.26 509.422 458.625C509.349 458.073 509.229 457.667 509.062 457.406C508.906 457.135 508.63 456.859 508.234 456.578C507.984 456.401 507.714 456.271 507.422 456.188C507.13 456.094 506.792 456.021 506.406 455.969L506.672 454.828H518.266L517.984 455.969C517.234 456.052 516.651 456.141 516.234 456.234C515.818 456.328 515.505 456.432 515.297 456.547C515.109 456.651 515 456.771 514.969 456.906C514.938 457.031 514.922 457.161 514.922 457.297C514.922 457.505 514.932 457.75 514.953 458.031C514.974 458.302 515 458.599 515.031 458.922C515.115 459.901 515.266 461.453 515.484 463.578C515.714 465.693 515.969 468.161 516.25 470.984L524.984 454.828H528.312L530.328 471.484C531.568 469.245 532.719 467.156 533.781 465.219C534.844 463.271 535.688 461.693 536.312 460.484C536.698 459.745 537.031 459.057 537.312 458.422C537.604 457.786 537.75 457.375 537.75 457.188C537.75 456.865 537.474 456.599 536.922 456.391C536.38 456.182 535.583 456.042 534.531 455.969L534.812 454.828H543.953ZM552.062 475.047H551.938C551.573 475.359 551.224 475.646 550.891 475.906C550.568 476.167 550.156 476.427 549.656 476.688C549.219 476.917 548.755 477.104 548.266 477.25C547.786 477.406 547.255 477.484 546.672 477.484C544.859 477.484 543.495 476.953 542.578 475.891C541.661 474.818 541.203 473.354 541.203 471.5C541.203 470.073 541.458 468.734 541.969 467.484C542.479 466.234 543.161 465.135 544.016 464.188C544.88 463.25 545.891 462.51 547.047 461.969C548.203 461.417 549.422 461.141 550.703 461.141C551.641 461.141 552.458 461.25 553.156 461.469C553.865 461.688 554.443 461.984 554.891 462.359L559.688 461.375L559.906 461.625L557.609 471.234C557.526 471.557 557.438 471.964 557.344 472.453C557.25 472.932 557.203 473.297 557.203 473.547C557.203 474.141 557.339 474.552 557.609 474.781C557.88 475 558.349 475.109 559.016 475.109C559.307 475.109 559.656 475.052 560.062 474.938C560.479 474.823 560.771 474.729 560.938 474.656L560.594 476.062C559.562 476.469 558.734 476.781 558.109 477C557.495 477.208 556.781 477.312 555.969 477.312C554.896 477.312 554.036 477.104 553.391 476.688C552.755 476.26 552.312 475.714 552.062 475.047ZM553.922 465.141C553.922 464.911 553.891 464.641 553.828 464.328C553.766 464.016 553.656 463.75 553.5 463.531C553.312 463.26 553.068 463.057 552.766 462.922C552.464 462.776 552.089 462.703 551.641 462.703C550.953 462.703 550.318 462.953 549.734 463.453C549.161 463.943 548.651 464.599 548.203 465.422C547.766 466.234 547.422 467.182 547.172 468.266C546.922 469.339 546.797 470.438 546.797 471.562C546.797 472.073 546.833 472.547 546.906 472.984C546.99 473.422 547.12 473.792 547.297 474.094C547.484 474.417 547.734 474.667 548.047 474.844C548.37 475.021 548.771 475.109 549.25 475.109C549.74 475.109 550.208 474.969 550.656 474.688C551.115 474.396 551.536 474.042 551.922 473.625L553.922 465.141ZM567.688 477.406C566.438 477.406 565.438 477.104 564.688 476.5C563.938 475.885 563.562 475.109 563.562 474.172C563.562 473.786 563.589 473.422 563.641 473.078C563.693 472.734 563.776 472.292 563.891 471.75L565.828 463.438H562.969L563.344 461.828H566.266L567.391 457.094H572.453L571.359 461.828H575.594L575.219 463.438H571L569.094 471.75C569.021 472.042 568.948 472.396 568.875 472.812C568.812 473.229 568.781 473.5 568.781 473.625C568.781 474.219 568.943 474.63 569.266 474.859C569.599 475.089 570.104 475.203 570.781 475.203C571.104 475.203 571.547 475.141 572.109 475.016C572.682 474.891 573.083 474.786 573.312 474.703L572.969 476.109C572.052 476.516 571.13 476.833 570.203 477.062C569.286 477.292 568.448 477.406 567.688 477.406ZM581.031 477.406C579.781 477.406 578.781 477.104 578.031 476.5C577.281 475.885 576.906 475.109 576.906 474.172C576.906 473.786 576.932 473.422 576.984 473.078C577.036 472.734 577.12 472.292 577.234 471.75L579.172 463.438H576.312L576.688 461.828H579.609L580.734 457.094H585.797L584.703 461.828H588.938L588.562 463.438H584.344L582.438 471.75C582.365 472.042 582.292 472.396 582.219 472.812C582.156 473.229 582.125 473.5 582.125 473.625C582.125 474.219 582.286 474.63 582.609 474.859C582.943 475.089 583.448 475.203 584.125 475.203C584.448 475.203 584.891 475.141 585.453 475.016C586.026 474.891 586.427 474.786 586.656 474.703L586.312 476.109C585.396 476.516 584.474 476.833 583.547 477.062C582.63 477.292 581.792 477.406 581.031 477.406Z" fill="#129CD2"/>
<defs>
<filter id="filter0_d_5_108" x="286" y="304" width="126" height="84" filterUnits="userSpaceOnUse" color-interpolation-filters="sRGB">
<feFlood flood-opacity="0" result="BackgroundImageFix"/>
<feColorMatrix in="SourceAlpha" type="matrix" values="0 0 0 0 0 0 0 0 0 0 0 0 0 0 0 0 0 0 127 0" result="hardAlpha"/>
<feOffset dy="4"/>
<feGaussianBlur stdDeviation="2"/>
<feComposite in2="hardAlpha" operator="out"/>
<feColorMatrix type="matrix" values="0 0 0 0 0 0 0 0 0 0 0 0 0 0 0 0 0 0 0.25 0"/>
<feBlend mode="normal" in2="BackgroundImageFix" result="effect1_dropShadow_5_108"/>
<feBlend mode="normal" in="SourceGraphic" in2="effect1_dropShadow_5_108" result="shape"/>
</filter>
<filter id="filter1_d_5_108" x="265.422" y="252" width="146.578" height="67" filterUnits="userSpaceOnUse" color-interpolation-filters="sRGB">
<feFlood flood-opacity="0" result="BackgroundImageFix"/>
<feColorMatrix in="SourceAlpha" type="matrix" values="0 0 0 0 0 0 0 0 0 0 0 0 0 0 0 0 0 0 127 0" result="hardAlpha"/>
<feOffset dy="4"/>
<feGaussianBlur stdDeviation="2"/>
<feComposite in2="hardAlpha" operator="out"/>
<feColorMatrix type="matrix" values="0 0 0 0 0 0 0 0 0 0 0 0 0 0 0 0 0 0 0.25 0"/>
<feBlend mode="normal" in2="BackgroundImageFix" result="effect1_dropShadow_5_108"/>
<feBlend mode="normal" in="SourceGraphic" in2="effect1_dropShadow_5_108" result="shape"/>
</filter>
<filter id="filter2_d_5_108" x="398" y="138" width="151" height="250" filterUnits="userSpaceOnUse" color-interpolation-filters="sRGB">
<feFlood flood-opacity="0" result="BackgroundImageFix"/>
<feColorMatrix in="SourceAlpha" type="matrix" values="0 0 0 0 0 0 0 0 0 0 0 0 0 0 0 0 0 0 127 0" result="hardAlpha"/>
<feOffset dy="4"/>
<feGaussianBlur stdDeviation="2"/>
<feComposite in2="hardAlpha" operator="out"/>
<feColorMatrix type="matrix" values="0 0 0 0 0 0 0 0 0 0 0 0 0 0 0 0 0 0 0.25 0"/>
<feBlend mode="normal" in2="BackgroundImageFix" result="effect1_dropShadow_5_108"/>
<feBlend mode="normal" in="SourceGraphic" in2="effect1_dropShadow_5_108" result="shape"/>
</filter>
<filter id="filter3_d_5_108" x="512" y="98" width="37" height="54" filterUnits="userSpaceOnUse" color-interpolation-filters="sRGB">
<feFlood flood-opacity="0" result="BackgroundImageFix"/>
<feColorMatrix in="SourceAlpha" type="matrix" values="0 0 0 0 0 0 0 0 0 0 0 0 0 0 0 0 0 0 127 0" result="hardAlpha"/>
<feOffset dy="4"/>
<feGaussianBlur stdDeviation="2"/>
<feComposite in2="hardAlpha" operator="out"/>
<feColorMatrix type="matrix" values="0 0 0 0 0 0 0 0 0 0 0 0 0 0 0 0 0 0 0.25 0"/>
<feBlend mode="normal" in2="BackgroundImageFix" result="effect1_dropShadow_5_108"/>
<feBlend mode="normal" in="SourceGraphic" in2="effect1_dropShadow_5_108" result="shape"/>
</filter>
<filter id="filter4_d_5_108" x="415.396" y="99.6555" width="82.1307" height="46.7209" filterUnits="userSpaceOnUse" color-interpolation-filters="sRGB">
<feFlood flood-opacity="0" result="BackgroundImageFix"/>
<feColorMatrix in="SourceAlpha" type="matrix" values="0 0 0 0 0 0 0 0 0 0 0 0 0 0 0 0 0 0 127 0" result="hardAlpha"/>
<feOffset dy="4"/>
<feGaussianBlur stdDeviation="2"/>
<feComposite in2="hardAlpha" operator="out"/>
<feColorMatrix type="matrix" values="0 0 0 0 0 0 0 0 0 0 0 0 0 0 0 0 0 0 0.25 0"/>
<feBlend mode="normal" in2="BackgroundImageFix" result="effect1_dropShadow_5_108"/>
<feBlend mode="normal" in="SourceGraphic" in2="effect1_dropShadow_5_108" result="shape"/>
</filter>
<filter id="filter5_d_5_108" x="440" y="129" width="14" height="17" filterUnits="userSpaceOnUse" color-interpolation-filters="sRGB">
<feFlood flood-opacity="0" result="BackgroundImageFix"/>
<feColorMatrix in="SourceAlpha" type="matrix" values="0 0 0 0 0 0 0 0 0 0 0 0 0 0 0 0 0 0 127 0" result="hardAlpha"/>
<feOffset dy="4"/>
<feGaussianBlur stdDeviation="2"/>
<feComposite in2="hardAlpha" operator="out"/>
<feColorMatrix type="matrix" values="0 0 0 0 0 0 0 0 0 0 0 0 0 0 0 0 0 0 0.25 0"/>
<feBlend mode="normal" in2="BackgroundImageFix" result="effect1_dropShadow_5_108"/>
<feBlend mode="normal" in="SourceGraphic" in2="effect1_dropShadow_5_108" result="shape"/>
</filter>
<filter id="filter6_d_5_108" x="541" y="326" width="38" height="18" filterUnits="userSpaceOnUse" color-interpolation-filters="sRGB">
<feFlood flood-opacity="0" result="BackgroundImageFix"/>
<feColorMatrix in="SourceAlpha" type="matrix" values="0 0 0 0 0 0 0 0 0 0 0 0 0 0 0 0 0 0 127 0" result="hardAlpha"/>
<feOffset dy="4"/>
<feGaussianBlur stdDeviation="2"/>
<feComposite in2="hardAlpha" operator="out"/>
<feColorMatrix type="matrix" values="0 0 0 0 0 0 0 0 0 0 0 0 0 0 0 0 0 0 0.25 0"/>
<feBlend mode="normal" in2="BackgroundImageFix" result="effect1_dropShadow_5_108"/>
<feBlend mode="normal" in="SourceGraphic" in2="effect1_dropShadow_5_108" result="shape"/>
</filter>
<filter id="filter7_d_5_108" x="424.5" y="164.5" width="29" height="29" filterUnits="userSpaceOnUse" color-interpolation-filters="sRGB">
<feFlood flood-opacity="0" result="BackgroundImageFix"/>
<feColorMatrix in="SourceAlpha" type="matrix" values="0 0 0 0 0 0 0 0 0 0 0 0 0 0 0 0 0 0 127 0" result="hardAlpha"/>
<feOffset dy="4"/>
<feGaussianBlur stdDeviation="2"/>
<feComposite in2="hardAlpha" operator="out"/>
<feColorMatrix type="matrix" values="0 0 0 0 0 0 0 0 0 0 0 0 0 0 0 0 0 0 0.25 0"/>
<feBlend mode="normal" in2="BackgroundImageFix" result="effect1_dropShadow_5_108"/>
<feBlend mode="normal" in="SourceGraphic" in2="effect1_dropShadow_5_108" result="shape"/>
</filter>
<filter id="filter8_d_5_108" x="424.5" y="209.5" width="29" height="29" filterUnits="userSpaceOnUse" color-interpolation-filters="sRGB">
<feFlood flood-opacity="0" result="BackgroundImageFix"/>
<feColorMatrix in="SourceAlpha" type="matrix" values="0 0 0 0 0 0 0 0 0 0 0 0 0 0 0 0 0 0 127 0" result="hardAlpha"/>
<feOffset dy="4"/>
<feGaussianBlur stdDeviation="2"/>
<feComposite in2="hardAlpha" operator="out"/>
<feColorMatrix type="matrix" values="0 0 0 0 0 0 0 0 0 0 0 0 0 0 0 0 0 0 0.25 0"/>
<feBlend mode="normal" in2="BackgroundImageFix" result="effect1_dropShadow_5_108"/>
<feBlend mode="normal" in="SourceGraphic" in2="effect1_dropShadow_5_108" result="shape"/>
</filter>
<filter id="filter9_d_5_108" x="424.5" y="254.5" width="29" height="29" filterUnits="userSpaceOnUse" color-interpolation-filters="sRGB">
<feFlood flood-opacity="0" result="BackgroundImageFix"/>
<feColorMatrix in="SourceAlpha" type="matrix" values="0 0 0 0 0 0 0 0 0 0 0 0 0 0 0 0 0 0 127 0" result="hardAlpha"/>
<feOffset dy="4"/>
<feGaussianBlur stdDeviation="2"/>
<feComposite in2="hardAlpha" operator="out"/>
<feColorMatrix type="matrix" values="0 0 0 0 0 0 0 0 0 0 0 0 0 0 0 0 0 0 0.25 0"/>
<feBlend mode="normal" in2="BackgroundImageFix" result="effect1_dropShadow_5_108"/>
<feBlend mode="normal" in="SourceGraphic" in2="effect1_dropShadow_5_108" result="shape"/>
</filter>
</defs>
</svg>
