<svg width="866" height="429" viewBox="0 0 866 429" fill="none" xmlns="http://www.w3.org/2000/svg">
<rect width="866" height="429" fill="white"/>
<path d="M29 313H51V317H29C27.8954 317 27 316.105 27 315C27 313.895 27.8954 313 29 313Z" stroke="#3D0C02" stroke-width="5"/>
<g filter="url(#filter0_d_19_2)">
<path d="M57 291H169V361H65C60.5817 361 57 357.418 57 353V291Z" stroke="#3D0C02" stroke-width="6" shape-rendering="crispEdges"/>
</g>
<g filter="url(#filter1_d_19_2)">
<path d="M71.6509 239H167C168.105 239 169 239.895 169 241V290C169 291.105 168.105 292 167 292H38.4306C36.8262 292 35.8748 290.206 36.7752 288.878L69.9955 239.878C70.3677 239.329 70.9877 239 71.6509 239Z" stroke="#3D0C02" stroke-width="6" shape-rendering="crispEdges"/>
</g>
<g filter="url(#filter2_d_19_2)">
<path d="M177 125H306V353C306 357.418 302.418 361 298 361H169V133C169 128.582 172.582 125 177 125Z" stroke="#3D0C02" stroke-width="6" shape-rendering="crispEdges"/>
</g>
<g filter="url(#filter3_d_19_2)">
<path d="M283 85H306V125H283V85Z" stroke="#3D0C02" stroke-width="6" shape-rendering="crispEdges"/>
</g>
<g filter="url(#filter4_d_19_2)">
<mask id="path-6-inside-1_19_2" fill="white">
<path d="M183.492 116.646C183.256 116.147 183.47 115.55 183.969 115.315L249.963 84.1359C252.459 82.9563 255.44 84.0241 256.619 86.5209L257.046 87.4251C258.226 89.9219 257.158 92.9022 254.661 94.0818L196.806 121.416C191.812 123.775 185.851 121.639 183.492 116.646V116.646Z"/>
</mask>
<path d="M183.492 116.646C183.256 116.147 183.47 115.55 183.969 115.315L249.963 84.1359C252.459 82.9563 255.44 84.0241 256.619 86.5209L257.046 87.4251C258.226 89.9219 257.158 92.9022 254.661 94.0818L196.806 121.416C191.812 123.775 185.851 121.639 183.492 116.646V116.646Z" stroke="#3D0C02" stroke-width="11" shape-rendering="crispEdges" mask="url(#path-6-inside-1_19_2)"/>
</g>
<g filter="url(#filter5_d_19_2)">
<mask id="path-7-inside-2_19_2" fill="white">
<path d="M208 116L214 113V122H208V116Z"/>
</mask>
<path d="M208 116L205.317 110.633L202 112.292V116H208ZM214 113H220V103.292L211.317 107.633L214 113ZM214 122V128H220V122H214ZM208 122H202V128H208V122ZM210.683 121.367L216.683 118.367L211.317 107.633L205.317 110.633L210.683 121.367ZM208 113V122H220V113H208ZM214 116H208V128H214V116ZM214 122V116H202V122H214Z" fill="#3D0C02" mask="url(#path-7-inside-2_19_2)"/>
</g>
<g filter="url(#filter6_d_19_2)">
<path d="M312 313H334C335.105 313 336 313.895 336 315C336 316.105 335.105 317 334 317H312V313Z" stroke="#3D0C02" stroke-width="5" shape-rendering="crispEdges"/>
</g>
<path d="M100 315H116V331H100V315Z" stroke="#3D0C02" stroke-width="5"/>
<g filter="url(#filter7_d_19_2)">
<path d="M195 151H211V167H195V151Z" stroke="#3D0C02" stroke-width="5" shape-rendering="crispEdges"/>
</g>
<g filter="url(#filter8_d_19_2)">
<path d="M195 196H211V212H195V196Z" stroke="#3D0C02" stroke-width="5" shape-rendering="crispEdges"/>
</g>
<g filter="url(#filter9_d_19_2)">
<path d="M195 241H211V257H195V241Z" stroke="#3D0C02" stroke-width="5" shape-rendering="crispEdges"/>
</g>
<path d="M89.5936 292L124.791 239H142.842L106.909 292H89.5936Z" stroke="#3D0C02" stroke-width="6"/>
<path d="M52.5936 292L87.7905 239H105.842L69.9094 292H52.5936Z" stroke="#3D0C02" stroke-width="6"/>
<path d="M54 266L125 265" stroke="#3D0C02" stroke-width="6"/>
<path d="M71.6685 118.217V131H74.3315V118.217H71.6685Z" fill="#FFD700"/>
<path d="M71.6685 45.7826V33H74.3315V45.7826H71.6685Z" fill="#FFD700"/>
<path d="M36.7826 80.6685H24V83.3315H36.7826V80.6685Z" fill="#FFD700"/>
<path d="M109.217 80.6685H122V83.3315H109.217V80.6685Z" fill="#FFD700"/>
<path d="M48.332 55.4489L39.2933 46.4103L37.4102 48.2933L46.4489 57.332L48.332 55.4489Z" fill="#FFD700"/>
<path d="M99.5511 106.668L108.59 115.707L106.707 117.59L97.668 108.551L99.5511 106.668Z" fill="#FFD700"/>
<path d="M99.5511 57.3319L108.59 48.2933L106.707 46.4103L97.668 55.4489L99.5511 57.3319Z" fill="#FFD700"/>
<path d="M48.332 108.551L39.2933 117.59L37.4102 115.707L46.4489 106.668L48.332 108.551Z" fill="#FFD700"/>
<path d="M73 111.293C89.1783 111.293 102.293 98.1783 102.293 82C102.293 65.8217 89.1783 52.7065 73 52.7065C56.8217 52.7065 43.7065 65.8217 43.7065 82C43.7065 98.1783 56.8217 111.293 73 111.293Z" fill="#FFD700"/>
<path d="M376.734 237.407C378.147 238.364 379.321 239.618 380.255 241.167C381.189 242.716 381.656 244.596 381.656 246.807C381.656 249.062 381.166 251.022 380.187 252.686C379.207 254.349 377.931 255.716 376.358 256.787C374.832 257.835 373.1 258.633 371.163 259.18C369.249 259.727 367.267 260 365.216 260H342.247V257.573C342.794 257.528 343.591 257.437 344.64 257.3C345.688 257.14 346.44 256.958 346.896 256.753C347.602 256.434 348.103 256.012 348.399 255.488C348.696 254.941 348.844 254.246 348.844 253.403V218.54C348.844 217.765 348.707 217.082 348.434 216.489C348.183 215.897 347.67 215.418 346.896 215.054C346.212 214.712 345.449 214.45 344.605 214.268C343.762 214.085 343.056 213.971 342.486 213.926V211.499H364.874C366.606 211.499 368.258 211.67 369.83 212.012C371.425 212.354 372.94 212.957 374.376 213.823C375.72 214.621 376.826 215.703 377.691 217.07C378.557 218.438 378.99 220.101 378.99 222.061C378.99 223.77 378.683 225.296 378.067 226.641C377.452 227.962 376.586 229.102 375.47 230.059C374.422 230.97 373.214 231.745 371.847 232.383C370.502 232.998 369.044 233.477 367.472 233.818V234.126C368.862 234.285 370.411 234.639 372.12 235.186C373.852 235.71 375.39 236.45 376.734 237.407ZM368.497 230.093C369.34 229.113 369.921 228.042 370.24 226.88C370.582 225.718 370.753 224.339 370.753 222.744C370.753 220.078 370.024 217.993 368.565 216.489C367.107 214.963 364.806 214.199 361.661 214.199C360.932 214.199 360.009 214.222 358.893 214.268C357.799 214.29 356.876 214.313 356.124 214.336V232.964H360.465C362.333 232.964 363.928 232.725 365.25 232.246C366.594 231.768 367.677 231.05 368.497 230.093ZM373.214 245.576C373.214 242.705 372.245 240.347 370.309 238.501C368.395 236.655 365.649 235.732 362.071 235.732C360.613 235.732 359.382 235.755 358.38 235.801C357.377 235.824 356.625 235.846 356.124 235.869V252.959C356.124 254.395 356.705 255.477 357.867 256.206C359.029 256.935 360.647 257.3 362.721 257.3C366.116 257.3 368.714 256.309 370.514 254.326C372.314 252.344 373.214 249.427 373.214 245.576ZM433.37 260H413.17V257.573C414.947 257.459 416.417 257.231 417.579 256.89C418.764 256.548 419.356 256.126 419.356 255.625C419.356 255.42 419.334 255.169 419.288 254.873C419.243 254.577 419.174 254.315 419.083 254.087L415.05 243.218H398.062C397.424 244.813 396.9 246.203 396.49 247.388C396.103 248.573 395.75 249.666 395.431 250.669C395.134 251.649 394.929 252.446 394.815 253.062C394.701 253.677 394.645 254.178 394.645 254.565C394.645 255.477 395.362 256.183 396.798 256.685C398.233 257.186 399.851 257.482 401.651 257.573V260H383.399V257.573C383.992 257.528 384.732 257.402 385.621 257.197C386.51 256.969 387.239 256.673 387.809 256.309C388.72 255.693 389.426 255.055 389.928 254.395C390.429 253.711 390.919 252.777 391.397 251.592C393.836 245.508 396.524 238.672 399.464 231.084C402.403 223.496 405.024 216.74 407.325 210.815H410.06L426.227 252.651C426.568 253.54 426.956 254.258 427.389 254.805C427.822 255.352 428.425 255.887 429.2 256.411C429.724 256.73 430.408 257.004 431.251 257.231C432.094 257.437 432.8 257.55 433.37 257.573V260ZM413.819 240.176L406.471 221.377L399.259 240.176H413.819ZM465.294 237.749C466.319 238.888 467.071 240.142 467.55 241.509C468.051 242.853 468.302 244.425 468.302 246.226C468.302 250.509 466.718 254.041 463.551 256.821C460.383 259.601 456.453 260.991 451.759 260.991C449.594 260.991 447.429 260.661 445.265 260C443.1 259.316 441.231 258.496 439.659 257.539L438.189 260.034H435.455L434.977 243.423H437.745C438.315 245.474 438.976 247.331 439.728 248.994C440.502 250.635 441.516 252.173 442.77 253.608C443.954 254.953 445.333 256.024 446.905 256.821C448.5 257.619 450.346 258.018 452.442 258.018C454.015 258.018 455.382 257.812 456.544 257.402C457.729 256.992 458.686 256.411 459.415 255.659C460.144 254.907 460.68 254.03 461.021 253.027C461.386 252.002 461.568 250.828 461.568 249.507C461.568 247.57 461.021 245.77 459.928 244.106C458.834 242.42 457.205 241.144 455.04 240.278C453.559 239.686 451.861 239.036 449.947 238.33C448.033 237.601 446.381 236.917 444.991 236.279C442.257 235.049 440.126 233.442 438.6 231.46C437.096 229.455 436.344 226.846 436.344 223.633C436.344 221.787 436.72 220.067 437.472 218.472C438.224 216.877 439.295 215.452 440.685 214.199C442.006 213.014 443.567 212.091 445.367 211.431C447.167 210.747 449.047 210.405 451.007 210.405C453.24 210.405 455.234 210.747 456.988 211.431C458.766 212.114 460.383 212.912 461.842 213.823L463.243 211.499H465.978L466.251 227.598H463.482C462.981 225.752 462.411 223.986 461.773 222.3C461.158 220.614 460.349 219.087 459.347 217.72C458.367 216.398 457.171 215.35 455.758 214.575C454.345 213.778 452.613 213.379 450.562 213.379C448.398 213.379 446.552 214.074 445.025 215.464C443.499 216.854 442.735 218.551 442.735 220.557C442.735 222.653 443.225 224.396 444.205 225.786C445.185 227.153 446.609 228.281 448.478 229.17C450.141 229.967 451.77 230.662 453.365 231.255C454.983 231.825 456.544 232.44 458.048 233.101C459.415 233.693 460.725 234.365 461.979 235.117C463.255 235.869 464.36 236.746 465.294 237.749ZM521.485 260H507.882C505.261 255.944 502.345 251.922 499.132 247.935C495.942 243.924 492.592 240.039 489.083 236.279H488.194V253.164C488.194 253.916 488.331 254.588 488.604 255.181C488.901 255.773 489.425 256.252 490.177 256.616C490.541 256.776 491.214 256.969 492.193 257.197C493.196 257.425 494.028 257.55 494.688 257.573V260H474.557V257.573C475.081 257.528 475.844 257.459 476.847 257.368C477.849 257.277 478.556 257.14 478.966 256.958C479.649 256.662 480.139 256.229 480.436 255.659C480.755 255.067 480.914 254.36 480.914 253.54V218.54C480.914 217.765 480.777 217.093 480.504 216.523C480.253 215.954 479.741 215.487 478.966 215.122C478.351 214.826 477.621 214.564 476.778 214.336C475.935 214.108 475.195 213.971 474.557 213.926V211.499H494.688V213.926C494.05 213.949 493.253 214.051 492.296 214.233C491.339 214.416 490.632 214.587 490.177 214.746C489.402 215.02 488.878 215.475 488.604 216.113C488.331 216.751 488.194 217.446 488.194 218.198V234.946H488.878C490.929 233.215 492.945 231.414 494.928 229.546C496.91 227.655 498.71 225.775 500.328 223.906C502.128 221.833 503.438 220.181 504.259 218.95C505.102 217.697 505.523 216.592 505.523 215.635C505.523 215.293 505.307 215.02 504.874 214.814C504.464 214.587 503.985 214.404 503.438 214.268C502.8 214.131 502.231 214.051 501.729 214.028C501.228 213.983 500.818 213.949 500.499 213.926V211.499H518.683V213.926C518.614 213.926 518.466 213.937 518.238 213.96C518.01 213.983 517.748 214.006 517.452 214.028C517.133 214.051 516.814 214.097 516.495 214.165C516.176 214.233 515.766 214.313 515.265 214.404C514.467 214.587 513.635 214.883 512.77 215.293C511.926 215.68 511.231 216.17 510.685 216.763C508.338 219.429 505.888 222.186 503.336 225.034C500.784 227.882 498.255 230.48 495.748 232.827C499.212 236.746 502.071 240.119 504.327 242.944C506.606 245.77 509.021 248.789 511.573 252.002C512.553 253.232 513.533 254.224 514.513 254.976C515.493 255.705 516.336 256.252 517.042 256.616C517.634 256.912 518.375 257.14 519.264 257.3C520.152 257.459 520.893 257.55 521.485 257.573V260ZM544.215 260H522.374V257.573C522.989 257.528 523.878 257.459 525.04 257.368C526.202 257.277 527.022 257.14 527.501 256.958C528.253 256.662 528.8 256.263 529.142 255.762C529.483 255.238 529.654 254.52 529.654 253.608V218.472C529.654 217.674 529.529 217.013 529.278 216.489C529.028 215.942 528.435 215.487 527.501 215.122C526.817 214.849 525.951 214.598 524.903 214.37C523.878 214.119 523.035 213.971 522.374 213.926V211.499H544.215V213.926C543.508 213.949 542.665 214.04 541.686 214.199C540.706 214.336 539.851 214.518 539.122 214.746C538.256 215.02 537.675 215.464 537.379 216.079C537.083 216.694 536.935 217.378 536.935 218.13V253.232C536.935 253.984 537.094 254.657 537.413 255.249C537.755 255.819 538.325 256.274 539.122 256.616C539.601 256.799 540.375 257.004 541.446 257.231C542.54 257.437 543.463 257.55 544.215 257.573V260ZM600.064 213.926C599.426 213.949 598.447 214.131 597.125 214.473C595.803 214.814 594.858 215.168 594.288 215.532C593.468 216.102 592.91 217.196 592.613 218.813C592.34 220.431 592.203 222.482 592.203 224.966V260.479H589.229L559.835 220.796V245.815C559.835 248.618 560.006 250.771 560.348 252.275C560.712 253.779 561.259 254.85 561.988 255.488C562.512 255.99 563.595 256.457 565.235 256.89C566.876 257.323 567.958 257.55 568.482 257.573V260H548.59V257.573C549.205 257.528 550.242 257.311 551.7 256.924C553.159 256.514 554.07 256.149 554.435 255.83C555.232 255.192 555.779 254.224 556.075 252.925C556.371 251.603 556.52 249.359 556.52 246.191V222.3C556.52 221.252 556.337 220.203 555.973 219.155C555.608 218.107 555.118 217.298 554.503 216.729C553.683 215.977 552.566 215.339 551.153 214.814C549.763 214.268 548.635 213.971 547.77 213.926V211.499H561.612L588.888 248.481V225.41C588.888 222.585 588.705 220.42 588.341 218.916C587.976 217.389 587.452 216.375 586.769 215.874C586.131 215.441 585.082 215.02 583.624 214.609C582.188 214.199 581.095 213.971 580.343 213.926V211.499H600.064V213.926ZM634.21 237.749C635.235 238.888 635.987 240.142 636.466 241.509C636.967 242.853 637.218 244.425 637.218 246.226C637.218 250.509 635.634 254.041 632.467 256.821C629.299 259.601 625.369 260.991 620.675 260.991C618.51 260.991 616.345 260.661 614.181 260C612.016 259.316 610.147 258.496 608.575 257.539L607.105 260.034H604.371L603.893 243.423H606.661C607.231 245.474 607.892 247.331 608.644 248.994C609.418 250.635 610.432 252.173 611.686 253.608C612.87 254.953 614.249 256.024 615.821 256.821C617.416 257.619 619.262 258.018 621.358 258.018C622.931 258.018 624.298 257.812 625.46 257.402C626.645 256.992 627.602 256.411 628.331 255.659C629.06 254.907 629.596 254.03 629.938 253.027C630.302 252.002 630.484 250.828 630.484 249.507C630.484 247.57 629.938 245.77 628.844 244.106C627.75 242.42 626.121 241.144 623.956 240.278C622.475 239.686 620.777 239.036 618.863 238.33C616.949 237.601 615.297 236.917 613.907 236.279C611.173 235.049 609.042 233.442 607.516 231.46C606.012 229.455 605.26 226.846 605.26 223.633C605.26 221.787 605.636 220.067 606.388 218.472C607.14 216.877 608.211 215.452 609.601 214.199C610.922 213.014 612.483 212.091 614.283 211.431C616.083 210.747 617.963 210.405 619.923 210.405C622.156 210.405 624.15 210.747 625.904 211.431C627.682 212.114 629.299 212.912 630.758 213.823L632.159 211.499H634.894L635.167 227.598H632.398C631.897 225.752 631.327 223.986 630.689 222.3C630.074 220.614 629.265 219.087 628.263 217.72C627.283 216.398 626.087 215.35 624.674 214.575C623.261 213.778 621.529 213.379 619.479 213.379C617.314 213.379 615.468 214.074 613.941 215.464C612.415 216.854 611.651 218.551 611.651 220.557C611.651 222.653 612.141 224.396 613.121 225.786C614.101 227.153 615.525 228.281 617.394 229.17C619.057 229.967 620.686 230.662 622.281 231.255C623.899 231.825 625.46 232.44 626.964 233.101C628.331 233.693 629.641 234.365 630.895 235.117C632.171 235.869 633.276 236.746 634.21 237.749ZM682.506 217.241C684.648 219.474 686.323 222.174 687.53 225.342C688.738 228.486 689.342 231.973 689.342 235.801C689.342 239.652 688.727 243.149 687.496 246.294C686.266 249.438 684.557 252.116 682.369 254.326C680.25 256.514 677.789 258.2 674.986 259.385C672.184 260.57 669.199 261.162 666.031 261.162C662.659 261.162 659.537 260.535 656.666 259.282C653.818 258.006 651.368 256.24 649.317 253.984C647.267 251.774 645.649 249.097 644.464 245.952C643.302 242.785 642.721 239.401 642.721 235.801C642.721 231.859 643.336 228.35 644.566 225.273C645.797 222.174 647.494 219.497 649.659 217.241C651.801 215.008 654.285 213.299 657.11 212.114C659.959 210.929 662.932 210.337 666.031 210.337C669.244 210.337 672.275 210.941 675.123 212.148C677.971 213.356 680.432 215.054 682.506 217.241ZM677.413 251.626C678.689 249.552 679.612 247.205 680.182 244.585C680.774 241.965 681.07 239.036 681.07 235.801C681.07 232.474 680.74 229.421 680.079 226.641C679.441 223.861 678.495 221.491 677.242 219.531C675.989 217.594 674.417 216.09 672.525 215.02C670.634 213.926 668.469 213.379 666.031 213.379C663.297 213.379 660.973 214.006 659.059 215.259C657.145 216.512 655.584 218.187 654.376 220.283C653.237 222.288 652.382 224.635 651.812 227.324C651.266 230.013 650.992 232.839 650.992 235.801C650.992 239.082 651.288 242.044 651.881 244.688C652.473 247.331 653.408 249.678 654.684 251.729C655.914 253.734 657.464 255.306 659.332 256.445C661.201 257.562 663.434 258.12 666.031 258.12C668.469 258.12 670.668 257.55 672.628 256.411C674.588 255.272 676.183 253.677 677.413 251.626ZM734.356 245.576L733.331 260H695.426V257.573C695.973 257.528 696.759 257.448 697.784 257.334C698.832 257.22 699.562 257.072 699.972 256.89C700.655 256.593 701.145 256.16 701.441 255.591C701.76 255.021 701.92 254.292 701.92 253.403V218.677C701.92 217.902 701.783 217.218 701.51 216.626C701.259 216.034 700.746 215.555 699.972 215.19C699.448 214.917 698.707 214.655 697.75 214.404C696.816 214.131 696.041 213.971 695.426 213.926V211.499H715.899V213.926C715.261 213.949 714.43 214.062 713.404 214.268C712.402 214.473 711.673 214.655 711.217 214.814C710.442 215.088 709.907 215.555 709.61 216.216C709.337 216.877 709.2 217.583 709.2 218.335V250.908C709.2 252.412 709.269 253.586 709.405 254.429C709.565 255.249 709.918 255.887 710.465 256.343C710.989 256.753 711.764 257.026 712.789 257.163C713.837 257.277 715.296 257.334 717.164 257.334C718.007 257.334 718.884 257.311 719.796 257.266C720.707 257.22 721.573 257.129 722.394 256.992C723.191 256.855 723.92 256.673 724.581 256.445C725.265 256.195 725.766 255.887 726.085 255.522C727.019 254.474 728.102 252.891 729.332 250.771C730.585 248.63 731.451 246.898 731.93 245.576H734.356ZM782.892 260H762.691V257.573C764.469 257.459 765.938 257.231 767.101 256.89C768.285 256.548 768.878 256.126 768.878 255.625C768.878 255.42 768.855 255.169 768.81 254.873C768.764 254.577 768.696 254.315 768.604 254.087L764.571 243.218H747.584C746.946 244.813 746.422 246.203 746.012 247.388C745.624 248.573 745.271 249.666 744.952 250.669C744.656 251.649 744.451 252.446 744.337 253.062C744.223 253.677 744.166 254.178 744.166 254.565C744.166 255.477 744.884 256.183 746.319 256.685C747.755 257.186 749.373 257.482 751.173 257.573V260H732.921V257.573C733.513 257.528 734.254 257.402 735.143 257.197C736.031 256.969 736.76 256.673 737.33 256.309C738.242 255.693 738.948 255.055 739.449 254.395C739.951 253.711 740.44 252.777 740.919 251.592C743.357 245.508 746.046 238.672 748.985 231.084C751.925 223.496 754.545 216.74 756.847 210.815H759.581L775.748 252.651C776.09 253.54 776.477 254.258 776.91 254.805C777.343 255.352 777.947 255.887 778.722 256.411C779.246 256.73 779.929 257.004 780.772 257.231C781.616 257.437 782.322 257.55 782.892 257.573V260ZM763.341 240.176L755.992 221.377L748.78 240.176H763.341ZM831.871 260H818.814C815.921 255.465 813.3 251.546 810.953 248.242C808.629 244.938 806.1 241.532 803.365 238.022H798.409V253.403C798.409 254.201 798.535 254.907 798.785 255.522C799.036 256.115 799.571 256.571 800.392 256.89C800.802 257.049 801.52 257.197 802.545 257.334C803.57 257.471 804.436 257.55 805.143 257.573V260H784.635V257.573C785.182 257.528 785.968 257.448 786.993 257.334C788.041 257.22 788.771 257.072 789.181 256.89C789.864 256.593 790.354 256.16 790.65 255.591C790.969 255.021 791.129 254.292 791.129 253.403V218.335C791.129 217.537 791.015 216.831 790.787 216.216C790.559 215.601 790.024 215.133 789.181 214.814C788.611 214.609 787.87 214.427 786.959 214.268C786.048 214.085 785.273 213.971 784.635 213.926V211.499H807.022C809.073 211.499 810.999 211.715 812.799 212.148C814.599 212.559 816.228 213.231 817.687 214.165C819.099 215.076 820.227 216.273 821.07 217.754C821.913 219.212 822.335 220.978 822.335 223.052C822.335 224.92 822.05 226.572 821.48 228.008C820.911 229.443 820.068 230.685 818.951 231.733C817.926 232.713 816.695 233.568 815.26 234.297C813.824 235.003 812.241 235.607 810.509 236.108C812.901 239.276 814.884 241.942 816.456 244.106C818.051 246.271 819.999 248.903 822.301 252.002C823.303 253.369 824.203 254.383 825.001 255.044C825.821 255.682 826.63 256.206 827.428 256.616C828.02 256.912 828.761 257.14 829.649 257.3C830.538 257.459 831.279 257.55 831.871 257.573V260ZM813.893 223.838C813.893 220.898 813.049 218.574 811.363 216.865C809.677 215.133 807.296 214.268 804.22 214.268H798.409V235.083H802.887C806.031 235.083 808.652 234.08 810.748 232.075C812.844 230.047 813.893 227.301 813.893 223.838Z" fill="#129CD2"/>
<defs>
<filter id="filter0_d_19_2" x="50" y="288" width="126" height="84" filterUnits="userSpaceOnUse" color-interpolation-filters="sRGB">
<feFlood flood-opacity="0" result="BackgroundImageFix"/>
<feColorMatrix in="SourceAlpha" type="matrix" values="0 0 0 0 0 0 0 0 0 0 0 0 0 0 0 0 0 0 127 0" result="hardAlpha"/>
<feOffset dy="4"/>
<feGaussianBlur stdDeviation="2"/>
<feComposite in2="hardAlpha" operator="out"/>
<feColorMatrix type="matrix" values="0 0 0 0 0 0 0 0 0 0 0 0 0 0 0 0 0 0 0.25 0"/>
<feBlend mode="normal" in2="BackgroundImageFix" result="effect1_dropShadow_19_2"/>
<feBlend mode="normal" in="SourceGraphic" in2="effect1_dropShadow_19_2" result="shape"/>
</filter>
<filter id="filter1_d_19_2" x="29.4221" y="236" width="146.578" height="67" filterUnits="userSpaceOnUse" color-interpolation-filters="sRGB">
<feFlood flood-opacity="0" result="BackgroundImageFix"/>
<feColorMatrix in="SourceAlpha" type="matrix" values="0 0 0 0 0 0 0 0 0 0 0 0 0 0 0 0 0 0 127 0" result="hardAlpha"/>
<feOffset dy="4"/>
<feGaussianBlur stdDeviation="2"/>
<feComposite in2="hardAlpha" operator="out"/>
<feColorMatrix type="matrix" values="0 0 0 0 0 0 0 0 0 0 0 0 0 0 0 0 0 0 0.25 0"/>
<feBlend mode="normal" in2="BackgroundImageFix" result="effect1_dropShadow_19_2"/>
<feBlend mode="normal" in="SourceGraphic" in2="effect1_dropShadow_19_2" result="shape"/>
</filter>
<filter id="filter2_d_19_2" x="162" y="122" width="151" height="250" filterUnits="userSpaceOnUse" color-interpolation-filters="sRGB">
<feFlood flood-opacity="0" result="BackgroundImageFix"/>
<feColorMatrix in="SourceAlpha" type="matrix" values="0 0 0 0 0 0 0 0 0 0 0 0 0 0 0 0 0 0 127 0" result="hardAlpha"/>
<feOffset dy="4"/>
<feGaussianBlur stdDeviation="2"/>
<feComposite in2="hardAlpha" operator="out"/>
<feColorMatrix type="matrix" values="0 0 0 0 0 0 0 0 0 0 0 0 0 0 0 0 0 0 0.25 0"/>
<feBlend mode="normal" in2="BackgroundImageFix" result="effect1_dropShadow_19_2"/>
<feBlend mode="normal" in="SourceGraphic" in2="effect1_dropShadow_19_2" result="shape"/>
</filter>
<filter id="filter3_d_19_2" x="276" y="82" width="37" height="54" filterUnits="userSpaceOnUse" color-interpolation-filters="sRGB">
<feFlood flood-opacity="0" result="BackgroundImageFix"/>
<feColorMatrix in="SourceAlpha" type="matrix" values="0 0 0 0 0 0 0 0 0 0 0 0 0 0 0 0 0 0 127 0" result="hardAlpha"/>
<feOffset dy="4"/>
<feGaussianBlur stdDeviation="2"/>
<feComposite in2="hardAlpha" operator="out"/>
<feColorMatrix type="matrix" values="0 0 0 0 0 0 0 0 0 0 0 0 0 0 0 0 0 0 0.25 0"/>
<feBlend mode="normal" in2="BackgroundImageFix" result="effect1_dropShadow_19_2"/>
<feBlend mode="normal" in="SourceGraphic" in2="effect1_dropShadow_19_2" result="shape"/>
</filter>
<filter id="filter4_d_19_2" x="179.396" y="83.6558" width="82.1307" height="46.7207" filterUnits="userSpaceOnUse" color-interpolation-filters="sRGB">
<feFlood flood-opacity="0" result="BackgroundImageFix"/>
<feColorMatrix in="SourceAlpha" type="matrix" values="0 0 0 0 0 0 0 0 0 0 0 0 0 0 0 0 0 0 127 0" result="hardAlpha"/>
<feOffset dy="4"/>
<feGaussianBlur stdDeviation="2"/>
<feComposite in2="hardAlpha" operator="out"/>
<feColorMatrix type="matrix" values="0 0 0 0 0 0 0 0 0 0 0 0 0 0 0 0 0 0 0.25 0"/>
<feBlend mode="normal" in2="BackgroundImageFix" result="effect1_dropShadow_19_2"/>
<feBlend mode="normal" in="SourceGraphic" in2="effect1_dropShadow_19_2" result="shape"/>
</filter>
<filter id="filter5_d_19_2" x="204" y="113" width="14" height="17" filterUnits="userSpaceOnUse" color-interpolation-filters="sRGB">
<feFlood flood-opacity="0" result="BackgroundImageFix"/>
<feColorMatrix in="SourceAlpha" type="matrix" values="0 0 0 0 0 0 0 0 0 0 0 0 0 0 0 0 0 0 127 0" result="hardAlpha"/>
<feOffset dy="4"/>
<feGaussianBlur stdDeviation="2"/>
<feComposite in2="hardAlpha" operator="out"/>
<feColorMatrix type="matrix" values="0 0 0 0 0 0 0 0 0 0 0 0 0 0 0 0 0 0 0.25 0"/>
<feBlend mode="normal" in2="BackgroundImageFix" result="effect1_dropShadow_19_2"/>
<feBlend mode="normal" in="SourceGraphic" in2="effect1_dropShadow_19_2" result="shape"/>
</filter>
<filter id="filter6_d_19_2" x="305" y="310" width="38" height="18" filterUnits="userSpaceOnUse" color-interpolation-filters="sRGB">
<feFlood flood-opacity="0" result="BackgroundImageFix"/>
<feColorMatrix in="SourceAlpha" type="matrix" values="0 0 0 0 0 0 0 0 0 0 0 0 0 0 0 0 0 0 127 0" result="hardAlpha"/>
<feOffset dy="4"/>
<feGaussianBlur stdDeviation="2"/>
<feComposite in2="hardAlpha" operator="out"/>
<feColorMatrix type="matrix" values="0 0 0 0 0 0 0 0 0 0 0 0 0 0 0 0 0 0 0.25 0"/>
<feBlend mode="normal" in2="BackgroundImageFix" result="effect1_dropShadow_19_2"/>
<feBlend mode="normal" in="SourceGraphic" in2="effect1_dropShadow_19_2" result="shape"/>
</filter>
<filter id="filter7_d_19_2" x="188.5" y="148.5" width="29" height="29" filterUnits="userSpaceOnUse" color-interpolation-filters="sRGB">
<feFlood flood-opacity="0" result="BackgroundImageFix"/>
<feColorMatrix in="SourceAlpha" type="matrix" values="0 0 0 0 0 0 0 0 0 0 0 0 0 0 0 0 0 0 127 0" result="hardAlpha"/>
<feOffset dy="4"/>
<feGaussianBlur stdDeviation="2"/>
<feComposite in2="hardAlpha" operator="out"/>
<feColorMatrix type="matrix" values="0 0 0 0 0 0 0 0 0 0 0 0 0 0 0 0 0 0 0.25 0"/>
<feBlend mode="normal" in2="BackgroundImageFix" result="effect1_dropShadow_19_2"/>
<feBlend mode="normal" in="SourceGraphic" in2="effect1_dropShadow_19_2" result="shape"/>
</filter>
<filter id="filter8_d_19_2" x="188.5" y="193.5" width="29" height="29" filterUnits="userSpaceOnUse" color-interpolation-filters="sRGB">
<feFlood flood-opacity="0" result="BackgroundImageFix"/>
<feColorMatrix in="SourceAlpha" type="matrix" values="0 0 0 0 0 0 0 0 0 0 0 0 0 0 0 0 0 0 127 0" result="hardAlpha"/>
<feOffset dy="4"/>
<feGaussianBlur stdDeviation="2"/>
<feComposite in2="hardAlpha" operator="out"/>
<feColorMatrix type="matrix" values="0 0 0 0 0 0 0 0 0 0 0 0 0 0 0 0 0 0 0.25 0"/>
<feBlend mode="normal" in2="BackgroundImageFix" result="effect1_dropShadow_19_2"/>
<feBlend mode="normal" in="SourceGraphic" in2="effect1_dropShadow_19_2" result="shape"/>
</filter>
<filter id="filter9_d_19_2" x="188.5" y="238.5" width="29" height="29" filterUnits="userSpaceOnUse" color-interpolation-filters="sRGB">
<feFlood flood-opacity="0" result="BackgroundImageFix"/>
<feColorMatrix in="SourceAlpha" type="matrix" values="0 0 0 0 0 0 0 0 0 0 0 0 0 0 0 0 0 0 127 0" result="hardAlpha"/>
<feOffset dy="4"/>
<feGaussianBlur stdDeviation="2"/>
<feComposite in2="hardAlpha" operator="out"/>
<feColorMatrix type="matrix" values="0 0 0 0 0 0 0 0 0 0 0 0 0 0 0 0 0 0 0.25 0"/>
<feBlend mode="normal" in2="BackgroundImageFix" result="effect1_dropShadow_19_2"/>
<feBlend mode="normal" in="SourceGraphic" in2="effect1_dropShadow_19_2" result="shape"/>
</filter>
</defs>
</svg>
